<?xml version="1.0" standalone="no"?>
<!DOCTYPE svg PUBLIC "-//W3C//DTD SVG 1.1//EN" "http://www.w3.org/Graphics/SVG/1.1/DTD/svg11.dtd" >
<svg>
<metadata>
Created by FontForge 20120731 at Fri Aug 30 04:14:46 2019
 By www
Copyright (c) 2013 by ArtLebedev Studio. All rights reserved.
</metadata>
<defs>
<font id="ALSMalina" horiz-adv-x="1329" >
  <font-face 
    font-family="ALS Malina"
    font-weight="400"
    font-stretch="normal"
    units-per-em="2048"
    panose-1="2 0 0 0 0 0 0 0 0 0"
    ascent="1536"
    descent="-512"
    x-height="1090"
    cap-height="1391"
    bbox="-217 -702 5743 2144"
    underline-thickness="102"
    underline-position="-102"
    unicode-range="U+0020-FB02"
  />
<missing-glyph horiz-adv-x="2680" 
d="M106 570q-5 25 0.5 51t18.5 53l186 393q37 73 64 102q-70 -4 -107 -8q-39 68 -39 123q0 53 48 80t157 27h262q74 0 115 -26.5t68 -94.5l217 -576q28 -78 63 -141q-168 -47 -244 -47q-57 0 -91 25t-54 87l-16 52h-328l-66 -156h-157q-43 0 -67.5 15.5t-29.5 40.5zM147 145
q0 86 59.5 140.5t190.5 54.5h1911q108 0 205 43q65 -85 65 -188q0 -86 -59.5 -140.5t-189.5 -54.5h-1911q-108 0 -205 -43q-66 86 -66 188zM516 883q-5 -10 4 -14.5t19 -4.5h139l-72 219zM1057 1311q0 33 4 47q90 5 211.5 17t169.5 16q30 0 51 -10.5t31.5 -24.5t16 -39.5
t6.5 -42.5t1 -47v-461q0 -23 15 -23h469q26 0 40 1t34 4.5t29 13t9 24.5t-19 25.5t-50.5 16t-71.5 13.5t-81.5 17t-82 28.5t-72 46t-51 72t-20.5 103.5q0 135 117.5 213t338.5 78q172 0 264.5 -47t92.5 -133q0 -40 -29.5 -75t-87.5 -54q-121 73 -287 73q-21 0 -32.5 -0.5
t-29 -3.5t-26 -11t-8.5 -20q0 -16 27.5 -28.5t71.5 -22.5t97 -22t106 -32t97 -47.5t71.5 -73.5t27.5 -105q-13 -283 -387 -283h-795q-34 0 -59 11t-38.5 26.5t-21.5 43t-10.5 50t-3.5 57.5v439q-69 13 -102 60t-33 110z" />
    <glyph glyph-name=".notdef" horiz-adv-x="2680" 
d="M106 570q-5 25 0.5 51t18.5 53l186 393q37 73 64 102q-70 -4 -107 -8q-39 68 -39 123q0 53 48 80t157 27h262q74 0 115 -26.5t68 -94.5l217 -576q28 -78 63 -141q-168 -47 -244 -47q-57 0 -91 25t-54 87l-16 52h-328l-66 -156h-157q-43 0 -67.5 15.5t-29.5 40.5zM147 145
q0 86 59.5 140.5t190.5 54.5h1911q108 0 205 43q65 -85 65 -188q0 -86 -59.5 -140.5t-189.5 -54.5h-1911q-108 0 -205 -43q-66 86 -66 188zM516 883q-5 -10 4 -14.5t19 -4.5h139l-72 219zM1057 1311q0 33 4 47q90 5 211.5 17t169.5 16q30 0 51 -10.5t31.5 -24.5t16 -39.5
t6.5 -42.5t1 -47v-461q0 -23 15 -23h469q26 0 40 1t34 4.5t29 13t9 24.5t-19 25.5t-50.5 16t-71.5 13.5t-81.5 17t-82 28.5t-72 46t-51 72t-20.5 103.5q0 135 117.5 213t338.5 78q172 0 264.5 -47t92.5 -133q0 -40 -29.5 -75t-87.5 -54q-121 73 -287 73q-21 0 -32.5 -0.5
t-29 -3.5t-26 -11t-8.5 -20q0 -16 27.5 -28.5t71.5 -22.5t97 -22t106 -32t97 -47.5t71.5 -73.5t27.5 -105q-13 -283 -387 -283h-795q-34 0 -59 11t-38.5 26.5t-21.5 43t-10.5 50t-3.5 57.5v439q-69 13 -102 60t-33 110z" />
    <glyph glyph-name=".null" horiz-adv-x="0" 
 />
    <glyph glyph-name="nonmarkingreturn" horiz-adv-x="682" 
 />
    <glyph glyph-name="space" unicode=" " horiz-adv-x="436" 
 />
    <glyph glyph-name="exclam" unicode="!" horiz-adv-x="555" 
d="M29 166q0 90 69.5 160.5t186.5 70.5q107 0 162 -51.5t55 -138.5q0 -91 -69.5 -161.5t-186.5 -70.5q-108 0 -162.5 52t-54.5 139zM35 1135q0 223 246 223q119 0 251 -49q-30 -59 -67 -539q-8 -98 -12 -152q-13 -149 -170 -149q-67 0 -203 39q1 59 -22 321.5t-23 305.5z
" />
    <glyph glyph-name="quotedbl" unicode="&#x22;" horiz-adv-x="954" 
d="M33 1180q0 90 58 150.5t169 60.5q108 0 186 -48l-26 -407q-11 -162 -172 -162q-92 0 -197 37zM508 1180q0 89 59 150t170 61q109 0 187 -48l-29 -407q-4 -85 -50 -123.5t-120 -38.5q-92 0 -197 37z" />
    <glyph glyph-name="numbersign" unicode="#" horiz-adv-x="1134" 
d="M20 408q0 71 46.5 106t166.5 35h572q146 0 221 29q29 -82 29 -172q0 -72 -46 -108t-165 -36h-27l-35 -168q-11 -58 -56.5 -84t-102.5 -26q-79 0 -117 53l43 225h-90l-33 -168q-8 -40 -35.5 -65.5t-59 -35t-67.5 -9.5q-34 0 -67 14t-52 39l45 225q-81 -4 -139 -26
q-31 88 -31 172zM82 778q0 71 46 106.5t167 35.5h31l26 133q21 112 142 112q36 0 78 -15.5t61 -41.5l-41 -188h92l29 133q21 112 139 112q36 0 78 -15.5t59 -41.5l-37 -186q74 4 135 28q27 -93 27 -174q0 -72 -45 -106.5t-166 -34.5h-569h-20h-28.5t-29 -1t-35.5 -2.5
t-34 -4.5t-38.5 -8t-35.5 -11q-31 84 -31 170z" />
    <glyph glyph-name="dollar" unicode="$" horiz-adv-x="1290" 
d="M143 242q0 58 26.5 108.5t78.5 81.5q67 -49 160 -81t182 -32q31 0 49 1.5t42 6.5t36 18t12 34q0 24 -31 39t-80.5 24t-109.5 20t-120.5 34.5t-110.5 60t-82 104t-33 158.5q0 160 110 263t322 130v13q0 122 -10 164q64 47 143 47q61 0 97 -37.5t36 -136.5v-48
q160 -17 244 -78t84 -159q0 -56 -36.5 -105t-107.5 -75q-150 102 -362 102q-24 0 -40.5 -1.5t-38 -5.5t-33 -15.5t-11.5 -28.5q0 -20 27 -36t71 -26.5t100.5 -25.5t115 -31.5t115 -45.5t100.5 -65.5t71 -94.5t27 -130q-12 -314 -334 -387v-12q0 -122 10 -164
q-64 -47 -143 -47q-61 0 -97 37.5t-36 136.5v27q-443 7 -443 258z" />
    <glyph glyph-name="percent" unicode="%" horiz-adv-x="2082" 
d="M20 815q0 177 105 294.5t297 117.5q145 0 234 -56.5t122 -158.5q27 -6 56 -6q56 0 100 20q22 11 37 37q105 221 325 221q85 0 154 -36t94 -107q-113 -73 -166 -215l-231 -701q-28 -86 -65 -144t-83 -88t-93.5 -42t-108.5 -12q-82 0 -151 26t-93 80q51 41 88 97.5
t68 146.5l188 573q-24 -6 -59 -6q-25 0 -37 2q-2 -111 -44.5 -199t-132.5 -143.5t-216 -56.5q-198 0 -293 94.5t-95 261.5zM319 840q0 -44 23 -77.5t66 -33.5q40 0 66 31.5t26 85.5t-24 83t-62 29q-39 0 -67 -32.5t-28 -85.5zM1286 414q0 175 105 292t297 117
q191 0 284.5 -94.5t93.5 -261.5q0 -84 -24.5 -157.5t-72 -130.5t-123.5 -90t-173 -34q-198 0 -292.5 95t-94.5 264zM1587 436q0 -45 21.5 -77.5t64.5 -32.5q40 0 66 31t26 85t-24 83.5t-62 29.5t-65 -32.5t-27 -86.5z" />
    <glyph glyph-name="ampersand" unicode="&#x26;" horiz-adv-x="1490" 
d="M27 379q0 126 66 216t190 112q-85 38 -126.5 106t-41.5 152q0 185 150 278.5t417 93.5q207 0 327.5 -74t120.5 -188q0 -98 -88 -155q-50 27 -133.5 48t-158.5 21q-189 0 -189 -119q0 -56 33 -81t84 -25h420q217 5 282 70q44 -34 69.5 -84t25.5 -101q0 -76 -53.5 -129
t-153.5 -53q-5 0 -13.5 1t-13.5 1q45 -54 45 -131q0 -170 -167 -266.5t-466 -96.5q-302 0 -464 105t-162 299zM551 391q0 -49 45 -71.5t111 -22.5q76 0 133 33.5t57 91.5q0 39 -31 47h-202q-59 0 -86 -22t-27 -56z" />
    <glyph glyph-name="quotesingle" unicode="'" horiz-adv-x="485" 
d="M29 1180q0 89 60.5 150t174.5 61q112 0 193 -48l-29 -407q-11 -162 -176 -162q-94 0 -203 37z" />
    <glyph glyph-name="parenleft" unicode="(" horiz-adv-x="790" 
d="M23 616q0 69 5.5 141.5t21 159.5t39.5 165t64 153.5t91 129.5t124.5 87t161.5 33q93 0 161.5 -53t68.5 -142q0 -26 -6 -63q-152 -40 -232 -186.5t-80 -426.5q0 -498 312 -581q6 -37 6 -64q0 -92 -68 -143t-162 -51q-86 0 -159 31t-124 83t-91 123.5t-64.5 147
t-40.5 159.5t-22 156t-6 141z" />
    <glyph glyph-name="parenright" unicode=")" horiz-adv-x="790" 
d="M31 -31q0 27 6 64q311 83 311 581q0 189 -38.5 319t-105.5 199t-167 95q-6 37 -6 63q0 89 68 142t161 53q88 0 161.5 -33t125 -87.5t91.5 -129.5t64 -153t39.5 -165t21 -159.5t5.5 -141.5t-6 -141t-22 -156t-40.5 -159.5t-65 -147t-91.5 -123.5t-124 -83t-159 -31
q-94 0 -161.5 51t-67.5 143z" />
    <glyph glyph-name="asterisk" unicode="*" horiz-adv-x="1011" 
d="M-41 1264q0 67 44 115t116 48q95 0 252 -100q-62 128 -62 209q0 67 39.5 105t134.5 42q96 -4 136 -42t40 -105q0 -79 -61 -209q149 100 250 100q75 0 117.5 -47.5t42.5 -115.5q0 -148 -207 -148q-58 0 -144 12q52 -26 86 -46t72.5 -48.5t58 -59.5t19.5 -65
q0 -72 -57 -120t-129 -48q-45 0 -82 23t-63.5 66t-44 85t-34.5 99q-16 -56 -33.5 -99t-43.5 -85.5t-62.5 -65.5t-81.5 -23q-72 0 -129 48t-57 120q0 34 19.5 66t58 60t72.5 48t85 45q-86 -12 -143 -12q-209 0 -209 148z" />
    <glyph glyph-name="plus" unicode="+" horiz-adv-x="1073" 
d="M31 590q0 84 50 126t181 42h74q23 0 31 8t8 31v37q0 151 -15 213q91 59 201 59q85 0 136 -48t51 -175v-125h79q144 0 220 37q47 -112 47 -201q0 -84 -50.5 -126t-181.5 -42h-76q-23 0 -30.5 -8t-7.5 -31v-55q0 -155 14 -213q-93 -60 -201 -60q-85 0 -135.5 48.5
t-50.5 175.5v143h-78q-143 0 -219 -37q-47 112 -47 201z" />
    <glyph glyph-name="comma" unicode="," horiz-adv-x="575" 
d="M18 -127q61 28 99.5 74.5t38.5 103.5q0 36 -27 93.5t-27 86.5q0 74 69.5 120t150.5 46q76 0 130 -39.5t77.5 -96.5t23.5 -122q0 -95 -44.5 -179.5t-126.5 -137.5t-181 -53q-135 0 -183 104z" />
    <glyph glyph-name="hyphen" unicode="-" horiz-adv-x="917" 
d="M29 623q0 99 53.5 137.5t175.5 40.5h369q141 0 219 37q16 -42 30.5 -112.5t14.5 -121.5q0 -100 -53 -138t-174 -40h-371q-141 0 -219 -37q-16 42 -30.5 112.5t-14.5 121.5z" />
    <glyph glyph-name="period" unicode="." horiz-adv-x="522" 
d="M25 166q0 90 69.5 160.5t186.5 70.5q107 0 162 -51.5t55 -138.5q0 -91 -69.5 -161.5t-186.5 -70.5q-108 0 -162.5 52t-54.5 139z" />
    <glyph glyph-name="slash" unicode="/" horiz-adv-x="874" 
d="M8 16q28 61 74 168l436 1057q51 125 176 125q47 0 99.5 -21.5t74.5 -56.5q-16 -35 -73 -168l-437 -1057q-50 -124 -176 -124q-47 0 -99.5 21.5t-74.5 55.5z" />
    <glyph glyph-name="zero" unicode="0" horiz-adv-x="1189" 
d="M27 559q0 108 21.5 203t67.5 176.5t113 140.5t163.5 92t213.5 33q557 0 557 -579q0 -131 -32.5 -245t-97.5 -205t-174 -144t-251 -54q-581 0 -581 582zM457 584q0 -94 41.5 -161t126.5 -67q77 0 124.5 60.5t47.5 177.5q0 114 -42.5 174.5t-115.5 60.5q-79 0 -130.5 -63.5
t-51.5 -181.5z" />
    <glyph glyph-name="one" unicode="1" horiz-adv-x="1097" 
d="M25 1022q72 20 192.5 66t213.5 75t155 29h86q76 0 108.5 -39.5t32.5 -120.5v-690h225q39 -83 39 -172q0 -75 -39.5 -122.5t-128.5 -47.5h-819q-39 86 -39 174q0 76 39.5 122t128.5 46h107v459q-127 0 -200 49t-101 172z" />
    <glyph glyph-name="two" unicode="2" horiz-adv-x="1144" 
d="M31 193q0 176 186 256q189 82 240 114q83 52 92 117q2 10 2 22q0 46 -35 76.5t-104 30.5t-140 -25t-116 -55q-125 98 -125 213q0 125 133 194.5t358 69.5q246 0 379 -89t133 -265q0 -324 -524 -471h178q187 0 273 92q70 -33 114.5 -100t44.5 -144q0 -99 -70.5 -164
t-220.5 -65h-745q-53 104 -53 193z" />
    <glyph glyph-name="three" unicode="3" horiz-adv-x="1112" 
d="M27 266q0 126 90 195q150 -107 332 -107q72 0 110.5 18t38.5 68q0 43 -45 58.5t-160 15.5q-74 0 -74 64v28q0 32 15 50.5t51 33.5l256 113h-336q-102 0 -161.5 69.5t-59.5 163.5q0 107 74 178q81 -30 248 -30h501q148 0 142 -160l-2 -37q-5 -86 -32 -136t-108 -87
l-217 -98q210 -7 302.5 -84t92.5 -222q0 -385 -559 -385q-231 0 -365 72t-134 219z" />
    <glyph glyph-name="four" unicode="4" horiz-adv-x="1243" 
d="M10 436q0 84 58 148l446 497q107 115 221 115h180q76 0 109 -39.5t33 -120.5v-510l133 9q31 -57 31 -111q0 -53 -35 -93t-99 -40h-30v-268q-107 -39 -226 -39q-260 0 -260 180v127h-161q-158 0 -342 -6q-58 67 -58 151zM313 526h258v299z" />
    <glyph glyph-name="five" unicode="5" horiz-adv-x="1114" 
d="M25 258q0 59 23.5 114t64.5 85q71 -52 167.5 -77.5t192.5 -25.5q123 0 123 90q0 24 -8.5 39.5t-19 23.5t-38 12t-47.5 4.5t-65 0.5h-17h-155q-65 0 -108 39.5t-36 120.5l52 340q5 33 13.5 58.5t23.5 50t41 38t61 13.5h446q167 0 248 30q76 -76 76 -178q0 -91 -59 -151
t-162 -60h-389l-19 -114q102 51 230 51q196 0 308.5 -93t112.5 -261q0 -206 -141 -319.5t-434 -113.5q-64 0 -125 6.5t-128.5 26t-117 50t-82 82t-32.5 118.5z" />
    <glyph glyph-name="six" unicode="6" horiz-adv-x="1150" 
d="M27 516q0 116 19.5 215.5t65 188t114.5 151t174 99t237 36.5q85 0 158.5 -12t137 -37t100 -71t36.5 -109q0 -52 -25 -98t-67 -70q-111 59 -229 59q-47 0 -86 -9.5t-73 -31.5t-53.5 -63t-19.5 -98q73 100 240 100q178 0 273 -98.5t95 -259.5q0 -202 -143 -317.5
t-412 -115.5q-542 0 -542 541zM475 500q0 -213 123 -213q46 0 80.5 28.5t34.5 85.5q0 48 -18 77.5t-71.5 47t-148.5 17.5v-43z" />
    <glyph glyph-name="seven" unicode="7" horiz-adv-x="1038" 
d="M25 1018q0 52 19.5 107t53.5 89q36 -13 84.5 -20t76.5 -7.5t87 -0.5h522q86 0 120 -41t34 -133v-101q0 -175 -100 -262q-137 -123 -197.5 -220t-60.5 -218q0 -87 43 -125q-34 -55 -113 -78.5t-164 -23.5q-119 0 -196.5 70.5t-77.5 203.5q0 293 458 547h-364
q-105 0 -165 60t-60 153z" />
    <glyph glyph-name="eight" unicode="8" horiz-adv-x="1185" 
d="M27 326q0 116 63 190.5t164 106.5q-79 39 -125.5 101.5t-46.5 145.5q0 84 43 150t116 105.5t163 60t190 20.5q242 0 377 -83.5t135 -239.5q0 -175 -184 -250q114 -36 175.5 -110.5t61.5 -180.5q0 -97 -45 -169t-125.5 -114.5t-180.5 -63t-220 -20.5t-220 20.5t-177.5 62
t-120.5 110t-43 158.5zM444 356q0 -56 41.5 -82t104.5 -26q56 0 94.5 22.5t38.5 65.5q0 44 -38.5 78t-109.5 67q-63 -26 -97 -54t-34 -71zM494 881q0 -67 118 -121q101 46 101 119q0 35 -29 57t-84 22q-42 0 -74 -18.5t-32 -58.5z" />
    <glyph glyph-name="nine" unicode="9" horiz-adv-x="1144" 
d="M25 762q0 208 149.5 326t421.5 118q522 0 522 -530q0 -701 -602 -701q-66 0 -122.5 6t-112 22t-94.5 41t-63 65.5t-24 93.5q0 98 72 162q46 -24 113.5 -41t128.5 -17q205 0 215 205q-84 -100 -244 -100q-169 0 -264.5 98t-95.5 252zM436 776q0 -48 17.5 -76.5t70.5 -46.5
t146 -18v45q0 111 -26.5 164t-84.5 53q-49 0 -86 -31.5t-37 -89.5z" />
    <glyph glyph-name="colon" unicode=":" horiz-adv-x="522" 
d="M25 166q0 90 69.5 160.5t186.5 70.5q107 0 162 -51.5t55 -138.5q0 -91 -69.5 -161.5t-186.5 -70.5q-108 0 -162.5 52t-54.5 139zM25 858q0 91 69.5 161.5t186.5 70.5q107 0 162 -52t55 -139q0 -90 -69.5 -160.5t-186.5 -70.5q-108 0 -162.5 52t-54.5 138z" />
    <glyph glyph-name="semicolon" unicode=";" horiz-adv-x="585" 
d="M18 -127q61 28 99.5 74.5t38.5 103.5q0 36 -27 93.5t-27 86.5q0 74 69.5 120t150.5 46q76 0 130 -39.5t77.5 -96.5t23.5 -122q0 -95 -44.5 -179.5t-126.5 -137.5t-181 -53q-135 0 -183 104zM88 858q0 91 69.5 161.5t186.5 70.5q107 0 162 -52t55 -139q0 -90 -69.5 -160.5
t-186.5 -70.5q-108 0 -162.5 52t-54.5 138z" />
    <glyph glyph-name="less" unicode="&#x3c;" horiz-adv-x="802" 
d="M8 532q0 47 20 91t58 71l494 342q84 -23 137 -86t53 -141q0 -80 -65 -123l-291 -139l288 -144q72 -41 72 -131q0 -76 -58.5 -141t-142.5 -84l-481 324q-84 59 -84 161z" />
    <glyph glyph-name="equal" unicode="=" horiz-adv-x="1011" 
d="M31 348q0 84 50 126t181 42h455q143 0 219 37q47 -112 47 -207q0 -84 -50 -126t-181 -42h-455q-143 0 -219 -37q-47 112 -47 207zM31 778q0 84 50 126t181 42h455q143 0 219 37q47 -112 47 -207q0 -84 -50 -126t-181 -42h-455q-143 0 -219 -37q-47 112 -47 207z" />
    <glyph glyph-name="greater" unicode="&#x3e;" horiz-adv-x="802" 
d="M29 272q0 91 71 131l289 144l-291 139q-65 43 -65 123q0 78 53 141t137 86l494 -342q38 -27 58 -71t20 -91q0 -102 -84 -161l-482 -324q-84 19 -142 84t-58 141z" />
    <glyph glyph-name="question" unicode="?" horiz-adv-x="1009" 
d="M18 1120q0 125 115.5 192.5t325.5 67.5q72 0 139 -8t141 -31t127.5 -59.5t89.5 -100t37 -145.5q0 -62 -18 -115t-47 -89.5t-63.5 -69t-69.5 -61t-64 -57t-47 -65.5t-18 -79q-33 -24 -95 -40t-127 -16q-98 0 -166.5 44.5t-68.5 129.5q0 56 31 103t74.5 77.5t87.5 55.5
t75 47t31 41q0 39 -105 39q-131 0 -260 -55q-125 74 -125 194zM236 166q0 90 69.5 160.5t186.5 70.5q107 0 162 -51.5t55 -138.5q0 -91 -69.5 -161.5t-186.5 -70.5q-108 0 -162.5 52t-54.5 139z" />
    <glyph glyph-name="at" unicode="@" horiz-adv-x="1863" 
d="M27 406q0 177 48 323t134 249t206 173t262 103.5t304 33.5q203 0 366.5 -58.5t271.5 -162.5t166 -247t58 -312q0 -83 -17 -160t-54 -145t-90 -118.5t-129.5 -80t-168.5 -29.5q-55 0 -96 5.5t-83.5 21t-76.5 47.5t-59 80q-95 -145 -289 -145q-123 0 -201.5 65t-78.5 178
q0 63 29.5 113t78.5 79.5t107.5 44.5t122.5 15q125 0 211 -35v31q0 34 -20.5 59t-53 36.5t-61.5 16.5t-56 5q-111 0 -227 -51q-58 66 -58 123q0 58 55 101t138 63t180 20q209 0 315.5 -84t106.5 -242v-258q0 -67 55 -67q38 0 64.5 32.5t38 86.5t16 100.5t4.5 97.5
q0 129 -46 226.5t-127.5 156t-185 87t-226.5 28.5q-288 0 -453.5 -144.5t-165.5 -423.5q0 -291 130 -433t374 -142q163 0 241 45q56 -56 56 -121q0 -94 -90.5 -140t-259.5 -46q-184 0 -331.5 62t-241.5 170.5t-143.5 253t-49.5 313.5zM829 268q0 -27 20 -45t50 -18
q45 0 91.5 28.5t58.5 79.5v33q-38 6 -86 6q-73 0 -103.5 -25.5t-30.5 -58.5z" />
    <glyph glyph-name="A" unicode="A" horiz-adv-x="1372" 
d="M56 168q6 42 24 84l260 620q46 108 86 162q-96 -4 -150 -10q-51 104 -51 193q0 85 67 129.5t218 44.5h369q104 0 163 -44.5t95 -152.5l303 -911q45 -136 86 -224q-233 -75 -344 -75q-74 0 -120 40.5t-79 139.5l-27 82h-448l-94 -246h-226q-57 0 -90 24q-34 26 -42 64
q-4 21 -4 42q1 18 4 38zM637 586q-2 -8 -2 -15q0 -20 24 -20h197l-104 336z" />
    <glyph glyph-name="B" unicode="B" horiz-adv-x="1390" 
d="M14 1210q0 39 11.5 69.5t33.5 49.5t48 32t60.5 19t64.5 8.5t67 2.5h481q586 0 586 -361q0 -90 -42 -163.5t-124 -110.5q121 -29 181.5 -112.5t60.5 -194.5q0 -92 -35 -165.5t-86 -120t-134 -80.5t-154 -50.5t-173 -26t-163.5 -11t-151.5 -1.5q-43 0 -71.5 1t-63.5 6
t-58 14t-47 25.5t-38 40t-22.5 58t-8.5 78.5v811q-80 0 -156 -10q-66 94 -66 192zM723 795h70q149 0 149 127q0 106 -137 106h-82v-233zM725 322q35 -5 68 -5q88 0 132 30.5t44 98.5q0 117 -152 117h-92v-241z" />
    <glyph glyph-name="C" unicode="C" horiz-adv-x="1308" 
d="M94 641q0 130 25 242t81 208t138.5 163.5t203.5 106t271 38.5q76 0 145 -9t135 -31.5t114 -56.5t77 -88t29 -122q0 -75 -42 -138t-118 -90q-182 103 -324 103q-111 0 -176 -66.5t-65 -212.5q0 -123 61.5 -191.5t188.5 -68.5q80 0 154 20t113.5 40t96.5 55
q60 -32 91.5 -95t31.5 -133q0 -74 -34.5 -134t-89.5 -97.5t-127.5 -63t-144 -35.5t-143.5 -10q-348 3 -520 178.5t-172 487.5z" />
    <glyph glyph-name="D" unicode="D" horiz-adv-x="1476" 
d="M25 1210q0 47 17.5 81t44 53t66.5 30t75.5 14t80.5 3h428q201 0 351.5 -46.5t244 -133.5t139.5 -206t46 -270q0 -194 -59.5 -338t-170.5 -231.5t-261 -129.5t-341 -42h-192q-66 0 -112.5 18.5t-72 45.5t-40 72.5t-18.5 82t-5 92.5v723q-80 0 -156 -10q-65 92 -65 192z
M733 332h31q72 0 127.5 31.5t87.5 85.5t47.5 117t15.5 134q0 164 -70.5 246t-193.5 82h-45v-696z" />
    <glyph glyph-name="E" unicode="E" horiz-adv-x="1308" 
d="M14 1210q0 79 55.5 130t159.5 51h768q136 0 215 20q64 -87 64 -203q0 -36 -9 -64t-23 -47t-36.5 -32t-44 -20t-51.5 -11t-52.5 -5t-53.5 -1h-279v-129q0 -23 6.5 -30t24.5 -7h354q27 -69 27 -137q0 -193 -256 -193h-156v-133q0 -23 6.5 -30t24.5 -7h252q109 0 215 27
q63 -85 63 -209q0 -36 -9 -64t-23 -47t-36.5 -32t-44 -20t-51.5 -11t-52.5 -5t-53.5 -1h-555q-52 0 -89 8t-70.5 30t-50.5 67t-17 114v809q-80 0 -156 -10q-66 94 -66 192z" />
    <glyph glyph-name="F" unicode="F" horiz-adv-x="1298" 
d="M14 1210q0 79 55.5 130t159.5 51h775q136 0 215 20q63 -85 63 -203q0 -36 -9 -64t-23 -47t-36.5 -32t-44 -20t-51.5 -11t-52.5 -5t-53.5 -1h-283v-172q0 -23 6.5 -30t24.5 -7h332q26 -67 26 -143q0 -193 -256 -193h-133v-129q8 -156 53 -286q-26 -7 -87 -22.5
t-93.5 -23.5t-77.5 -18.5t-75.5 -15t-51.5 -4.5q-34 0 -60.5 11.5t-43.5 35.5t-28 50.5t-17 65t-8.5 71t-3.5 77.5v733q-80 0 -156 -10q-66 94 -66 192z" />
    <glyph glyph-name="G" unicode="G" horiz-adv-x="1437" 
d="M94 641q0 130 25 242t81 208t138.5 163.5t203.5 106t271 38.5q101 0 191.5 -15.5t170 -48.5t126.5 -92.5t47 -138.5q0 -71 -42 -131t-112 -88q-63 36 -158.5 60t-185.5 24q-125 0 -193.5 -70.5t-68.5 -216.5q0 -313 262 -313q178 0 178 59v41h-14q-100 0 -146.5 42.5
t-46.5 115.5q0 57 27 133h377q65 0 103.5 -9t66 -35.5t37.5 -73.5t10 -126v-498q-68 -43 -162 -43q-71 0 -126.5 38.5t-76.5 111.5q-140 -150 -387 -150q-126 0 -227.5 36.5t-169.5 98.5t-113.5 147.5t-65.5 181t-20 202.5z" />
    <glyph glyph-name="H" unicode="H" horiz-adv-x="1591" 
d="M14 1262q0 36 6 71q97 5 184 15t184.5 23t164.5 20q29 0 52 -9t38 -21.5t25.5 -35.5t15.5 -42t8 -50.5t3.5 -51t0.5 -53.5v-223q0 -23 6.5 -30t24.5 -7h307v152q-8 158 -53 287q20 5 73.5 18.5t79 20t69.5 17t70 15.5t54 9t45 4q50 0 83.5 -25.5t49.5 -75t21.5 -96
t7.5 -115.5v-725q8 -156 53 -286q-20 -5 -73.5 -18.5t-79 -20t-69.5 -17t-70 -15.5t-54 -9t-45 -4q-34 0 -60.5 12t-43.5 35t-28.5 50t-17.5 65.5t-8.5 71.5t-3.5 77v176q0 23 -5.5 31t-22.5 8h-310v-156q8 -153 54 -286q-26 -7 -87 -22.5t-93.5 -23.5t-77.5 -18.5
t-75.5 -15t-51.5 -4.5q-34 0 -60.5 12t-43.5 35t-28.5 50t-17.5 65.5t-8.5 71.5t-3.5 77v698q-96 18 -142.5 93.5t-46.5 175.5z" />
    <glyph glyph-name="I" unicode="I" horiz-adv-x="987" 
d="M55 1210q0 79 55.5 130t159.5 51h404q136 0 215 20q63 -85 63 -203q0 -148 -159 -159q-23 -2 -23 -27v-680q80 0 156 10q65 -92 65 -182q0 -78 -55 -124t-160 -46h-618q-64 87 -64 182q0 68 38.5 111t121.5 49q22 2 22 27v680q-71 0 -155 -11q-66 94 -66 172z" />
    <glyph glyph-name="J" unicode="J" horiz-adv-x="811" 
d="M23 -57q0 49 14 92q32 -4 49 -4q56 0 95 20.5t60.5 58.5t32 81.5t13.5 101.5v700q-96 18 -142.5 93.5t-46.5 175.5q0 36 6 71q97 5 184 15t184.5 23t164.5 20q29 0 52 -9t38 -21.5t25.5 -35.5t15.5 -42t8 -50.5t3.5 -51t0.5 -53.5v-856q0 -100 -15 -186.5t-49.5 -164
t-86.5 -132.5t-130 -87t-175 -32q-129 0 -215 76t-86 197z" />
    <glyph glyph-name="K" unicode="K" horiz-adv-x="1484" 
d="M14 1262q0 36 6 71q97 5 184 15t184.5 23t164.5 20q29 0 52 -9t38 -21.5t25.5 -35.5t15.5 -42t8 -50.5t3.5 -51t0.5 -53.5v-313h60q54 0 92 23.5t55.5 63t25 77.5t7.5 80q0 106 -55 211q55 60 129 90.5t153 30.5q71 0 126 -26.5t86.5 -70.5t47 -94.5t15.5 -105.5
q0 -121 -58.5 -220t-162.5 -169q56 -147 158 -262t200 -136q-3 -84 -32 -147t-77 -98.5t-102.5 -52.5t-116.5 -17q-77 0 -132.5 14.5t-108 54.5t-91 110.5t-72 181.5t-59.5 268h-88v-267q8 -153 54 -286q-26 -7 -87 -22.5t-93.5 -23.5t-77.5 -18.5t-75.5 -15t-51.5 -4.5
q-34 0 -60.5 12t-43.5 35t-28.5 50t-17.5 65.5t-8.5 71.5t-3.5 77v698q-96 18 -142.5 93.5t-46.5 175.5z" />
    <glyph glyph-name="L" unicode="L" horiz-adv-x="1183" 
d="M14 1262q0 36 6 71q97 5 184 15t184.5 23t164.5 20q29 0 52 -9t38 -21.5t25.5 -35.5t15.5 -42t8 -50.5t3.5 -51t0.5 -53.5v-661q0 -37 21 -37q34 0 101 -1t97 -1q105 0 180.5 11.5t151.5 47.5q40 -51 62 -121.5t22 -113.5q0 -66 -20.5 -112.5t-53 -73.5t-88 -42
t-110 -19.5t-133.5 -4.5h-539q-48 0 -82 17t-52.5 41.5t-30 67t-15 79t-4.5 90.5v698q-96 18 -142.5 93.5t-46.5 175.5z" />
    <glyph glyph-name="M" unicode="M" horiz-adv-x="1826" 
d="M43 1264q0 36 6 71q89 5 283 30.5t291 25.5q86 0 134.5 -43.5t80.5 -137.5l157 -456l138 456q37 106 97 146q51 34 130 34q16 0 33 -1l155 -23q116 -17 151.5 -64t41.5 -182l37 -755q10 -192 53 -297q-30 -8 -87 -22.5t-91.5 -23.5t-77.5 -19t-73.5 -14.5t-51.5 -4.5
q-50 0 -83.5 26t-49 74t-21.5 97t-6 114l13 504l-105 -287q-27 -70 -60 -106.5t-91 -36.5h-107q-53 0 -86.5 37t-65.5 106l-133 287l25 -434q10 -192 53 -297q-30 -7 -107.5 -27.5t-114.5 -29.5t-84.5 -18t-72.5 -9q-50 0 -83 26t-49 74t-21.5 97t-5.5 114l28 702
q-64 12 -106 54t-58 95t-16 118z" />
    <glyph glyph-name="N" unicode="N" horiz-adv-x="1525" 
d="M14 1210q0 79 55.5 130t159.5 51h205q99 -3 173.5 -37.5t144.5 -124.5l354 -500l-2 291q-8 222 -53 328q173 43 237 43q51 0 87 -15.5t57 -40.5t32.5 -67.5t15 -84.5t3.5 -104l-19 -1042q-73 -41 -188 -41q-86 0 -130.5 12t-76.5 45l-489 652q6 -32 12 -351
q4 -214 53 -327q-173 -43 -237 -43q-51 0 -87 15.5t-56.5 40t-31.5 67t-14.5 84.5t-3.5 104v754q-62 0 -135 -11q-66 94 -66 172z" />
    <glyph glyph-name="O" unicode="O" horiz-adv-x="1497" 
d="M94 645q0 158 42.5 291.5t127.5 238.5t226 164.5t325 59.5q694 0 694 -666q0 -157 -41 -291t-124 -239.5t-221 -166t-318 -61.5q-711 0 -711 670zM588 686q0 -41 5 -76.5t19.5 -72t37 -62.5t61 -42.5t88.5 -16.5q217 0 217 272q0 130 -56 202.5t-153 72.5
q-219 0 -219 -277z" />
    <glyph glyph-name="P" unicode="P" horiz-adv-x="1411" 
d="M14 1210q0 39 11.5 69.5t33.5 49.5t48 32t60.5 19t64.5 8.5t67 2.5h469q674 -9 674 -482q0 -108 -31.5 -194.5t-98.5 -154t-181 -104t-269 -36.5q-22 0 -72 3t-61 3v-72q8 -156 53 -286q-26 -7 -87 -22.5t-93.5 -23.5t-77.5 -18.5t-75.5 -15t-51.5 -4.5q-34 0 -60.5 11.5
t-43.5 35.5t-28 50.5t-17 65t-8.5 71t-3.5 77.5v733q-80 0 -156 -10q-66 94 -66 192zM729 715q14 -2 57 -2q78 0 125 40.5t47 127.5q0 147 -153 147h-76v-313z" />
    <glyph glyph-name="Q" unicode="Q" horiz-adv-x="1499" 
d="M94 645q0 125 26 236t83 206.5t140 164.5t203 108t267 39q692 0 692 -666q0 -129 -29 -244.5t-85.5 -212.5t-148.5 -167t-210 -101q15 -2 153 -21.5t206 -19.5q111 0 192 23q70 -73 70 -174q0 -83 -43.5 -140t-109 -81.5t-146.5 -24.5q-81 1 -174.5 25t-164.5 52
t-162.5 53t-168.5 28q-14 51 -14 88q0 56 24.5 100.5t73.5 60.5q-332 5 -503 174t-171 494zM588 686q0 -41 5 -76.5t19 -72t36.5 -62.5t60.5 -42.5t88 -16.5q101 0 158 65.5t57 206.5q0 130 -55.5 202.5t-151.5 72.5q-217 0 -217 -277z" />
    <glyph glyph-name="R" unicode="R" horiz-adv-x="1458" 
d="M14 1210q0 39 11.5 69.5t33.5 49.5t48 32t60.5 19t64.5 8.5t67 2.5h446q358 0 526.5 -119.5t168.5 -353.5q0 -135 -45.5 -240t-139.5 -154q50 -82 116.5 -137t135.5 -70q-4 -92 -30.5 -158.5t-71 -103.5t-96 -54t-113.5 -17q-55 0 -101 13t-77.5 29t-60.5 53t-44.5 59.5
t-35 76.5t-26 76t-23.5 85l-15 54q-20 -4 -90 -4v-72q8 -150 55 -286q-30 -8 -87 -22.5t-91.5 -23.5t-77.5 -19t-73.5 -14.5t-51.5 -4.5q-34 0 -60.5 11.5t-43.5 35.5t-28 50.5t-17 65t-8.5 71t-3.5 77.5v733q-80 0 -156 -10q-66 94 -66 192zM723 715q14 -2 63 -2
q78 0 125 40.5t47 127.5q0 147 -153 147h-82v-313z" />
    <glyph glyph-name="S" unicode="S" horiz-adv-x="1206" 
d="M27 272q0 66 29 125.5t85 94.5q73 -58 176 -95t201 -37q33 0 53.5 1.5t46.5 7.5t39 21.5t13 39.5q0 22 -21 37t-57 24.5t-82.5 18t-97.5 21t-102.5 29.5t-98.5 48.5t-83 73.5t-58 107.5t-23 148.5q0 214 163.5 336.5t471.5 122.5q239 0 366.5 -73t127.5 -208
q0 -65 -39.5 -121.5t-118.5 -85.5q-167 117 -400 117q-28 0 -44.5 -1t-41.5 -5.5t-37 -17t-12 -31.5q0 -25 38 -44t99 -34.5t134.5 -34.5t147.5 -51.5t135 -76.5t99 -117t38 -167q-8 -233 -159.5 -352t-471.5 -119q-516 0 -516 297z" />
    <glyph glyph-name="T" unicode="T" horiz-adv-x="1304" 
d="M-31 1165q0 122 68.5 178t245.5 56q81 0 308.5 -13.5t307.5 -13.5q160 0 291 49q43 -73 66.5 -134t23.5 -126q0 -56 -14.5 -95.5t-50.5 -71.5t-103.5 -48t-167.5 -16h-45q-22 -3 -22 -31v-545q8 -156 53 -286q-26 -7 -87 -22.5t-93.5 -23.5t-77.5 -18.5t-75.5 -15
t-51.5 -4.5q-34 0 -60.5 12t-43.5 35t-28.5 50t-17.5 65.5t-8.5 71.5t-3.5 77v659q-23 2 -61 2q-141 0 -265 -67q-88 159 -88 276z" />
    <glyph glyph-name="U" unicode="U" horiz-adv-x="1507" 
d="M20 1262q0 31 7 71q129 7 313 31t217 27q29 0 52 -9t38 -21.5t25.5 -35.5t15.5 -42t8 -50.5t3.5 -51t0.5 -53.5v-593q0 -183 144 -183q65 0 103 41t38 142v485q-8 158 -53 287q29 7 87.5 22.5t92 23.5t77.5 18.5t74.5 15t51.5 4.5q50 0 83.5 -25.5t49.5 -75t21.5 -96
t7.5 -115.5v-487q0 -116 -21.5 -210t-56 -157t-86.5 -110t-105 -73.5t-120.5 -42t-122.5 -20t-121 -4.5t-121.5 4.5t-123 20t-120.5 42t-105.5 73.5t-87 110t-56 157t-21.5 210v401q-96 18 -142.5 93.5t-46.5 175.5z" />
    <glyph glyph-name="V" unicode="V" horiz-adv-x="1447" 
d="M4 1133q31 129 104.5 193.5t176.5 64.5q43 0 78.5 -6.5t65 -23t52.5 -33.5t44 -48.5t36 -57t32 -70t28 -76.5t28 -87q34 -106 94 -375l21 -108q190 390 190 557q0 127 -63 190q39 62 112.5 99t151.5 37q113 0 195 -78t82 -226q0 -82 -39 -193.5t-95 -220.5t-111.5 -215
t-94.5 -206.5t-39 -167.5q0 -37 2 -55q-185 -54 -336 -54q-140 0 -233.5 61t-143.5 208q-13 44 -39.5 166t-53 230.5t-63 223.5t-83.5 188.5t-99 82.5z" />
    <glyph glyph-name="W" unicode="W" horiz-adv-x="1916" 
d="M6 1135q20 122 100 189t189 67q59 0 106 -17t82.5 -46.5t64.5 -81.5t49 -108.5t38 -143t30.5 -169t26.5 -200.5l125 360q35 98 54 124q29 38 77 38h115q22 0 40 -8.5t29.5 -19.5t23.5 -35.5t18.5 -43l19.5 -55.5l123 -412q119 303 119 465q0 134 -64 203q33 70 102.5 109
t151.5 39q115 0 193.5 -78.5t78.5 -233.5q0 -79 -22.5 -181.5t-43.5 -167t-63 -183.5q-7 -21 -25.5 -75t-26.5 -79t-21.5 -71.5t-20 -77t-11.5 -68.5t-5 -72q0 -33 6 -67q-159 -59 -279 -62h-6q-105 0 -182 68q-79 70 -115 203l-100 430l-127 -402q-23 -72 -23 -144
q0 -46 9 -91q-130 -62 -275 -62q-48 0 -84.5 6.5t-68 24.5t-54.5 41.5t-43 65.5t-34.5 88t-28.5 118t-25 146.5t-24 181.5q-11 89 -23.5 153.5t-34.5 135.5t-57.5 121.5t-83.5 77.5z" />
    <glyph glyph-name="X" unicode="X" horiz-adv-x="1359" 
d="M47 211q0 122 88 231l262 295l-39 62q-83 128 -151.5 193t-145.5 83q7 161 86 234t197 73q65 0 113 -17t100 -66t101.5 -120.5t125.5 -197.5q77 109 115 199t41 192q66 14 145 14q114 0 185 -59.5t71 -189.5q0 -116 -88 -226l-239 -293q84 -145 165 -203.5t222 -58.5
q4 -23 4 -65q0 -140 -74 -227t-213 -87q-135 0 -239.5 79t-202.5 239l-53 82q-107 -138 -146 -221t-47 -170q-86 -19 -131 -19q-114 0 -183 58.5t-69 185.5z" />
    <glyph glyph-name="Y" unicode="Y" horiz-adv-x="1411" 
d="M-8 1128q11 77 38.5 130.5t69.5 81.5t89 39.5t106 11.5q40 0 76 -9t65.5 -23.5t58.5 -41.5t52 -53t47.5 -69t43 -79.5t42.5 -93.5t41 -101.5t43 -113.5q4 8 38 69t50.5 94.5t34.5 89t18 97.5q0 64 -35 107q40 62 109.5 94.5t148.5 32.5q129 0 198 -67.5t69 -170.5
q0 -70 -32.5 -144t-86 -144.5t-110.5 -136.5t-119 -146t-99 -148q-33 -62 -33 -127q0 -118 43 -241l-88 -22t-93 -23t-77 -18t-74 -14.5t-51 -4.5q-35 0 -61.5 11.5t-43.5 35.5t-28.5 50.5t-17.5 65t-8.5 71t-3.5 77.5v113q0 81 -35 149l-197 397q-94 174 -188 174z" />
    <glyph glyph-name="Z" unicode="Z" horiz-adv-x="1265" 
d="M29 236q0 79 34.5 152.5t96.5 125.5l596 440h-371q-148 0 -270 -41q-5 12 -18 43.5t-17.5 42t-14 35t-12.5 36.5t-8 30t-6.5 33t-1.5 30q0 109 83 172.5t257 63.5l522 -27q135 0 189.5 3.5t93.5 19.5q63 -110 63 -262q0 -52 -14.5 -100.5t-34.5 -84t-57 -76.5t-66 -67.5
t-78 -67.5l-405 -307q43 -5 207.5 -33t253.5 -28q91 0 174 24q59 -98 59 -211q0 -117 -80 -189.5t-223 -72.5q-110 0 -246.5 28t-267.5 55.5t-227 27.5q-78 0 -123 -23q-88 98 -88 228z" />
    <glyph glyph-name="bracketleft" unicode="[" horiz-adv-x="755" 
d="M35 -43v1386q0 89 41.5 139t122.5 50h454q32 -29 50 -74t18 -92q0 -67 -36 -111.5t-105 -44.5h-125q-23 -2 -23 -26v-1067q0 -25 23 -27h125q67 0 105 -46t38 -112q0 -84 -70 -184q-83 21 -215 21h-239q-81 0 -122.5 49.5t-41.5 138.5z" />
    <glyph glyph-name="backslash" unicode="\" horiz-adv-x="882" 
d="M6 1288q22 34 77.5 56t102.5 22q128 0 179 -125l436 -1057q57 -133 73 -168q-22 -34 -78 -55.5t-104 -21.5q-126 0 -176 124l-436 1057q-46 107 -74 168z" />
    <glyph glyph-name="bracketright" unicode="]" horiz-adv-x="755" 
d="M33 1348q0 85 69 184q83 -21 215 -21h240q81 0 122.5 -49.5t41.5 -138.5v-1386q0 -89 -41.5 -139t-122.5 -50h-455q-32 29 -49.5 74t-17.5 92q0 67 36 111.5t105 44.5h125q23 2 23 26v1067q0 25 -23 27h-125q-67 0 -105 46t-38 112z" />
    <glyph glyph-name="asciicircum" unicode="^" horiz-adv-x="983" 
d="M20 813q0 40 14 75t60 116l174 280q47 82 93.5 112.5t130.5 30.5q144 0 217 -47l254 -551q-17 -66 -82.5 -105.5t-141.5 -39.5q-63 0 -106 21.5t-68 76.5l-112 258l-140 -235q-26 -44 -55 -115q-36 -8 -61 -8q-70 0 -123.5 33t-53.5 98z" />
    <glyph glyph-name="underscore" unicode="_" horiz-adv-x="1024" 
d="M29 197q0 99 53.5 137.5t175.5 40.5h475q141 0 219 37q16 -42 30.5 -112.5t14.5 -121.5q0 -100 -53 -138t-174 -40h-477q-141 0 -219 -37q-16 42 -30.5 112.5t-14.5 121.5z" />
    <glyph glyph-name="grave" unicode="`" horiz-adv-x="600" 
d="M23 1490q-8 53 10 95q27 65 91 111t136 57l297 -369q29 -33 29 -69q0 -58 -57.5 -106t-120.5 -70l-338 268q-39 30 -47 83z" />
    <glyph glyph-name="a" unicode="a" 
d="M20 303q0 92 40 161t109 108t151 58t176 19q114 0 223 -33q-3 39 -19.5 66t-44.5 41t-58 19.5t-69 5.5q-91 0 -179.5 -23t-141.5 -66q-48 28 -77.5 76.5t-29.5 104.5q0 117 143.5 183.5t387.5 66.5q109 0 193.5 -11.5t161.5 -42t126.5 -81t79 -131t29.5 -189.5v-215
q0 -86 67 -86q19 0 55 12q27 -73 27 -133q0 -107 -77 -172.5t-203 -65.5q-114 0 -189 43.5t-117 157.5q-107 -195 -372 -201q-82 0 -151.5 19.5t-124 58t-85.5 103t-31 147.5zM508 342q0 -43 24.5 -67.5t65.5 -24.5q121 0 121 180v55q-31 0 -64 -6.5t-68 -21t-57 -44.5
t-22 -71z" />
    <glyph glyph-name="b" unicode="b" horiz-adv-x="1402" 
d="M41 1409q65 13 235 68t205 55q48 0 80 -26.5t46.5 -74t19.5 -89t6 -95.5v-418q107 263 350 263q124 0 213.5 -65.5t131.5 -170.5t42 -235q0 -296 -172.5 -471t-480.5 -175q-97 0 -180.5 17.5t-159.5 59t-129.5 105t-85 161t-31.5 221.5v524q0 218 -90 346zM641 588
q0 -43 6 -80.5t20 -71.5t41 -54t64 -20q55 0 86 42.5t31 101.5q0 82 -51.5 134t-124.5 52q-35 0 -72 -12v-92z" />
    <glyph glyph-name="c" unicode="c" horiz-adv-x="1263" 
d="M84 502q0 131 40 238t118.5 185.5t201.5 121.5t281 43q133 0 250 -46.5t187.5 -127.5t70.5 -175q0 -83 -55.5 -139.5t-159.5 -56.5q-48 0 -94 14q-3 54 -33 89.5t-68 48t-82 12.5q-88 0 -129 -48t-41 -122q0 -174 220 -174q190 0 292 102q51 -33 80 -90t29 -119
q0 -131 -123.5 -207t-357.5 -76q-310 0 -468.5 141t-158.5 386z" />
    <glyph glyph-name="d" unicode="d" horiz-adv-x="1402" 
d="M61 504q0 122 31 227.5t90 186t152.5 126.5t210.5 46q160 0 264 -101v168q-4 105 -23 166.5t-49 110.5q103 21 203 46.5t149.5 38.5t69.5 13q33 0 58 -9t41 -28.5t26 -41.5t15.5 -57t8 -65.5t3.5 -75.5v-962q8 -112 51 -227q-75 -12 -200.5 -47t-164.5 -35
q-46 0 -76.5 20t-44.5 58t-19 75t-5 88q-122 -250 -365 -250q-107 0 -189.5 40.5t-133.5 113t-77 167.5t-26 208zM543 584q0 -86 52 -134.5t132 -48.5q35 0 82 13v82q0 223 -137 223q-59 0 -94 -38.5t-35 -96.5z" />
    <glyph glyph-name="e" unicode="e" horiz-adv-x="1312" 
d="M92 502q0 274 168.5 431t464.5 157q261 0 411 -92t150 -259q0 -82 -45.5 -143t-123.5 -95t-167 -49.5t-190 -15.5q-82 0 -172 17q29 -97 225 -97q200 0 336 88q42 -26 67 -80.5t25 -105.5q0 -72 -42 -127.5t-115.5 -89t-164.5 -50t-196 -16.5q-631 0 -631 527zM604 592
q124 1 189 35t65 88q0 73 -82 73q-80 0 -124.5 -57t-47.5 -139z" />
    <glyph glyph-name="f" unicode="f" horiz-adv-x="1071" 
d="M20 870q0 201 205 201h51q-18 74 -18 119q0 177 115.5 268.5t320.5 91.5q132 0 208.5 -61.5t76.5 -177.5q0 -49 -18 -107q-41 6 -78 6q-158 0 -183 -139h21l264 21q35 -84 35 -164q0 -102 -58.5 -168t-173.5 -66q-2 0 -57 4v-409q8 -118 51 -223q-48 -10 -142 -32
t-161 -36t-100 -14q-38 0 -66 14.5t-43 36t-24.5 56.5t-12.5 64t-4 72v494l-161 -21q-48 91 -48 170z" />
    <glyph glyph-name="g" unicode="g" horiz-adv-x="1343" 
d="M61 629q0 143 84.5 249.5t223.5 159t311 52.5q176 -3 291 -41q4 24 4 38q0 95 -60 146q27 53 87 83t126 30q93 0 144 -56.5t51 -132.5q0 -145 -149 -235q81 -104 81 -242q0 -140 -82.5 -246.5t-219.5 -160.5t-304 -54q-111 0 -194 14q-4 -8 -4 -22q0 -28 37.5 -44.5
t98.5 -21t139 -11.5t160 -13.5t160 -29.5t139 -57.5t98.5 -98.5t37.5 -152q-14 -395 -692 -395q-99 0 -186 13.5t-161 41.5t-117.5 77.5t-43.5 114.5q0 51 29 95.5t94 64.5q-83 26 -120.5 83.5t-37.5 125.5q0 93 57 163.5t148 111.5q-230 99 -230 350zM401 -281
q2 -92 226 -92q72 0 124 18.5t52 51.5q0 30 -70.5 38.5t-174.5 10t-146 12.5q-11 -19 -11 -39zM516 645q0 -113 139 -113q68 0 106 41.5t38 90.5q0 112 -135 112q-71 0 -109.5 -40.5t-38.5 -90.5z" />
    <glyph glyph-name="h" unicode="h" horiz-adv-x="1431" 
d="M41 1409q65 13 235 68t205 55q39 0 67.5 -19t43.5 -46t24.5 -69.5t12.5 -74t4 -76.5v-428q67 132 169.5 201.5t225.5 69.5q144 0 227.5 -103t83.5 -307v-326q3 -77 31.5 -107.5t102.5 -39.5q-15 -65 -46 -110.5t-74.5 -69t-90.5 -33.5t-105 -10q-56 0 -102.5 8.5
t-89 29.5t-71.5 55t-46 87.5t-17 124.5v348q0 86 -57 86q-56 0 -98.5 -78.5t-42.5 -198.5v-157q8 -118 51 -223q-47 -10 -144.5 -32.5t-162.5 -36t-94 -13.5q-39 0 -67 14.5t-43.5 36t-25 56.5t-12.5 64t-4 72v836q0 218 -90 346z" />
    <glyph glyph-name="i" unicode="i" horiz-adv-x="802" 
d="M0 1028q0 -41 2.5 -72t14 -72t31 -67.5t56.5 -46t89 -20.5v-523q1 -36 3 -60t7.5 -55t16 -51.5t26 -39.5t40.5 -28t58 -9q31 0 97 13t166 36.5t145 32.5q-44 108 -52 223v596q0 37 -1 58.5t-8.5 53.5t-21 49t-40.5 30.5t-66 13.5q-77 -6 -262.5 -32t-300.5 -30zM150 1343
q0 104 77.5 168t206.5 64q119 0 182.5 -54.5t63.5 -150.5q0 -103 -69.5 -164t-204.5 -61q-256 0 -256 198z" />
    <glyph glyph-name="j" unicode="j" horiz-adv-x="786" 
d="M-82 -352q0 -107 79.5 -178.5t207.5 -71.5q116 0 207 45.5t147 118.5t92 173t50 199t14 207v744q0 37 -1 58.5t-8.5 53.5t-21 49t-40.5 30.5t-66 13.5q-77 -6 -261 -32t-299 -30q0 -41 2.5 -72t14 -72t31 -67.5t56.5 -46t89 -20.5v-543q0 -54 -0.5 -89.5t-4.5 -89.5
t-11.5 -90t-21.5 -77t-34 -65.5t-51 -41t-70 -16.5q-38 0 -77 20q-23 -61 -23 -110zM154 1343q0 104 77.5 168t206.5 64q119 0 182.5 -54.5t63.5 -150.5q0 -103 -69.5 -164t-204.5 -61q-256 0 -256 198z" />
    <glyph glyph-name="k" unicode="k" horiz-adv-x="1411" 
d="M41 1409q65 13 235 68t205 55q39 0 67.5 -19t43.5 -46t24.5 -69.5t12.5 -74t4 -76.5v-493q35 68 79 125t101.5 106t131 77t155.5 28q133 0 197.5 -71.5t64.5 -180.5q0 -120 -73.5 -200t-221.5 -83q30 -38 75 -59t93 -21q54 0 104 29q56 -85 56 -193q0 -90 -35 -165
t-108.5 -123t-174.5 -48q-85 0 -153.5 30.5t-111.5 80t-71.5 116t-40.5 134t-12 139.5q94 12 155.5 54t61.5 94q0 28 -17 47.5t-48 19.5q-55 0 -109.5 -42.5t-97.5 -112.5v-246q8 -118 51 -223q-47 -10 -144.5 -32.5t-162.5 -36t-94 -13.5q-39 0 -67 14.5t-43.5 36t-25 56.5
t-12.5 64t-4 72v836q0 218 -90 346z" />
    <glyph glyph-name="l" unicode="l" horiz-adv-x="778" 
d="M41 1409q65 13 238 68t208 55q152 0 152 -285v-811q9 -95 52 -129.5t128 -34.5q-1 -92 -44.5 -159t-109.5 -98t-145 -31q-82 0 -150.5 21.5t-123 65t-85 117.5t-30.5 172v703q0 218 -90 346z" />
    <glyph glyph-name="m" unicode="m" horiz-adv-x="2070" 
d="M-10 1028q115 4 298.5 30t260.5 32q39 0 66 -13.5t40.5 -30.5t21 -49t8.5 -53.5t1 -58.5v-49q57 119 146.5 186.5t191.5 67.5q110 0 190.5 -68.5t110.5 -200.5q59 126 149 197.5t195 71.5q139 0 227.5 -104.5t88.5 -305.5v-326q3 -78 29 -108t97 -39q-48 -223 -319 -223
q-68 0 -120 14t-95.5 47t-66.5 94.5t-23 149.5v348q0 86 -53 86q-60 0 -95 -92v-342q8 -121 50 -223q-41 -9 -138.5 -32.5t-161.5 -36.5t-96 -13q-39 0 -67 14.5t-43.5 35.5t-24.5 57t-12 64.5t-4 71.5v410q0 86 -56 86q-28 0 -54.5 -24.5t-45.5 -67.5v-342q8 -118 51 -223
q-47 -10 -144 -33t-162.5 -36t-96.5 -13q-39 0 -67 14.5t-43.5 36t-25 56.5t-12.5 64t-4 72v523q-52 1 -89 20.5t-56.5 46t-30.5 67.5t-13.5 72t-2.5 72z" />
    <glyph glyph-name="n" unicode="n" horiz-adv-x="1488" 
d="M-10 1028q115 4 300.5 30t262.5 32q39 0 66 -13.5t40.5 -30.5t21 -49t8.5 -53.5t1 -58.5v-66q67 132 169.5 201.5t225.5 69.5q144 0 228 -103t84 -307v-326q3 -77 31 -107.5t102 -39.5q-15 -65 -46 -110.5t-74.5 -69t-90.5 -33.5t-105 -10q-71 0 -126.5 14t-102 47
t-71.5 94.5t-25 149.5v348q0 86 -58 86q-55 0 -97.5 -74.5t-43.5 -189.5v-170q8 -118 51 -223q-45 -9 -144.5 -32.5t-165.5 -36.5t-97 -13q-39 0 -67 14.5t-43.5 36t-25 56.5t-12.5 64t-4 72v523q-52 1 -89 20.5t-56.5 46t-30.5 67.5t-13.5 72t-2.5 72z" />
    <glyph glyph-name="o" unicode="o" 
d="M72 504q0 122 40 226.5t117.5 185.5t201 127.5t280.5 46.5q320 0 474 -140.5t154 -388.5q0 -120 -39 -224.5t-114.5 -185.5t-197 -128t-275.5 -48q-328 0 -484.5 139.5t-156.5 389.5zM559 532q0 -66 37 -115.5t109 -49.5q61 0 103 45t42 120q0 80 -39.5 125t-101.5 45
q-64 0 -107 -46.5t-43 -123.5z" />
    <glyph glyph-name="p" unicode="p" horiz-adv-x="1452" 
d="M-10 1028q107 4 279 30t243 32q30 0 52 -8t35 -25t21.5 -33.5t11.5 -44t4 -46t1 -48.5v-64q59 130 166.5 199.5t236.5 69.5q184 0 288 -131t104 -365q0 -287 -127 -453t-322 -166q-86 0 -165.5 33t-137.5 94v-315q3 -80 33 -118.5t100 -47.5q-16 -66 -45.5 -111
t-70.5 -68t-83.5 -32.5t-95.5 -9.5q-157 0 -248.5 110.5t-91.5 339.5v900q-188 5 -188 278zM680 575q0 -54 13 -97.5t47 -74t87 -30.5q59 0 91 39.5t32 95.5q0 86 -55.5 134t-134.5 48q-42 0 -80 -14v-101z" />
    <glyph glyph-name="q" unicode="q" horiz-adv-x="1376" 
d="M61 416q0 303 189 488.5t520 185.5q95 0 184.5 -19.5t165 -56t123.5 -97.5t53 -137v-1077q8 -115 52 -223q-47 -10 -143.5 -33t-162 -36t-96.5 -13q-39 0 -67 15t-43.5 36t-24.5 56.5t-12 64.5t-4 72v499q-121 -166 -349 -166q-182 0 -283.5 122t-101.5 319zM543 508
q0 -53 25 -88t79 -35q66 0 107 53.5t41 149.5v108q-30 15 -68 15q-74 0 -129 -56.5t-55 -146.5z" />
    <glyph glyph-name="r" unicode="r" horiz-adv-x="1257" 
d="M-10 1028q115 4 300.5 30t262.5 32q39 0 66 -13.5t40.5 -30.5t21 -49t8.5 -53.5t1 -58.5v-84q71 151 147 220t183 69q100 0 156.5 -68t56.5 -176q-6 -159 -162 -246q-101 55 -192 55q-57 0 -107.5 -24t-81.5 -72v-205q3 -78 30 -108t101 -39q-14 -65 -44.5 -110.5
t-74 -69t-90.5 -33.5t-106 -10q-56 0 -101.5 8.5t-88 29.5t-71.5 55t-46 87.5t-17 124.5v461q-52 1 -89 20.5t-56.5 46t-30.5 67.5t-13.5 72t-2.5 72z" />
    <glyph glyph-name="s" unicode="s" horiz-adv-x="1212" 
d="M92 221q0 62 35 113.5t96 79.5q165 -105 369 -105q65 0 65 37q0 17 -30 28t-78.5 19.5t-106.5 19.5t-116 33t-106.5 54t-78.5 89t-30 132q0 170 150.5 269.5t434.5 99.5q224 0 344.5 -60.5t120.5 -173.5q0 -58 -43.5 -109t-130.5 -77q-57 45 -159.5 75.5t-196.5 30.5
q-78 0 -78 -35q0 -14 33.5 -26.5t86.5 -24.5t117.5 -27.5t129 -42t117.5 -62t86.5 -93t33.5 -129.5q0 -171 -142 -266t-440 -95q-106 0 -190.5 13t-151.5 40.5t-104 76.5t-37 116z" />
    <glyph glyph-name="t" unicode="t" horiz-adv-x="968" 
d="M51 1305q323 81 404 81q46 0 77 -19.5t46 -56t20.5 -74t5.5 -87.5v-59q130 0 264 45q7 -39 23.5 -108t27.5 -122.5t11 -79.5q0 -112 -185 -112h-141v-135q0 -261 266 -285q-7 -91 -35.5 -152.5t-78 -95t-108.5 -47.5t-138 -14q-77 0 -145.5 24t-128.5 74.5t-96.5 141.5
t-37.5 212v627q-10 146 -51 242z" />
    <glyph glyph-name="u" unicode="u" horiz-adv-x="1456" 
d="M-10 1028q115 4 300.5 30t262.5 32q39 0 66 -13.5t40.5 -30.5t21 -49t8.5 -53.5t1 -58.5v-457q0 -86 72 -86q45 0 74.5 55.5t29.5 151.5v237q-8 117 -49 222q359 82 408 82q28 0 50.5 -7.5t37.5 -19t26 -31t17 -37.5t10 -45t5.5 -47.5t2.5 -50.5v-563q8 -118 51 -223
q-45 -9 -144.5 -32.5t-165.5 -36.5t-97 -13q-39 0 -67 14.5t-43.5 36t-25 56.5t-12.5 64t-4 72v23q-71 -143 -159 -209t-213 -66q-145 0 -228.5 95.5t-83.5 296.5v383q-52 1 -89 20.5t-56.5 46t-30.5 67.5t-13.5 72t-2.5 72z" />
    <glyph glyph-name="v" unicode="v" 
d="M-41 782q33 308 293 308q61 0 111 -17.5t85 -44t64 -71.5t46.5 -87t34.5 -105t26.5 -110t23 -117t23.5 -112q1 1 29.5 61.5t40 87t32.5 79t30 92.5t9 73q0 95 -66 137q31 62 107 98t164 36q115 0 195.5 -64t80.5 -190q0 -64 -34.5 -150.5t-84 -169.5t-99 -163t-84 -153
t-34.5 -118q0 -34 6 -57q-179 -50 -333 -50q-133 0 -224 50t-141 170q-25 60 -48.5 151.5t-40.5 160.5t-42.5 135.5t-67.5 103t-102 36.5z" />
    <glyph glyph-name="w" unicode="w" horiz-adv-x="1818" 
d="M-37 819q11 141 88.5 206t198.5 65q60 0 107 -14t82.5 -38t62.5 -65.5t45 -87t31.5 -112t21.5 -131.5t16 -155l99 279q26 75 54.5 107t88.5 32h111q58 0 89.5 -34t53.5 -105l94 -311q3 10 22 68.5t29.5 95t21.5 91t11 93.5q0 111 -65 153q30 63 105.5 98.5t164.5 35.5
q54 0 102.5 -15t89 -44.5t64 -79.5t23.5 -115q0 -86 -35.5 -195.5t-77.5 -195.5t-77.5 -185.5t-35.5 -169.5q0 -10 11 -59q-173 -56 -291 -56q-244 0 -303 220l-72 325l-96 -307q-17 -52 -17 -107q0 -42 8 -75q-173 -56 -288 -56q-230 0 -297 197q-15 43 -31 132.5t-31 172
t-36.5 163.5t-57.5 130t-84 49z" />
    <glyph glyph-name="x" unicode="x" horiz-adv-x="1318" 
d="M78 188q0 99 76 187l208 207l-10 16q-85 116 -138 162t-124 47q0 72 21.5 126.5t51.5 83.5t71.5 46.5t73 22t63.5 4.5q58 0 102.5 -11t94 -41t100 -86.5t108.5 -144.5l41 59q53 77 53 164q0 23 -8 39q98 23 156 23q115 0 185.5 -53.5t70.5 -168.5q0 -104 -76 -186
l-188 -203q60 -86 109 -116.5t126 -32.5q33 0 60 8q14 -46 14 -94q0 -119 -79.5 -195t-211.5 -76q-123 0 -220.5 64t-184.5 190l-29 37l-57 -76q-36 -53 -53.5 -96.5t-20.5 -103.5q-94 -23 -133 -23q-113 0 -182.5 53t-69.5 168z" />
    <glyph glyph-name="y" unicode="y" horiz-adv-x="1409" 
d="M-10 1028q115 4 300.5 30t262.5 32q39 0 66 -13.5t40.5 -30.5t21 -49t8.5 -53.5t1 -58.5v-457q0 -86 72 -86q46 0 77 56t31 151v237q-9 124 -47 222q35 8 79.5 18t69.5 16t57 13.5t50 11.5t40 8.5t34.5 6.5t26 4t22.5 3t17 1q28 0 50.5 -7.5t37.5 -19t26 -31t17 -37.5
t10 -45t5.5 -47.5t2.5 -50.5v-262q0 -136 -7 -252t-27 -240.5t-52 -223.5t-85 -190t-124 -151.5t-171.5 -96.5t-223.5 -36q-171 0 -265 83t-94 206q0 67 31 119t90 81q68 -59 168 -59q64 0 112.5 29.5t76 74t45 105t23 113t5.5 108.5q-73 -155 -161.5 -220t-214.5 -65
q-146 0 -229 95t-83 297v383q-52 1 -89 20.5t-56.5 46t-30.5 67.5t-13.5 72t-2.5 72z" />
    <glyph glyph-name="z" unicode="z" horiz-adv-x="1230" 
d="M61 879q0 98 77.5 154.5t242.5 56.5l473 -23h46h42.5t34 0.5t34 1.5t26.5 3t28 5.5t23.5 8t25.5 10.5q70 -126 70 -238q0 -55 -16.5 -99t-54 -82t-69.5 -61t-92 -61l-290 -160q32 0 122 -4t134 -4q119 0 231 23q72 -148 72 -234q0 -192 -285 -192q-104 0 -294.5 8
t-272.5 8q-130 0 -209 -12q-78 126 -78 229q0 125 111 203l501 276h-313q-131 0 -240 -32q-32 65 -43 88.5t-24 62t-13 64.5z" />
    <glyph glyph-name="braceleft" unicode="{" horiz-adv-x="829" 
d="M10 594q0 26 13.5 42.5t37.5 16.5q30 0 53 5.5t37.5 12t24.5 21.5t15 24.5t7.5 32.5t2.5 33v37v283q0 176 94 277.5t270 101.5q98 0 166 -47.5t68 -145.5q0 -26 -6 -61q-70 0 -114 -42t-44 -126v-133q0 -140 -68.5 -224.5t-195.5 -107.5q127 -22 195.5 -106t68.5 -224
v-133q0 -84 44 -126t114 -42q6 -35 6 -61q0 -98 -68 -145.5t-166 -47.5q-176 0 -270 101.5t-94 277.5v283v37t-2.5 33t-7.5 32.5t-15 24.5t-24.5 21.5t-37.5 12t-53 5.5q-24 0 -37.5 16.5t-13.5 40.5z" />
    <glyph glyph-name="bar" unicode="|" horiz-adv-x="448" 
d="M25 1444q118 59 204 59q160 0 160 -221v-1286q0 -114 35 -209q-118 -59 -205 -59q-160 0 -160 221v1286q0 117 -34 209z" />
    <glyph glyph-name="braceright" unicode="}" horiz-adv-x="829" 
d="M31 -98q0 26 6 61q70 0 114 42t44 126v133q0 140 68.5 224t195.5 106q-127 23 -195.5 107.5t-68.5 224.5v133q0 84 -44 126t-114 42q-6 35 -6 61q0 98 67.5 145.5t165.5 47.5q177 0 271 -101.5t94 -277.5v-283q0 -80 12 -108q26 -58 127 -58q24 0 37.5 -16.5t13.5 -42.5
q0 -24 -13.5 -40.5t-37.5 -16.5q-40 0 -67.5 -9.5t-41.5 -21.5t-21 -37t-8 -41.5t-1 -49.5v-7v-283q0 -176 -94 -277.5t-271 -101.5q-98 0 -165.5 47.5t-67.5 145.5z" />
    <glyph glyph-name="asciitilde" unicode="~" horiz-adv-x="1304" 
d="M29 526q0 135 86.5 213t240.5 78q69 0 150.5 -20.5t143 -45t134.5 -45t127 -20.5q124 0 164 117q91 -22 146 -93.5t55 -164.5q0 -133 -87 -212t-241 -79q-70 0 -151.5 20.5t-143 45t-134 45t-126.5 20.5q-124 0 -164 -115q-92 21 -146 91.5t-54 164.5z" />
    <glyph glyph-name="uni00A0" unicode="&#xa0;" horiz-adv-x="436" 
 />
    <glyph glyph-name="exclamdown" unicode="&#xa1;" horiz-adv-x="555" 
d="M23 -233q31 59 67 540q8 96 12 150q13 149 170 149q67 0 203 -39q-1 -59 22 -321t23 -305q0 -224 -246 -224q-117 0 -251 50zM53 868q0 91 69.5 161.5t186.5 70.5q108 0 162.5 -52t54.5 -139q0 -90 -69.5 -160.5t-186.5 -70.5q-107 0 -162 51.5t-55 138.5z" />
    <glyph glyph-name="cent" unicode="&#xa2;" horiz-adv-x="1224" 
d="M143 471q0 105 22 193t68.5 162t126 124.5t187.5 71.5v12q0 114 -10 156q58 45 131 45q57 0 91 -35.5t34 -128.5v-37q145 -10 237 -64.5t92 -160.5q0 -58 -34 -104t-99 -70q-58 34 -128.5 57t-131.5 23q-203 0 -203 -209q0 -91 51.5 -143t155.5 -52q21 0 41.5 1.5t37 3.5
t36 7t31 7.5t31 10t26.5 10t27 12t23.5 11t24 12.5t21.5 11q50 -22 75.5 -68t25.5 -100q0 -60 -30 -106t-82 -74.5t-110.5 -45t-126.5 -23.5q0 -96 9 -148q-59 -45 -131 -45q-123 0 -123 166v35q-396 66 -396 483z" />
    <glyph glyph-name="currency" unicode="&#xa4;" horiz-adv-x="1452" 
d="M164 258q0 56 33.5 89.5t121.5 33.5h596q117 0 148 8q43 -60 43 -123q0 -54 -33.5 -84t-122.5 -30h-213v-39q0 -75 -30 -94t-123 -19h-88q-97 0 -127.5 18.5t-30.5 94.5v39q-101 0 -131 -9q-43 60 -43 115zM164 553q0 56 33.5 89.5t121.5 33.5h19v262q-85 0 -131 -8
q-18 27 -30.5 73t-12.5 84q0 61 34 97.5t124 36.5h534q153 0 264.5 -34t173 -93.5t89.5 -129.5t28 -153q0 -175 -145.5 -274t-409.5 -99h-518q-104 0 -131 -8q-43 60 -43 123zM737 676h74q176 0 176 133q0 129 -176 129h-74v-262z" />
    <glyph glyph-name="yen" unicode="&#xa5;" horiz-adv-x="1406" 
d="M133 1032q18 107 86.5 160t159.5 53q33 0 61.5 -3.5t54 -14.5t45.5 -21t40.5 -31.5t35.5 -38t33.5 -49.5t30 -55.5t30.5 -67t30.5 -73.5t33.5 -84l164 299q37 69 37 133q37 6 178 6q91 0 131.5 -43t40.5 -110q0 -97 -74 -185l-188 -250h45q114 0 149 9q43 -67 43 -117
q0 -111 -149 -111h-737q-119 0 -152 -8q-41 65 -41 117q0 110 148 110h71l-145 209q-84 130 -162 166zM221 262q0 57 41 84t107 27h739q118 0 149 8q43 -67 43 -117q0 -110 -149 -110h-211v-39q0 -41 -7 -64t-28.5 -34.5t-46 -14t-74.5 -2.5h-90q-101 0 -131.5 18.5
t-30.5 96.5v39h-118q-114 0 -152 -9q-41 65 -41 117z" />
    <glyph glyph-name="section" unicode="&#xa7;" horiz-adv-x="1056" 
d="M25 604q0 102 48.5 178t139.5 109q-104 90 -104 215q0 90 38.5 159.5t104.5 111t147 62.5t172 21q188 0 294 -68.5t106 -174.5q0 -58 -31 -109.5t-90 -79.5q-129 90 -266 90q-46 0 -69.5 -8.5t-22.5 -34.5q1 -18 31 -31.5t78 -24.5t105.5 -24.5t114.5 -37.5t104.5 -58.5
t77 -92.5t29.5 -134q0 -101 -50 -176.5t-140 -110.5q104 -84 104 -215q0 -94 -40.5 -164.5t-110.5 -110.5t-153 -59.5t-179 -19.5q-186 0 -290.5 73t-104.5 181q0 57 32.5 108.5t92.5 79.5q56 -46 129.5 -74t150.5 -28q50 0 71 9t21 36q0 18 -30 31.5t-77.5 24.5t-105 24.5
t-115 37.5t-105 58.5t-77.5 92.5t-30 134zM408 670q0 -18 11.5 -35.5t26 -30.5t45 -29.5t51 -26.5t62.5 -28q45 30 45 86q0 15 -6.5 29t-23 28t-30.5 23.5t-43 24t-46 22t-54 23.5q-38 -31 -38 -86z" />
    <glyph glyph-name="dieresis" unicode="&#xa8;" horiz-adv-x="1021" 
d="M31 1176q0 84 65.5 149.5t175.5 65.5q100 0 151.5 -48t51.5 -129q0 -83 -66 -150t-176 -67q-100 0 -151 48.5t-51 130.5zM547 1176q0 84 65.5 149.5t175.5 65.5q100 0 151.5 -48t51.5 -129q0 -84 -65.5 -150.5t-175.5 -66.5q-101 0 -152 48.5t-51 130.5z" />
    <glyph glyph-name="copyright" unicode="&#xa9;" horiz-adv-x="1527" 
d="M27 604q0 120 26 225t83.5 196.5t142.5 157t210.5 103t280.5 37.5q201 0 344.5 -46t227 -133.5t121.5 -203t38 -266.5q0 -120 -25.5 -225.5t-81.5 -197.5t-139.5 -157.5t-206.5 -103.5t-276 -39q-165 0 -292 30.5t-212 85.5t-139.5 137t-78 180t-23.5 220zM373 592
q0 -177 107 -281t313 -104q155 0 238 48.5t83 135.5q0 41 -16.5 78t-44.5 55q-66 -35 -183 -35q-82 0 -122.5 36.5t-40.5 101.5q0 56 33.5 92.5t86.5 36.5q79 0 136 -66q75 0 120 37.5t45 97.5q0 89 -86.5 150t-218.5 61q-219 0 -334.5 -120t-115.5 -324z" />
    <glyph glyph-name="guillemotleft" unicode="&#xab;" horiz-adv-x="1495" 
d="M16 561q0 76 72 135l512 385q7 -13 26.5 -37.5t26.5 -35.5q33 -45 51.5 -73.5t36 -69t17.5 -72.5q0 -71 -84 -127l-174 -109l172 -96q43 -27 65.5 -63t22.5 -62q0 -31 -16.5 -69.5t-35 -66t-49.5 -69.5q-47 -62 -59 -86l-512 375q-37 26 -54.5 56.5t-17.5 84.5zM719 561
q0 77 74 135l510 385q7 -12 27 -36.5t28 -36.5q35 -49 51 -74.5t34.5 -67t18.5 -73.5q0 -72 -86 -127l-174 -109l172 -96q45 -27 67.5 -63t22.5 -62q0 -31 -17.5 -70.5t-33.5 -64t-49 -70.5q-41 -55 -61 -86l-510 375q-38 26 -56 56.5t-18 84.5z" />
    <glyph glyph-name="logicalnot" unicode="&#xac;" horiz-adv-x="1038" 
d="M10 561q0 162 213 162h600q96 0 139.5 -53t43.5 -178v-166q0 -119 -40.5 -161t-121.5 -42q-60 0 -142 29v190q0 23 -7.5 31t-30.5 8h-625q-4 26 -12 64t-12.5 65t-4.5 51z" />
    <glyph glyph-name="uni00AD" unicode="&#xad;" horiz-adv-x="917" 
d="M29 623q0 99 53.5 137.5t175.5 40.5h369q141 0 219 37q16 -42 30.5 -112.5t14.5 -121.5q0 -100 -53 -138t-174 -40h-371q-141 0 -219 -37q-16 42 -30.5 112.5t-14.5 121.5z" />
    <glyph glyph-name="registered" unicode="&#xae;" horiz-adv-x="1026" 
d="M27 918q0 100 28.5 183.5t86 149.5t154.5 103t224 37q131 0 225.5 -30.5t149 -88.5t79.5 -134t25 -175q0 -80 -16.5 -149.5t-53.5 -130.5t-91.5 -104t-135.5 -68t-182 -26q-136 0 -233 30t-153 88.5t-81.5 135.5t-25.5 179zM256 791q0 -68 16.5 -93.5t63.5 -25.5
q44 0 131 24q-14 65 -14 115v25q3 0 23 -1t26 -1q20 -95 53.5 -128.5t97.5 -33.5q50 0 82.5 30t36.5 93q-62 21 -90 82q74 35 74 147q-5 89 -71 131.5t-216 42.5h-111q-34 0 -55.5 -9.5t-31 -29.5t-12.5 -39.5t-3 -50.5v-278zM453 946v119h47q25 0 42 -13.5t17 -43.5
q0 -33 -19.5 -48.5t-50.5 -15.5q-28 0 -36 2z" />
    <glyph glyph-name="macron" unicode="&#xaf;" horiz-adv-x="819" 
d="M31 1221q0 78 48 123t140 45q51 0 212.5 -10.5t186.5 -10.5q82 0 127 18q43 -71 43 -149q0 -76 -46 -120.5t-132 -47.5q-57 0 -220.5 10.5t-188.5 10.5q-80 0 -127 -19q-43 76 -43 150z" />
    <glyph glyph-name="degree" unicode="&#xb0;" horiz-adv-x="931" 
d="M25 950q0 87 29 165t85 140.5t147 99t206 36.5q193 0 303 -103t110 -299q0 -197 -115 -312.5t-335 -115.5q-211 0 -320.5 103t-109.5 286zM377 965q0 -59 27.5 -89t72.5 -30q42 0 71.5 33.5t29.5 95.5q0 61 -26 91t-69 30t-74.5 -36t-31.5 -95z" />
    <glyph glyph-name="plusminus" unicode="&#xb1;" horiz-adv-x="1103" 
d="M23 872q0 84 50 126t181 42h74q23 0 31 8t8 31v37q0 151 -15 213q93 60 201 60q85 0 135.5 -48.5t50.5 -175.5v-125h80q143 0 219 37q47 -112 47 -200q0 -84 -50 -126t-181 -42h-76q-23 0 -31 -8t-8 -31v-31q0 -39 15 -137q-155 -35 -230 -35q-157 0 -157 111v131h-78
q-143 0 -219 -37q-47 112 -47 200zM29 244q0 84 50 126t181 42h553q143 0 219 37q47 -112 47 -201q0 -84 -50 -126t-181 -42h-553q-143 0 -219 -37q-47 112 -47 201z" />
    <glyph glyph-name="acute" unicode="&#xb4;" horiz-adv-x="600" 
d="M14 1315q0 34 27 69l297 369q72 -11 137 -57t90 -111q20 -42 12 -95t-47 -83l-337 -268q-64 22 -121.5 70t-57.5 106z" />
    <glyph glyph-name="paragraph" unicode="&#xb6;" horiz-adv-x="1398" 
d="M16 489q0 285 179.5 437.5t513.5 152.5h462q29 0 152 6q49 -70 49 -139q0 -71 -47.5 -119.5t-130.5 -52.5v-1163q-24 -12 -78 -12q-83 0 -123.5 39.5t-40.5 132.5v1003h-88v-1163q-27 -12 -80 -12q-82 0 -121.5 39t-39.5 133v319q-73 -47 -189 -47q-105 0 -187 36.5
t-131.5 99.5t-74.5 141.5t-25 168.5zM428 539q0 -63 28.5 -106.5t86.5 -43.5q44 0 80 29v356q-96 -6 -145.5 -69.5t-49.5 -165.5z" />
    <glyph glyph-name="cedilla" unicode="&#xb8;" horiz-adv-x="681" 
d="M25 -432q0 72 38 123q78 -45 213 -45q86 0 86 35q0 18 -26.5 24t-64 7t-75 6.5t-64 29.5t-26.5 68q0 18 7 53l41 176h264l-27 -129q128 -13 200.5 -83.5t72.5 -168.5q0 -75 -32 -130.5t-88.5 -87.5t-124 -47t-147.5 -15q-247 0 -247 184z" />
    <glyph glyph-name="guillemotright" unicode="&#xbb;" horiz-adv-x="1495" 
d="M31 791q0 11 1.5 22t6 23t7.5 21.5t11.5 24t12.5 22t14.5 23.5t14.5 21.5t16.5 24t15.5 22.5q53 70 62 86l509 -374q38 -28 56 -59t18 -85q0 -75 -74 -133l-509 -385q-5 7 -26 33.5t-30 40.5q-32 44 -50.5 72.5t-36 69.5t-17.5 73q0 72 86 127l174 106l-174 99
q-43 27 -65.5 62.5t-22.5 62.5zM735 791q0 31 17.5 70t33 62.5t50.5 71.5q50 66 59 86l512 -374q37 -28 54.5 -59t17.5 -85q0 -74 -72 -133l-512 -385q-6 10 -25.5 36t-27.5 38q-105 140 -105 215q0 71 84 127l176 106l-176 99q-42 27 -64 62.5t-22 62.5z" />
    <glyph glyph-name="onequarter" unicode="&#xbc;" horiz-adv-x="2283" 
d="M20 1247q60 14 159 46t175 52.5t127 20.5h72q63 0 90 -27t27 -84v-483h184q33 -64 33 -121q0 -52 -33 -85.5t-104 -33.5h-674q-33 61 -33 123q0 117 139 117h86v322q-104 0 -164 34t-84 119zM586 92q58 42 104 111l684 1009q65 93 164 93q56 0 108.5 -28.5t82.5 -88.5
q-59 -43 -105 -111l-684 -1009q-65 -93 -164 -93q-56 0 -108 28.5t-82 88.5zM1270 301q0 57 45 102l368 349q82 82 183 82h147q61 0 88 -28t27 -85v-356l110 6q27 -39 27 -78q0 -37 -29 -65.5t-82 -28.5h-26v-187q-86 -28 -184 -28q-215 0 -215 127v88h-132q-180 0 -282 -4
q-45 48 -45 106zM1518 365h211v208z" />
    <glyph glyph-name="onehalf" unicode="&#xbd;" horiz-adv-x="2369" 
d="M20 1247q60 14 159 46t175 52.5t127 20.5h72q63 0 90 -27t27 -84v-483h184q33 -64 33 -121q0 -52 -33 -85.5t-104 -33.5h-674q-33 61 -33 123q0 117 139 117h86v322q-104 0 -164 34t-84 119zM586 92q58 42 104 111l684 1009q65 93 164 93q56 0 108.5 -28.5t82.5 -88.5
q-59 -43 -105 -111l-684 -1009q-65 -93 -164 -93q-56 0 -108 28.5t-82 88.5zM1454 135q0 121 156 178q168 64 210 89q62 38 62 90q0 33 -29 54t-86 21q-106 0 -208 -57q-105 69 -105 149q0 88 110 136.5t294 48.5q202 0 311.5 -62.5t109.5 -185.5q0 -228 -432 -330h148
q153 0 225 66q57 -24 94 -71t37 -101q0 -68 -58.5 -114t-181.5 -46h-612q-45 72 -45 135z" />
    <glyph glyph-name="threequarters" unicode="&#xbe;" horiz-adv-x="2291" 
d="M20 719q0 88 76 137q124 -76 273 -76q123 0 123 62q0 30 -37 40.5t-131 10.5q-62 0 -62 43v20q0 23 12 36t41 24l211 78h-276q-88 0 -135 48t-47 115q0 76 61 125q66 -20 205 -20h411q61 0 89.5 -28.5t25.5 -84.5l-4 -78q-6 -56 -86 -92l-203 -80q173 -6 248.5 -59.5
t75.5 -155.5q0 -268 -459 -268q-190 0 -301 50.5t-111 152.5zM594 92q58 42 104 111l684 1009q65 93 164 93q56 0 108.5 -28.5t82.5 -88.5q-59 -43 -105 -111l-684 -1009q-65 -93 -164 -93q-56 0 -108 28.5t-82 88.5zM1278 301q0 57 45 102l369 349q82 82 182 82h147
q61 0 88 -28t27 -85v-356l111 6q26 -37 26 -78q0 -38 -28.5 -66t-81.5 -28h-27v-187q-86 -28 -184 -28q-215 0 -215 127v88h-131q-181 0 -283 -4q-45 48 -45 106zM1526 365h211v208z" />
    <glyph glyph-name="questiondown" unicode="&#xbf;" horiz-adv-x="1009" 
d="M16 39q0 85 34 152t82 110t96 82t82 87t34 105q33 24 94.5 40t126.5 16q98 0 167 -44.5t69 -129.5q0 -56 -31 -103t-74.5 -77.5t-87.5 -55.5t-75 -47t-31 -41q0 -39 104 -39q129 0 260 56q125 -74 125 -195q0 -125 -115 -192.5t-325 -67.5q-72 0 -139 8t-141 31
t-128 59.5t-90 100t-37 145.5zM301 868q0 91 69.5 161.5t186.5 70.5q108 0 162.5 -52t54.5 -139q0 -90 -69.5 -160.5t-186.5 -70.5q-107 0 -162 51.5t-55 138.5z" />
    <glyph glyph-name="Agrave" unicode="&#xc0;" horiz-adv-x="1372" 
d="M55.5 168q6.5 42 24.5 84l260 620q46 108 86 162q-96 -4 -150 -10q-51 104 -51 193q0 85 67 129.5t218 44.5h369q104 0 163 -44.5t95 -152.5l303 -911q45 -136 86 -224q-233 -75 -344 -75q-74 0 -120 40.5t-79 139.5l-27 82h-448l-94 -246h-226q-57 0 -90.5 24.5t-41 63
t-1 80.5zM350 1795q-8 53 10 95q27 65 91.5 111t136.5 57l297 -368q28 -32 28 -70q0 -58 -57.5 -106t-120.5 -70l-338 268q-39 30 -47 83zM637 586q-10 -35 22 -35h197l-104 336z" />
    <glyph glyph-name="Aacute" unicode="&#xc1;" horiz-adv-x="1370" 
d="M55.5 168q6.5 42 24.5 84l260 620q46 108 86 162q-96 -4 -150 -10q-51 104 -51 193q0 85 67 129.5t218 44.5h369q104 0 163 -44.5t95 -152.5l303 -911q45 -136 86 -224q-233 -75 -344 -75q-74 0 -120 40.5t-79 139.5l-27 82h-448l-94 -246h-226q-57 0 -90.5 24.5t-41 63
t-1 80.5zM561 1620q0 36 27 70l297 368q72 -11 137 -57t90 -111q20 -42 12 -95t-47 -83l-338 -268q-64 22 -121 70t-57 106zM637 586q-10 -35 22 -35h197l-104 336z" />
    <glyph glyph-name="Acircumflex" unicode="&#xc2;" horiz-adv-x="1372" 
d="M55.5 168q-6.5 -42 1 -80.5t41 -63t90.5 -24.5h226l94 246h448l27 -82q33 -99 79 -139.5t120 -40.5q111 0 344 75q-41 88 -86 224l-303 911q-36 108 -95 152.5t-163 44.5h-369q-151 0 -218 -44.5t-67 -129.5q0 -89 51 -193q54 6 150 10q-40 -54 -86 -162l-260 -620
q-18 -42 -24.5 -84zM308 1551q-18 60 50 149l111 135q50 62 89.5 83t107.5 21q148 0 221 -47l248 -319q-14 -63 -75.5 -101t-133.5 -38q-95 0 -140 61l-98 170l-78 -125q-28 -42 -59 -110q-93 0 -159 30.5t-84 90.5zM637 586l115 301l104 -336h-197q-32 0 -22 35z" />
    <glyph glyph-name="Atilde" unicode="&#xc3;" horiz-adv-x="1372" 
d="M55.5 168q-6.5 -42 1 -80.5t41 -63t90.5 -24.5h226l94 246h448l27 -82q33 -99 79 -139.5t120 -40.5q111 0 344 75q-41 88 -86 224l-303 911q-36 108 -95 152.5t-163 44.5h-369q-151 0 -218 -44.5t-67 -129.5q0 -89 51 -193q54 6 150 10q-40 -54 -86 -162l-260 -620
q-18 -42 -24.5 -84zM266 1624q0 52 17 89.5t48 59t67.5 32t82.5 12.5q66 0 192 -16.5t163 -16.5q105 0 139 86q81 -9 127 -57.5t49 -124.5q0 -96 -63.5 -145.5t-169.5 -49.5q-56 0 -164.5 15.5t-159.5 15.5q-114 0 -154 -78q-78 8 -126 56.5t-48 121.5zM637 586l115 301
l104 -336h-197q-32 0 -22 35z" />
    <glyph glyph-name="Adieresis" unicode="&#xc4;" horiz-adv-x="1372" 
d="M55.5 168q-6.5 -42 1 -80.5t41 -63t90.5 -24.5h226l94 246h448l27 -82q33 -99 79 -139.5t120 -40.5q111 0 344 75q-41 88 -86 224l-303 911q-36 108 -95 152.5t-163 44.5h-369q-151 0 -218 -44.5t-67 -129.5q0 -89 51 -193q54 6 150 10q-40 -54 -86 -162l-260 -620
q-18 -42 -24.5 -84zM246 1632q0 84 65 149.5t176 65.5q100 0 151.5 -47.5t51.5 -128.5q0 -84 -65.5 -150.5t-175.5 -66.5q-101 0 -152 48.5t-51 129.5zM637 586l115 301l104 -336h-197q-32 0 -22 35zM762 1632q0 84 65.5 149.5t176.5 65.5q100 0 151 -47.5t51 -128.5
q0 -84 -65.5 -150.5t-175.5 -66.5q-101 0 -152 48.5t-51 129.5z" />
    <glyph glyph-name="Aring" unicode="&#xc5;" horiz-adv-x="1372" 
d="M55.5 168q-6.5 -42 1 -80.5t41 -63t90.5 -24.5h226l94 246h448l27 -82q33 -99 79 -139.5t120 -40.5q111 0 344 75q-41 88 -86 224l-303 911q-36 108 -95 152.5t-163 44.5h-369q-151 0 -218 -44.5t-67 -129.5q0 -89 51 -193q54 6 150 10q-40 -54 -86 -162l-260 -620
q-18 -42 -24.5 -84zM408 1706q0 115 83.5 194.5t241.5 79.5q133 0 209 -63.5t76 -185.5q0 -124 -79 -195.5t-232 -71.5q-147 0 -223 64.5t-76 177.5zM637 586l115 301l104 -336h-197q-32 0 -22 35zM651 1716q0 -74 70 -74q28 0 49 21t21 59q0 74 -66 74q-30 0 -52 -22
t-22 -58z" />
    <glyph glyph-name="AE" unicode="&#xc6;" horiz-adv-x="1918" 
d="M55.5 87.5q-5.5 38.5 2.5 80.5t28 84l291 620q44 97 92 162q-96 -4 -150 -10q-45 82 -45 180q0 187 297 187h1037q136 0 215 20q63 -85 63 -203q0 -36 -9 -64t-23 -47t-36.5 -32t-44 -20t-51.5 -11t-52.5 -5t-53.5 -1h-293v-129q0 -23 6.5 -30t24.5 -7h368
q27 -69 27 -137q0 -193 -256 -193h-170v-133q0 -23 6.5 -30t24.5 -7h266q109 0 215 27q63 -85 63 -209q0 -36 -9 -64t-23 -47t-36.5 -32t-44 -20t-51.5 -11t-52.5 -5t-53.5 -1h-553q-52 0 -89 8t-70.5 30t-50.5 67t-17 114v27h-334l-106 -246h-226q-57 0 -89 24.5t-37.5 63z
M662 586q-10 -35 22 -35h164v477z" />
    <glyph glyph-name="Ccedilla" unicode="&#xc7;" horiz-adv-x="1308" 
d="M94 641q0 130 25 242t81 208t138.5 163.5t203.5 106t271 38.5q76 0 145 -9t135 -31.5t114 -56.5t77 -88t29 -122q0 -75 -42 -138t-118 -90q-182 103 -324 103q-111 0 -176 -66.5t-65 -212.5q0 -123 61.5 -191.5t188.5 -68.5q80 0 154 20t113.5 40t96.5 55
q60 -32 91.5 -95t31.5 -133q0 -79 -37.5 -141t-102 -100.5t-137.5 -60.5t-157 -31l-12 -66q128 -13 200 -83t72 -169q0 -75 -32 -130.5t-88 -87.5t-123.5 -47t-147.5 -15q-248 0 -248 184q0 70 39 123q78 -45 213 -45q86 0 86 35q0 18 -26.5 24t-64 7t-75 6.5t-64 29.5
t-26.5 68q0 23 6 53l27 119q-269 40 -401 209.5t-132 443.5z" />
    <glyph glyph-name="Egrave" unicode="&#xc8;" horiz-adv-x="1308" 
d="M14 1210q0 79 55.5 130t159.5 51h768q136 0 215 20q64 -87 64 -203q0 -36 -9 -64t-23 -47t-36.5 -32t-44 -20t-51.5 -11t-52.5 -5t-53.5 -1h-279v-129q0 -23 6.5 -30t24.5 -7h354q27 -69 27 -137q0 -193 -256 -193h-156v-133q0 -23 6.5 -30t24.5 -7h252q109 0 215 27
q63 -85 63 -209q0 -36 -9 -64t-23 -47t-36.5 -32t-44 -20t-51.5 -11t-52.5 -5t-53.5 -1h-555q-52 0 -89 8t-70.5 30t-50.5 67t-17 114v809q-80 0 -156 -10q-66 94 -66 192zM330 1795q-8 53 10 95q27 65 91 111t136 57l297 -368q29 -33 29 -70q0 -58 -57.5 -106t-120.5 -70
l-338 268q-39 30 -47 83z" />
    <glyph glyph-name="Eacute" unicode="&#xc9;" horiz-adv-x="1308" 
d="M14 1210q0 79 55.5 130t159.5 51h768q136 0 215 20q64 -87 64 -203q0 -36 -9 -64t-23 -47t-36.5 -32t-44 -20t-51.5 -11t-52.5 -5t-53.5 -1h-279v-129q0 -23 6.5 -30t24.5 -7h354q27 -69 27 -137q0 -193 -256 -193h-156v-133q0 -23 6.5 -30t24.5 -7h252q109 0 215 27
q63 -85 63 -209q0 -36 -9 -64t-23 -47t-36.5 -32t-44 -20t-51.5 -11t-52.5 -5t-53.5 -1h-555q-52 0 -89 8t-70.5 30t-50.5 67t-17 114v809q-80 0 -156 -10q-66 94 -66 192zM434 1620q0 36 27 70l297 368q72 -11 137 -57t90 -111q20 -42 12 -95t-47 -83l-338 -268
q-64 22 -121 70t-57 106z" />
    <glyph glyph-name="Ecircumflex" unicode="&#xca;" horiz-adv-x="1308" 
d="M14 1210q0 -98 66 -192q76 10 156 10v-809q0 -69 17 -114t50.5 -67t70.5 -30t89 -8h555q31 0 53.5 1t52.5 5t51.5 11t44 20t36.5 32t23 47t9 64q0 124 -63 209q-106 -27 -215 -27h-252q-18 0 -24.5 7t-6.5 30v133h156q256 0 256 193q0 68 -27 137h-354q-18 0 -24.5 7
t-6.5 30v129h279q31 0 53.5 1t52.5 5t51.5 11t44 20t36.5 32t23 47t9 64q0 116 -64 203q-79 -20 -215 -20h-768q-104 0 -159.5 -51t-55.5 -130zM288.5 1626q9.5 45 49.5 96l111 136q50 62 89 83t107 21q148 0 221 -47l248 -320q-14 -63 -75.5 -101t-133.5 -38q-93 0 -139 62
l-98 170l-78 -125q-29 -45 -60 -111q-54 0 -101 10.5t-82 33.5t-51.5 54t-7 76z" />
    <glyph glyph-name="Edieresis" unicode="&#xcb;" horiz-adv-x="1308" 
d="M14 1210q0 -98 66 -192q76 10 156 10v-809q0 -69 17 -114t50.5 -67t70.5 -30t89 -8h555q31 0 53.5 1t52.5 5t51.5 11t44 20t36.5 32t23 47t9 64q0 124 -63 209q-106 -27 -215 -27h-252q-18 0 -24.5 7t-6.5 30v133h156q256 0 256 193q0 68 -27 137h-354q-18 0 -24.5 7
t-6.5 30v129h279q31 0 53.5 1t52.5 5t51.5 11t44 20t36.5 32t23 47t9 64q0 116 -64 203q-79 -20 -215 -20h-768q-104 0 -159.5 -51t-55.5 -130zM180 1632q0 84 65.5 149.5t176.5 65.5q100 0 151.5 -47.5t51.5 -128.5q0 -83 -66 -150t-176 -67q-101 0 -152 48.5t-51 129.5z
M696 1632q0 84 65.5 149.5t176.5 65.5q100 0 151.5 -47.5t51.5 -128.5q0 -83 -66 -150t-176 -67q-101 0 -152 48.5t-51 129.5z" />
    <glyph glyph-name="Igrave" unicode="&#xcc;" horiz-adv-x="987" 
d="M55 1210q0 79 55.5 130t159.5 51h404q136 0 215 20q63 -85 63 -203q0 -148 -159 -159q-23 -2 -23 -27v-680q80 0 156 10q65 -92 65 -182q0 -78 -55 -124t-160 -46h-618q-64 87 -64 182q0 68 38.5 111t121.5 49q22 2 22 27v680q-71 0 -155 -11q-66 94 -66 172zM207 1795
q-8 53 10 95q27 65 91 111t136 57l297 -368q29 -33 29 -70q0 -58 -57.5 -106t-120.5 -70l-338 268q-39 30 -47 83z" />
    <glyph glyph-name="Iacute" unicode="&#xcd;" horiz-adv-x="987" 
d="M55 1210q0 79 55.5 130t159.5 51h404q136 0 215 20q63 -85 63 -203q0 -148 -159 -159q-23 -2 -23 -27v-680q80 0 156 10q65 -92 65 -182q0 -78 -55 -124t-160 -46h-618q-64 87 -64 182q0 68 38.5 111t121.5 49q22 2 22 27v680q-71 0 -155 -11q-66 94 -66 172zM301 1620
q0 36 27 70l297 368q72 -11 137 -57t90 -111q20 -42 12 -95t-47 -83l-338 -268q-64 22 -121 70t-57 106z" />
    <glyph glyph-name="Icircumflex" unicode="&#xce;" horiz-adv-x="987" 
d="M55 1210q0 -78 66 -172q84 11 155 11v-680q0 -25 -22 -27q-83 -6 -121.5 -49t-38.5 -111q0 -95 64 -182h618q105 0 160 46t55 124q0 90 -65 182q-76 -10 -156 -10v680q0 25 23 27q159 11 159 159q0 118 -63 203q-79 -20 -215 -20h-404q-104 0 -159.5 -51t-55.5 -130z
M118.5 1620q9.5 45 49.5 96l111 135q50 62 89 83.5t107 21.5q148 0 221 -47l248 -320q-14 -63 -75.5 -101t-133.5 -38q-94 0 -139 61l-98 170l-78 -125q-31 -47 -60 -110q-54 0 -101 10.5t-82 33.5t-51.5 54t-7 76z" />
    <glyph glyph-name="Idieresis" unicode="&#xcf;" horiz-adv-x="1011" 
d="M55 1632q0 84 65.5 149.5t176.5 65.5q100 0 151.5 -47.5t51.5 -128.5q0 -83 -66 -150t-176 -67q-101 0 -152 48.5t-51 129.5zM70 1210q0 -80 65 -172q84 11 156 11v-680q0 -25 -23 -27q-83 -6 -121 -49t-38 -111q0 -97 63 -182h619q105 0 160 46t55 124q0 88 -66 182
q-76 -10 -156 -10v680q0 25 23 27q83 6 121.5 48.5t38.5 110.5q0 116 -64 203q-79 -20 -215 -20h-403q-104 0 -159.5 -51t-55.5 -130zM571 1632q0 84 65.5 149.5t176.5 65.5q100 0 151.5 -47.5t51.5 -128.5q0 -83 -66 -150t-176 -67q-101 0 -152 48.5t-51 129.5z" />
    <glyph glyph-name="Eth" unicode="&#xd0;" horiz-adv-x="1476" 
d="M25 1210q0 47 17.5 81t44 53t66.5 30t75.5 14t80.5 3h428q201 0 351.5 -46.5t244 -133.5t139.5 -206t46 -270q0 -194 -59.5 -338t-170.5 -231.5t-261 -129.5t-341 -42h-192q-66 0 -112.5 18.5t-72 45.5t-40 72.5t-18.5 82t-5 92.5v260h-53q-48 0 -109 -14q-49 59 -49 127
q0 117 166 117h45v233q-80 0 -156 -10q-65 92 -65 192zM733 332h31q72 0 127.5 31.5t87.5 85.5t47.5 117t15.5 134q0 164 -70.5 246t-193.5 82h-45v-233h47q48 0 109 14q49 -59 49 -127q0 -117 -166 -117h-39v-233z" />
    <glyph glyph-name="Ntilde" unicode="&#xd1;" horiz-adv-x="1525" 
d="M14 1210q0 79 55.5 130t159.5 51h205q99 -3 173.5 -37.5t144.5 -124.5l354 -500l-2 291q-8 222 -53 328q173 43 237 43q51 0 87 -15.5t57 -40.5t32.5 -67.5t15 -84.5t3.5 -104l-19 -1042q-73 -41 -188 -41q-86 0 -130.5 12t-76.5 45l-489 652q6 -32 12 -351
q4 -214 53 -327q-173 -43 -237 -43q-51 0 -87 15.5t-56.5 40t-31.5 67t-14.5 84.5t-3.5 104v754q-62 0 -135 -11q-66 94 -66 172zM362 1608q0 184 216 192q66 0 191.5 -16.5t162.5 -16.5q105 0 139 86q81 -9 127 -57.5t49 -124.5q0 -96 -63.5 -145t-169.5 -49
q-56 0 -164.5 15t-159.5 15q-114 0 -153 -77q-78 8 -126.5 56.5t-48.5 121.5z" />
    <glyph glyph-name="Ograve" unicode="&#xd2;" horiz-adv-x="1497" 
d="M94 645q0 158 42.5 291.5t127.5 238.5t226 164.5t325 59.5q694 0 694 -666q0 -157 -41 -291t-124 -239.5t-221 -166t-318 -61.5q-711 0 -711 670zM463 1797q-8 53 10 95q27 65 91 111t136 57l297 -368q29 -33 29 -70q0 -58 -57.5 -106t-120.5 -70l-338 268q-39 30 -47 83
zM588 686q0 -41 5 -76.5t19.5 -72t37 -62.5t61 -42.5t88.5 -16.5q217 0 217 272q0 130 -56 202.5t-153 72.5q-219 0 -219 -277z" />
    <glyph glyph-name="Oacute" unicode="&#xd3;" horiz-adv-x="1497" 
d="M94 645q0 158 42.5 291.5t127.5 238.5t226 164.5t325 59.5q694 0 694 -666q0 -157 -41 -291t-124 -239.5t-221 -166t-318 -61.5q-711 0 -711 670zM516 1622q0 36 27 70l297 368q72 -11 137 -57t90 -111q20 -42 12 -95t-47 -83l-338 -268q-64 22 -121 70t-57 106zM588 686
q0 -41 5 -76.5t19.5 -72t37 -62.5t61 -42.5t88.5 -16.5q217 0 217 272q0 130 -56 202.5t-153 72.5q-219 0 -219 -277z" />
    <glyph glyph-name="Ocircumflex" unicode="&#xd4;" horiz-adv-x="1497" 
d="M94 645q0 -670 711 -670q180 1 318 61.5t221 166t124 239.5t41 291q0 666 -694 666q-184 0 -325 -59.5t-226 -164.5t-127.5 -238.5t-42.5 -291.5zM417.5 1628q9.5 45 49.5 96l111 136q50 62 89 83t107 21q148 0 221 -47l248 -320q-14 -63 -75.5 -101t-133.5 -38
q-93 0 -139 62l-98 170l-78 -125q-29 -45 -60 -111q-54 0 -101 10.5t-82 33.5t-51.5 54t-7 76zM588 686q0 277 219 277q97 0 153 -72.5t56 -202.5q0 -272 -217 -272q-50 0 -88.5 16.5t-61 42.5t-37 62.5t-19.5 72t-5 76.5z" />
    <glyph glyph-name="Otilde" unicode="&#xd5;" horiz-adv-x="1497" 
d="M94 645q0 -670 711 -670q180 1 318 61.5t221 166t124 239.5t41 291q0 666 -694 666q-184 0 -325 -59.5t-226 -164.5t-127.5 -238.5t-42.5 -291.5zM344 1642q0 52 17 89.5t48 59t67.5 32t82.5 12.5q66 0 191.5 -16.5t162.5 -16.5q106 0 140 86q81 -9 127 -57.5t49 -124.5
q0 -96 -64 -145.5t-170 -49.5q-56 0 -164 15.5t-159 15.5q-114 0 -154 -78q-78 8 -126 56.5t-48 121.5zM588 686q0 277 219 277q97 0 153 -72.5t56 -202.5q0 -272 -217 -272q-50 0 -88.5 16.5t-61 42.5t-37 62.5t-19.5 72t-5 76.5z" />
    <glyph glyph-name="Odieresis" unicode="&#xd6;" horiz-adv-x="1497" 
d="M94 645q0 -670 711 -670q180 1 318 61.5t221 166t124 239.5t41 291q0 666 -694 666q-184 0 -325 -59.5t-226 -164.5t-127.5 -238.5t-42.5 -291.5zM328 1624q0 84 65 149.5t176 65.5q100 0 151.5 -47.5t51.5 -128.5q0 -83 -66 -150t-176 -67q-101 0 -151.5 48t-50.5 130z
M588 686q0 277 219 277q97 0 153 -72.5t56 -202.5q0 -272 -217 -272q-50 0 -88.5 16.5t-61 42.5t-37 62.5t-19.5 72t-5 76.5zM844 1624q0 84 65 149.5t176 65.5q100 0 151.5 -47.5t51.5 -128.5q0 -84 -65.5 -150.5t-175.5 -66.5q-101 0 -152 48.5t-51 129.5z" />
    <glyph glyph-name="multiply" unicode="&#xd7;" horiz-adv-x="1134" 
d="M29 887q44 84 103 129t124 45q105 0 236 -127l83 -80l152 152q53 53 135 53q76 0 142.5 -45t91.5 -113l-295 -262l176 -168q68 -68 131 -100q-45 -82 -105.5 -126t-125.5 -44q-101 2 -234 131l-78 71l-149 -151q-53 -53 -137 -53q-80 0 -148 43t-86 114l297 262l-180 173
q-77 70 -133 96z" />
    <glyph glyph-name="Oslash" unicode="&#xd8;" horiz-adv-x="1497" 
d="M94 645q0 158 42.5 291.5t127.5 238.5t226 164.5t325 59.5q35 0 53 -2l25 71q60 166 203 166q54 0 114.5 -29t85.5 -75q-11 -23 -23.5 -56t-28.5 -79t-27 -76q292 -152 292 -586q0 -157 -41 -291t-124 -239.5t-221 -166t-318 -61.5q-13 0 -36 1t-34 1l-26 -77
q-61 -164 -203 -164q-54 0 -115 28.5t-86 73.5q15 33 45.5 116t38.5 105q-295 152 -295 586zM588 686q0 -41 5 -76.5t19.5 -72t37 -62.5t61 -42.5t88.5 -16.5q217 0 217 272q0 130 -56 202.5t-153 72.5q-219 0 -219 -277z" />
    <glyph glyph-name="Ugrave" unicode="&#xd9;" horiz-adv-x="1507" 
d="M20 1262q0 31 7 71q129 7 313 31t217 27q29 0 52 -9t38 -21.5t25.5 -35.5t15.5 -42t8 -50.5t3.5 -51t0.5 -53.5v-593q0 -183 144 -183q65 0 103 41t38 142v485q-8 158 -53 287q29 7 87.5 22.5t92 23.5t77.5 18.5t74.5 15t51.5 4.5q50 0 83.5 -25.5t49.5 -75t21.5 -96
t7.5 -115.5v-487q0 -116 -21.5 -210t-56 -157t-86.5 -110t-105 -73.5t-120.5 -42t-122.5 -20t-121 -4.5t-121.5 4.5t-123 20t-120.5 42t-105.5 73.5t-87 110t-56 157t-21.5 210v401q-96 18 -142.5 93.5t-46.5 175.5zM418 1689q-8 53 10 95q27 65 91 111t136 57l297 -369
q29 -33 29 -70q0 -58 -57.5 -106t-120.5 -70l-338 269q-39 30 -47 83z" />
    <glyph glyph-name="Uacute" unicode="&#xda;" horiz-adv-x="1507" 
d="M20 1262q0 31 7 71q129 7 313 31t217 27q29 0 52 -9t38 -21.5t25.5 -35.5t15.5 -42t8 -50.5t3.5 -51t0.5 -53.5v-593q0 -183 144 -183q65 0 103 41t38 142v485q-8 158 -53 287q29 7 87.5 22.5t92 23.5t77.5 18.5t74.5 15t51.5 4.5q50 0 83.5 -25.5t49.5 -75t21.5 -96
t7.5 -115.5v-487q0 -116 -21.5 -210t-56 -157t-86.5 -110t-105 -73.5t-120.5 -42t-122.5 -20t-121 -4.5t-121.5 4.5t-123 20t-120.5 42t-105.5 73.5t-87 110t-56 157t-21.5 210v401q-96 18 -142.5 93.5t-46.5 175.5zM657 1513q0 35 27 70l297 369q72 -11 137 -57t90 -111
q20 -42 12.5 -95t-46.5 -83l-338 -269q-64 22 -121.5 70t-57.5 106z" />
    <glyph glyph-name="Ucircumflex" unicode="&#xdb;" horiz-adv-x="1507" 
d="M20 1262q0 -100 46.5 -175.5t142.5 -93.5v-401q0 -116 21.5 -210t56 -157t87 -110t105.5 -73.5t120.5 -42t123 -20t121.5 -4.5t121 4.5t122.5 20t120.5 42t105 73.5t86.5 110t56 157t21.5 210v487q-2 69 -7.5 115.5t-21.5 96t-49.5 75t-83.5 25.5q-21 0 -51.5 -4.5
t-74.5 -15t-77.5 -18.5t-92 -23.5t-87.5 -22.5q45 -129 53 -287v-485q0 -101 -38 -142t-103 -41q-144 0 -144 183v593q0 34 -0.5 53.5t-3.5 51t-8 50.5t-15.5 42t-25.5 35.5t-38 21.5t-52 9q-33 -3 -217 -27t-313 -31q-7 -40 -7 -71zM423 1555q-18 60 50 149l111 135
q50 62 89 83.5t107 21.5q147 0 221 -48l248 -319q-14 -63 -75.5 -101t-133.5 -38q-94 0 -139 61l-98 170l-78 -125q-28 -42 -59 -110q-93 0 -159 30.5t-84 90.5z" />
    <glyph glyph-name="Udieresis" unicode="&#xdc;" horiz-adv-x="1507" 
d="M20 1262q0 -100 46.5 -175.5t142.5 -93.5v-401q0 -116 21.5 -210t56 -157t87 -110t105.5 -73.5t120.5 -42t123 -20t121.5 -4.5t121 4.5t122.5 20t120.5 42t105 73.5t86.5 110t56 157t21.5 210v487q-2 69 -7.5 115.5t-21.5 96t-49.5 75t-83.5 25.5q-21 0 -51.5 -4.5
t-74.5 -15t-77.5 -18.5t-92 -23.5t-87.5 -22.5q45 -129 53 -287v-485q0 -101 -38 -142t-103 -41q-144 0 -144 183v593q0 34 -0.5 53.5t-3.5 51t-8 50.5t-15.5 42t-25.5 35.5t-38 21.5t-52 9q-33 -3 -217 -27t-313 -31q-7 -40 -7 -71zM330 1626q0 84 65 149.5t176 65.5
q100 0 151.5 -47.5t51.5 -128.5q0 -83 -66 -150t-176 -67q-101 0 -151.5 48t-50.5 130zM846 1626q0 84 65 149.5t176 65.5q100 0 151.5 -47.5t51.5 -128.5q0 -84 -65.5 -150.5t-175.5 -66.5q-101 0 -152 48.5t-51 129.5z" />
    <glyph glyph-name="Yacute" unicode="&#xdd;" horiz-adv-x="1411" 
d="M-8 1128q11 77 38.5 130.5t69.5 81.5t89 39.5t106 11.5q40 0 76 -9t65.5 -23.5t58.5 -41.5t52 -53t47.5 -69t43 -79.5t42.5 -93.5t41 -101.5t43 -113.5q4 8 38 69t50.5 94.5t34.5 89t18 97.5q0 64 -35 107q40 62 109.5 94.5t148.5 32.5q129 0 198 -67.5t69 -170.5
q0 -70 -32.5 -144t-86 -144.5t-110.5 -136.5t-119 -146t-99 -148q-33 -62 -33 -127q0 -118 43 -241l-88 -22t-93 -23t-77 -18t-74 -14.5t-51 -4.5q-35 0 -61.5 11.5t-43.5 35.5t-28.5 50.5t-17.5 65t-8.5 71t-3.5 77.5v113q0 81 -35 149l-197 397q-94 174 -188 174z
M541 1452q0 37 26 70l297 368q72 -11 137.5 -57t90.5 -111q20 -42 12 -95t-47 -83l-338 -268q-64 22 -121 70t-57 106z" />
    <glyph glyph-name="Thorn" unicode="&#xde;" horiz-adv-x="1380" 
d="M14 1262q0 36 6 71q97 5 184 15t184.5 23t164.5 20q110 0 135 -127h74q649 -17 649 -482q0 -108 -31.5 -194.5t-98.5 -154t-181 -104t-269 -36.5q-44 0 -131 6q11 -124 50 -231q-26 -7 -87 -22.5t-93.5 -23.5t-77.5 -18.5t-75.5 -15t-51.5 -4.5q-34 0 -60.5 12t-43.5 35
t-28.5 50t-17.5 65.5t-8.5 71.5t-3.5 77v698q-96 18 -142.5 93.5t-46.5 175.5zM696 586h60q78 0 125 40.5t47 127.5q0 147 -154 147h-76q-2 9 -2 23v-338z" />
    <glyph glyph-name="germandbls" unicode="&#xdf;" horiz-adv-x="1460" 
d="M131 227v756q0 150 53.5 262.5t147.5 178t209.5 97t251.5 31.5q264 0 427.5 -122.5t163.5 -319.5q0 -130 -69 -240q-135 0 -135 -96q0 -29 17.5 -56t45 -50.5t61.5 -49t67.5 -56.5t61 -67t45 -86.5t17.5 -109.5q0 -60 -25.5 -117t-74.5 -104.5t-130 -76t-182 -28.5
q-389 0 -389 207q0 93 62 170q39 -24 145 -24q61 0 87 14t26 49q0 26 -18 48.5t-46.5 41t-63 37.5t-69 43t-63 52t-46.5 69.5t-18 91.5q0 104 67 177t179 83q0 89 -33.5 129.5t-107.5 40.5q-97 0 -140 -60t-43 -212v-641q10 -147 41 -223q-52 -10 -135 -32t-144 -36t-93 -14
q-38 0 -66 14.5t-43 36t-24.5 56.5t-12.5 64t-4 72z" />
    <glyph glyph-name="agrave" unicode="&#xe0;" 
d="M20 303q0 92 40 161t109 108t151 58t176 19q114 0 223 -33q-3 39 -19.5 66t-44.5 41t-58 19.5t-69 5.5q-91 0 -179.5 -23t-141.5 -66q-48 28 -77.5 76.5t-29.5 104.5q0 117 143.5 183.5t387.5 66.5q109 0 193.5 -11.5t161.5 -42t126.5 -81t79 -131t29.5 -189.5v-215
q0 -86 67 -86q19 0 55 12q27 -73 27 -133q0 -107 -77 -172.5t-203 -65.5q-114 0 -189 43.5t-117 157.5q-107 -195 -372 -201q-82 0 -151.5 19.5t-124 58t-85.5 103t-31 147.5zM355 1496q-8 53 10 95q27 65 91 111t136 57l297 -368q29 -33 29 -70q0 -58 -58 -106t-121 -70
l-338 268q-38 30 -46 83zM508 342q0 -43 24.5 -67.5t65.5 -24.5q121 0 121 180v55q-31 0 -64 -6.5t-68 -21t-57 -44.5t-22 -71z" />
    <glyph glyph-name="aacute" unicode="&#xe1;" 
d="M20 303q0 92 40 161t109 108t151 58t176 19q114 0 223 -33q-3 39 -19.5 66t-44.5 41t-58 19.5t-69 5.5q-91 0 -179.5 -23t-141.5 -66q-48 28 -77.5 76.5t-29.5 104.5q0 117 143.5 183.5t387.5 66.5q109 0 193.5 -11.5t161.5 -42t126.5 -81t79 -131t29.5 -189.5v-215
q0 -86 67 -86q19 0 55 12q27 -73 27 -133q0 -107 -77 -172.5t-203 -65.5q-114 0 -189 43.5t-117 157.5q-107 -195 -372 -201q-82 0 -151.5 19.5t-124 58t-85.5 103t-31 147.5zM408 1319q0 37 26 70l297 368q72 -11 137 -57t90 -111q20 -42 12.5 -95t-46.5 -83l-338 -268
q-64 22 -121 70t-57 106zM508 342q0 -43 24.5 -67.5t65.5 -24.5q121 0 121 180v55q-31 0 -64 -6.5t-68 -21t-57 -44.5t-22 -71z" />
    <glyph glyph-name="acircumflex" unicode="&#xe2;" 
d="M20 303q0 92 40 161t109 108t151 58t176 19q114 0 223 -33q-3 39 -19.5 66t-44.5 41t-58 19.5t-69 5.5q-91 0 -179.5 -23t-141.5 -66q-48 28 -77.5 76.5t-29.5 104.5q0 117 143.5 183.5t387.5 66.5q109 0 193.5 -11.5t161.5 -42t126.5 -81t79 -131t29.5 -189.5v-215
q0 -86 67 -86q19 0 55 12q27 -73 27 -133q0 -107 -77 -172.5t-203 -65.5q-114 0 -189 43.5t-117 157.5q-107 -195 -372 -201q-82 0 -151.5 19.5t-124 58t-85.5 103t-31 147.5zM261 1262q-18 60 50 149l111 135q50 62 89 83.5t107 21.5q149 0 222 -47l247 -320
q-14 -63 -75.5 -101t-132.5 -38q-95 0 -140 61l-98 170l-78 -125q-28 -42 -59 -110q-93 0 -159 30.5t-84 90.5zM508 342q0 -43 24.5 -67.5t65.5 -24.5q121 0 121 180v55q-31 0 -64 -6.5t-68 -21t-57 -44.5t-22 -71z" />
    <glyph glyph-name="atilde" unicode="&#xe3;" 
d="M20 303q0 92 40 161t109 108t151 58t176 19q114 0 223 -33q-3 39 -19.5 66t-44.5 41t-58 19.5t-69 5.5q-91 0 -179.5 -23t-141.5 -66q-48 28 -77.5 76.5t-29.5 104.5q0 117 143.5 183.5t387.5 66.5q109 0 193.5 -11.5t161.5 -42t126.5 -81t79 -131t29.5 -189.5v-215
q0 -86 67 -86q19 0 55 12q27 -73 27 -133q0 -107 -77 -172.5t-203 -65.5q-114 0 -189 43.5t-117 157.5q-107 -195 -372 -201q-82 0 -151.5 19.5t-124 58t-85.5 103t-31 147.5zM213 1311q0 185 215 192q66 0 191.5 -16.5t162.5 -16.5q106 0 140 86q81 -9 127 -57.5t49 -124.5
q0 -96 -64 -145t-170 -49q-56 0 -164 15t-159 15q-115 0 -154 -77q-78 8 -126 56.5t-48 121.5zM508 342q0 -43 24.5 -67.5t65.5 -24.5q121 0 121 180v55q-31 0 -64 -6.5t-68 -21t-57 -44.5t-22 -71z" />
    <glyph glyph-name="adieresis" unicode="&#xe4;" 
d="M20 303q0 92 40 161t109 108t151 58t176 19q114 0 223 -33q-3 39 -19.5 66t-44.5 41t-58 19.5t-69 5.5q-91 0 -179.5 -23t-141.5 -66q-48 28 -77.5 76.5t-29.5 104.5q0 117 143.5 183.5t387.5 66.5q109 0 193.5 -11.5t161.5 -42t126.5 -81t79 -131t29.5 -189.5v-215
q0 -86 67 -86q19 0 55 12q27 -73 27 -133q0 -107 -77 -172.5t-203 -65.5q-114 0 -189 43.5t-117 157.5q-107 -195 -372 -201q-82 0 -151.5 19.5t-124 58t-85.5 103t-31 147.5zM168 1333q0 84 65.5 149.5t176.5 65.5q100 0 151 -47.5t51 -128.5q0 -84 -65.5 -150.5
t-175.5 -66.5q-101 0 -152 48.5t-51 129.5zM508 342q0 -43 24.5 -67.5t65.5 -24.5q121 0 121 180v55q-31 0 -64 -6.5t-68 -21t-57 -44.5t-22 -71zM684 1333q0 84 65.5 149.5t176.5 65.5q100 0 151 -47.5t51 -128.5q0 -84 -65.5 -150.5t-175.5 -66.5q-101 0 -152 48.5
t-51 129.5z" />
    <glyph glyph-name="aring" unicode="&#xe5;" 
d="M20 303q0 92 40 161t109 108t151 58t176 19q114 0 223 -33q-3 39 -19.5 66t-44.5 41t-58 19.5t-69 5.5q-91 0 -179.5 -23t-141.5 -66q-48 28 -77.5 76.5t-29.5 104.5q0 117 143.5 183.5t387.5 66.5q109 0 193.5 -11.5t161.5 -42t126.5 -81t79 -131t29.5 -189.5v-215
q0 -86 67 -86q19 0 55 12q27 -73 27 -133q0 -107 -77 -172.5t-203 -65.5q-114 0 -189 43.5t-117 157.5q-107 -195 -372 -201q-82 0 -151.5 19.5t-124 58t-85.5 103t-31 147.5zM360 1407q0 115 84 194.5t242 79.5q133 0 209 -63.5t76 -185.5q0 -124 -79.5 -195.5
t-232.5 -71.5q-147 0 -223 64.5t-76 177.5zM508 342q0 -43 24.5 -67.5t65.5 -24.5q121 0 121 180v55q-31 0 -64 -6.5t-68 -21t-57 -44.5t-22 -71zM604 1417q0 -74 70 -74q28 0 48.5 21t20.5 59q0 74 -65 74q-30 0 -52 -22t-22 -58z" />
    <glyph glyph-name="ae" unicode="&#xe6;" horiz-adv-x="1904" 
d="M20 303q0 92 40 161t109 108t151 58t176 19q118 0 227 -33q-10 132 -195 132q-91 0 -179.5 -23t-141.5 -66q-48 28 -77.5 76.5t-29.5 104.5q0 117 143.5 183.5t387.5 66.5q282 0 385 -144q57 70 153 107t209 37q95 0 183.5 -23t160 -65.5t114 -110.5t42.5 -152
q0 -82 -45.5 -143t-123.5 -95t-167 -49.5t-190 -15.5q-74 0 -164 17q29 -97 217 -97q200 0 336 88q42 -26 67 -80.5t25 -105.5q0 -72 -42 -127.5t-115.5 -89t-164.5 -50t-196 -16.5q-197 0 -319 47t-191 177q-51 -114 -160.5 -169t-243.5 -55q-105 0 -190.5 37t-138 112.5
t-52.5 178.5zM508 342q0 -43 24.5 -67.5t65.5 -24.5q57 0 89.5 41.5t35.5 124.5q-4 46 -4 69q-33 -1 -65 -7.5t-67 -21t-57 -44t-22 -70.5zM1204 592q123 1 184.5 34.5t61.5 88.5q0 73 -82 73q-79 0 -120 -56.5t-44 -139.5z" />
    <glyph glyph-name="ccedilla" unicode="&#xe7;" horiz-adv-x="1267" 
d="M84 496q0 273 169 433.5t488 160.5q132 0 246.5 -46t182 -126t67.5 -173q0 -84 -56.5 -142t-162.5 -58q-48 0 -94 14q-3 79 -52.5 114.5t-119.5 35.5q-90 0 -135.5 -47t-45.5 -121q0 -83 53 -129.5t164 -46.5q190 0 295 102q50 -33 77.5 -89t27.5 -116
q0 -119 -100.5 -193t-292.5 -89l-13 -64q128 -13 200.5 -83.5t72.5 -168.5q0 -75 -32 -130.5t-88 -87.5t-123.5 -47t-147.5 -15q-248 0 -248 184q0 70 39 123q78 -45 213 -45q86 0 86 35q0 18 -26.5 24t-64 7t-75 6.5t-64 29.5t-26.5 68q0 23 6 53l26 121q-222 36 -334 169
t-112 337z" />
    <glyph glyph-name="egrave" unicode="&#xe8;" horiz-adv-x="1312" 
d="M92 502q0 274 168.5 431t464.5 157q261 0 411 -92t150 -259q0 -82 -45.5 -143t-123.5 -95t-167 -49.5t-190 -15.5q-82 0 -172 17q29 -97 225 -97q200 0 336 88q42 -26 67 -80.5t25 -105.5q0 -72 -42 -127.5t-115.5 -89t-164.5 -50t-196 -16.5q-631 0 -631 527zM373 1484
q-8 53 10 95q27 65 91 111t136 57l297 -369q29 -33 29 -69q0 -58 -57.5 -106t-120.5 -70l-338 268q-39 30 -47 83zM604 592q124 1 189 35t65 88q0 73 -82 73q-80 0 -124.5 -57t-47.5 -139z" />
    <glyph glyph-name="eacute" unicode="&#xe9;" horiz-adv-x="1312" 
d="M92 502q0 274 168.5 431t464.5 157q261 0 411 -92t150 -259q0 -82 -45.5 -143t-123.5 -95t-167 -49.5t-190 -15.5q-82 0 -172 17q29 -97 225 -97q200 0 336 88q42 -26 67 -80.5t25 -105.5q0 -72 -42 -127.5t-115.5 -89t-164.5 -50t-196 -16.5q-631 0 -631 527zM489 1305
q0 35 27 69l297 369q72 -11 137 -57t90 -111q20 -42 12.5 -95t-46.5 -83l-338 -269q-64 22 -121.5 70.5t-57.5 106.5zM604 592q124 1 189 35t65 88q0 73 -82 73q-80 0 -124.5 -57t-47.5 -139z" />
    <glyph glyph-name="ecircumflex" unicode="&#xea;" horiz-adv-x="1312" 
d="M92 502q0 -527 631 -527q105 0 196 16.5t164.5 50t115.5 89t42 127.5q0 51 -25 105.5t-67 80.5q-136 -88 -336 -88q-196 0 -225 97q90 -17 172 -17q101 0 190 15.5t167 49.5t123.5 95t45.5 143q0 167 -150 259t-411 92q-296 0 -464.5 -157t-168.5 -431zM321 1249.5
q-18 60.5 50 149.5l110 135q50 62 89.5 83t107.5 21q148 0 221 -47l248 -319q-14 -63 -75.5 -101t-133.5 -38q-94 0 -139 61l-99 170l-77 -125q-29 -45 -60 -111q-93 0 -158.5 30.5t-83.5 91zM604 592q3 82 47.5 139t124.5 57q82 0 82 -73q0 -54 -65 -88t-189 -35z" />
    <glyph glyph-name="edieresis" unicode="&#xeb;" horiz-adv-x="1312" 
d="M92 502q0 -527 631 -527q105 0 196 16.5t164.5 50t115.5 89t42 127.5q0 51 -25 105.5t-67 80.5q-136 -88 -336 -88q-196 0 -225 97q90 -17 172 -17q101 0 190 15.5t167 49.5t123.5 95t45.5 143q0 167 -150 259t-411 92q-296 0 -464.5 -157t-168.5 -431zM250 1311
q0 84 65.5 149.5t176.5 65.5q100 0 151 -47.5t51 -128.5q0 -84 -65.5 -150.5t-175.5 -66.5q-101 0 -152 48.5t-51 129.5zM604 592q3 82 47.5 139t124.5 57q82 0 82 -73q0 -54 -65 -88t-189 -35zM766 1311q0 84 65.5 149.5t176.5 65.5q100 0 151 -47.5t51 -128.5
q0 -84 -65.5 -150.5t-175.5 -66.5q-101 0 -152 48.5t-51 129.5z" />
    <glyph glyph-name="igrave" unicode="&#xec;" horiz-adv-x="802" 
d="M0 1028q115 4 300.5 30t262.5 32q39 0 66 -13.5t40.5 -30.5t21 -49t8.5 -53.5t1 -58.5v-596q8 -115 52 -223q-45 -9 -145 -32.5t-166 -36.5t-97 -13q-39 0 -67 14.5t-43.5 35.5t-24.5 57t-12 64.5t-4 71.5v523q-52 1 -89 20.5t-56.5 46t-31 67.5t-14 72t-2.5 72zM41 1490
q-8 53 10 95q27 65 91.5 111t136.5 57l296 -369q29 -33 29 -69q0 -58 -57.5 -106t-120.5 -70l-338 268q-39 30 -47 83z" />
    <glyph glyph-name="iacute" unicode="&#xed;" horiz-adv-x="802" 
d="M0 1028q115 4 300.5 30t262.5 32q39 0 66 -13.5t40.5 -30.5t21 -49t8.5 -53.5t1 -58.5v-596q8 -115 52 -223q-45 -9 -145 -32.5t-166 -36.5t-97 -13q-39 0 -67 14.5t-43.5 35.5t-24.5 57t-12 64.5t-4 71.5v523q-52 1 -89 20.5t-56.5 46t-31 67.5t-14 72t-2.5 72zM70 1298
q0 37 26 70l297 369q72 -11 137.5 -57t90.5 -111q20 -42 12 -95t-47 -83l-338 -269q-64 22 -121 70t-57 106z" />
    <glyph glyph-name="icircumflex" unicode="&#xee;" horiz-adv-x="870" 
d="M3 1270q-18 60 50 149l111 135q50 62 89 83.5t107 21.5q149 0 222 -47l247 -320q-14 -63 -75.5 -101t-132.5 -38q-95 0 -140 61l-98 170l-78 -124q-26 -40 -59 -111q-93 0 -159 30.5t-84 90.5zM20 1028q0 -41 2.5 -72t14 -72t31 -67.5t56.5 -46t89 -20.5v-523
q1 -43 4 -72t12.5 -64t25 -56.5t43.5 -36t67 -14.5q31 0 97 13t165.5 36.5t144.5 32.5q-43 105 -51 223v596q0 37 -1 58.5t-8.5 53.5t-21 49t-40.5 30.5t-66 13.5q-77 -6 -262.5 -32t-301.5 -30z" />
    <glyph glyph-name="idieresis" unicode="&#xef;" horiz-adv-x="1011" 
d="M0 1337q0 84 65.5 149.5t176.5 65.5q100 0 151 -47.5t51 -128.5q0 -84 -65.5 -150.5t-175.5 -66.5q-101 0 -152 48.5t-51 129.5zM109 1028q0 -41 2.5 -72t13.5 -72t30.5 -67.5t56.5 -46t89 -20.5v-523q1 -43 4 -72t12.5 -64t25 -56.5t43.5 -36t67 -14.5q31 0 97 13
t165.5 36.5t144.5 32.5q-43 105 -51 223v596q0 37 -1 58.5t-8.5 53.5t-21 49t-40.5 30.5t-66 13.5q-77 -6 -262.5 -32t-300.5 -30zM516 1337q0 84 65.5 149.5t176.5 65.5q100 0 151.5 -47.5t51.5 -128.5q0 -83 -66 -150t-176 -67q-101 0 -152 48.5t-51 129.5z" />
    <glyph glyph-name="eth" unicode="&#xf0;" horiz-adv-x="1316" 
d="M-10 512q0 218 102 342.5t295 124.5q245 0 338 -115q-3 154 -47 238l-174 -92q-44 14 -67 45.5t-23 68.5q0 69 55 101l31 16q-50 12 -111 12q-57 0 -139 -14q-47 60 -47 115q0 67 54 113.5t132 65.5t170 19q226 0 383 -88l105 54q39 20 65 61q52 -20 83.5 -56t31.5 -75
q0 -53 -70 -92l-57 -31q145 -200 145 -582q0 -212 -44 -360.5t-132.5 -238t-211.5 -129.5t-292 -40q-279 0 -427 142t-148 395zM479 518q0 -69 41 -108t92 -39q64 0 103 70.5t43 207.5l2 58q-156 0 -218.5 -48.5t-62.5 -140.5z" />
    <glyph glyph-name="ntilde" unicode="&#xf1;" horiz-adv-x="1488" 
d="M-10 1028q0 -41 2.5 -72t13.5 -72t30.5 -67.5t56.5 -46t89 -20.5v-523q1 -43 4 -72t12.5 -64t25 -56.5t43.5 -36t67 -14.5q31 0 97 13t165.5 36.5t144.5 32.5q-43 105 -51 223v170q1 115 43.5 189.5t97.5 74.5q58 0 58 -86v-348q0 -88 25 -149.5t71.5 -94.5t102 -47
t126.5 -14q58 0 105 10t90.5 33.5t74.5 69t46 110.5q-74 9 -102 39.5t-31 107.5v326q0 204 -84 307t-228 103q-123 0 -225.5 -69.5t-169.5 -201.5v66q0 37 -1 58.5t-8.5 53.5t-21 49t-40.5 30.5t-66 13.5q-77 -6 -262.5 -32t-300.5 -30zM297 1315q0 185 215 192
q66 0 191.5 -16t162.5 -16q106 0 140 86q81 -9 127 -58t49 -125q0 -96 -64 -145t-170 -49q-56 0 -164 15t-159 15q-115 0 -154 -77q-78 8 -126 56.5t-48 121.5z" />
    <glyph glyph-name="ograve" unicode="&#xf2;" 
d="M72 504q0 122 40 226.5t117.5 185.5t201 127.5t280.5 46.5q320 0 474 -140.5t154 -388.5q0 -120 -39 -224.5t-114.5 -185.5t-197 -128t-275.5 -48q-328 0 -484.5 139.5t-156.5 389.5zM361 1486q-8 53 10 95q27 65 91 111t136 57l297 -369q29 -33 29 -69q0 -58 -58 -106
t-121 -70l-337 268q-39 30 -47 83zM559 532q0 -66 37 -115.5t109 -49.5q61 0 103 45t42 120q0 80 -39.5 125t-101.5 45q-64 0 -107 -46.5t-43 -123.5z" />
    <glyph glyph-name="oacute" unicode="&#xf3;" 
d="M72 504q0 122 40 226.5t117.5 185.5t201 127.5t280.5 46.5q320 0 474 -140.5t154 -388.5q0 -120 -39 -224.5t-114.5 -185.5t-197 -128t-275.5 -48q-328 0 -484.5 139.5t-156.5 389.5zM442 1309q0 35 27 69l297 369q72 -11 137 -57t90 -111q20 -42 12 -95t-47 -83
l-337 -268q-64 22 -121.5 70t-57.5 106zM559 532q0 -66 37 -115.5t109 -49.5q61 0 103 45t42 120q0 80 -39.5 125t-101.5 45q-64 0 -107 -46.5t-43 -123.5z" />
    <glyph glyph-name="ocircumflex" unicode="&#xf4;" 
d="M72 504q0 122 40 226.5t117.5 185.5t201 127.5t280.5 46.5q320 0 474 -140.5t154 -388.5q0 -120 -39 -224.5t-114.5 -185.5t-197 -128t-275.5 -48q-328 0 -484.5 139.5t-156.5 389.5zM300 1256q-18 60 50 149l111 135q50 62 89 83.5t107 21.5q148 0 222 -48l247 -319
q-14 -63 -75.5 -101t-132.5 -38q-95 0 -140 61l-98 170l-78 -125q-28 -42 -59 -110q-93 0 -159 30.5t-84 90.5zM559 532q0 -66 37 -115.5t109 -49.5q61 0 103 45t42 120q0 80 -39.5 125t-101.5 45q-64 0 -107 -46.5t-43 -123.5z" />
    <glyph glyph-name="otilde" unicode="&#xf5;" 
d="M72 504q0 122 40 226.5t117.5 185.5t201 127.5t280.5 46.5q320 0 474 -140.5t154 -388.5q0 -120 -39 -224.5t-114.5 -185.5t-197 -128t-275.5 -48q-328 0 -484.5 139.5t-156.5 389.5zM242 1313q0 185 215 192q66 0 191.5 -16t162.5 -16q105 0 139 86q81 -9 127 -58
t49 -125q0 -96 -63.5 -145t-169.5 -49q-56 0 -164.5 15t-159.5 15q-114 0 -153 -77q-78 8 -126 56.5t-48 121.5zM559 532q0 -66 37 -115.5t109 -49.5q61 0 103 45t42 120q0 80 -39.5 125t-101.5 45q-64 0 -107 -46.5t-43 -123.5z" />
    <glyph glyph-name="odieresis" unicode="&#xf6;" 
d="M72 504q0 122 40 226.5t117.5 185.5t201 127.5t280.5 46.5q320 0 474 -140.5t154 -388.5q0 -120 -39 -224.5t-114.5 -185.5t-197 -128t-275.5 -48q-328 0 -484.5 139.5t-156.5 389.5zM223 1309q0 84 65.5 149.5t176.5 65.5q100 0 151.5 -47.5t51.5 -128.5q0 -84 -66 -151
t-176 -67q-101 0 -152 48.5t-51 130.5zM559 532q0 -66 37 -115.5t109 -49.5q61 0 103 45t42 120q0 80 -39.5 125t-101.5 45q-64 0 -107 -46.5t-43 -123.5zM739 1309q0 84 65.5 149.5t176.5 65.5q100 0 151.5 -47.5t51.5 -128.5q0 -84 -66 -151t-176 -67q-101 0 -152 48.5
t-51 130.5z" />
    <glyph glyph-name="divide" unicode="&#xf7;" horiz-adv-x="978" 
d="M14 641q0 -95 47 -207q17 8 36.5 14.5t39.5 10.5t36.5 6t36.5 3t30 1h26h15h454q130 0 181 43t51 127q0 97 -47 209q-76 -37 -220 -37h-454q-130 0 -181 -43t-51 -127zM268 215q0 77 64.5 139t173.5 62q99 0 150 -45.5t51 -122.5q0 -78 -64.5 -139.5t-173.5 -61.5
q-100 0 -150.5 45.5t-50.5 122.5zM268 1034q0 77 64.5 139t173.5 62q99 0 150 -45.5t51 -122.5q0 -78 -64.5 -139.5t-173.5 -61.5q-100 0 -150.5 45.5t-50.5 122.5z" />
    <glyph glyph-name="oslash" unicode="&#xf8;" 
d="M72 504q0 122 40 226.5t117.5 185.5t201 127.5t280.5 46.5q43 0 80 -3l20 56q51 129 180 129q44 0 94 -23t70 -61q-10 -20 -72 -172q256 -128 256 -455q0 -120 -39 -224.5t-114.5 -185.5t-197 -128t-275.5 -48h-15l-24 -71q-45 -129 -166 -129q-46 0 -102 23t-76 59
q8 19 29.5 74.5t35.5 88.5q-323 112 -323 484zM559 532q0 -66 37 -115.5t109 -49.5q61 0 103 45t42 120q0 80 -39.5 125t-101.5 45q-64 0 -107 -46.5t-43 -123.5z" />
    <glyph glyph-name="ugrave" unicode="&#xf9;" horiz-adv-x="1456" 
d="M-10 1028q115 4 300.5 30t262.5 32q39 0 66 -13.5t40.5 -30.5t21 -49t8.5 -53.5t1 -58.5v-457q0 -86 72 -86q45 0 74.5 55.5t29.5 151.5v237q-8 117 -49 222q359 82 408 82q28 0 50.5 -7.5t37.5 -19t26 -31t17 -37.5t10 -45t5.5 -47.5t2.5 -50.5v-563q8 -118 51 -223
q-45 -9 -144.5 -32.5t-165.5 -36.5t-97 -13q-39 0 -67 14.5t-43.5 36t-25 56.5t-12.5 64t-4 72v23q-71 -143 -159 -209t-213 -66q-145 0 -228.5 95.5t-83.5 296.5v383q-52 1 -89 20.5t-56.5 46t-30.5 67.5t-13.5 72t-2.5 72zM369 1431q-8 53 10 95q27 65 91 111t136 57
l297 -369q29 -33 29 -70q0 -58 -57.5 -106t-120.5 -70l-338 269q-39 30 -47 83z" />
    <glyph glyph-name="uacute" unicode="&#xfa;" horiz-adv-x="1456" 
d="M-10 1028q115 4 300.5 30t262.5 32q39 0 66 -13.5t40.5 -30.5t21 -49t8.5 -53.5t1 -58.5v-457q0 -86 72 -86q45 0 74.5 55.5t29.5 151.5v237q-8 117 -49 222q359 82 408 82q28 0 50.5 -7.5t37.5 -19t26 -31t17 -37.5t10 -45t5.5 -47.5t2.5 -50.5v-563q8 -118 51 -223
q-45 -9 -144.5 -32.5t-165.5 -36.5t-97 -13q-39 0 -67 14.5t-43.5 36t-25 56.5t-12.5 64t-4 72v23q-71 -143 -159 -209t-213 -66q-145 0 -228.5 95.5t-83.5 296.5v383q-52 1 -89 20.5t-56.5 46t-30.5 67.5t-13.5 72t-2.5 72zM588 1255q0 37 26 70l297 369q72 -11 137.5 -57
t90.5 -111q20 -42 12 -95t-47 -83l-338 -269q-64 22 -121 70t-57 106z" />
    <glyph glyph-name="ucircumflex" unicode="&#xfb;" horiz-adv-x="1456" 
d="M-10 1028q0 -41 2.5 -72t13.5 -72t30.5 -67.5t56.5 -46t89 -20.5v-383q0 -201 83.5 -296.5t228.5 -95.5q125 0 213 66t159 209v-23q1 -43 4 -72t12.5 -64t25 -56.5t43.5 -36t67 -14.5q31 0 97 13t165.5 36.5t144.5 32.5q-43 105 -51 223v563q-1 30 -2.5 50.5t-5.5 47.5
t-10 45t-17 37.5t-26 31t-37.5 19t-50.5 7.5q-49 0 -408 -82q41 -105 49 -222v-237q0 -96 -29.5 -151.5t-74.5 -55.5q-72 0 -72 86v457q0 37 -1 58.5t-8.5 53.5t-21 49t-40.5 30.5t-66 13.5q-77 -6 -262.5 -32t-300.5 -30zM337 1270q-18 60 50 149l111 135q50 62 89 83.5
t107 21.5q148 0 221 -47l248 -320q-14 -63 -75.5 -101t-133.5 -38q-94 0 -139 61l-98 170l-78 -124q-26 -40 -59 -111q-93 0 -159 30.5t-84 90.5z" />
    <glyph glyph-name="udieresis" unicode="&#xfc;" horiz-adv-x="1456" 
d="M-10 1028q0 -41 2.5 -72t13.5 -72t30.5 -67.5t56.5 -46t89 -20.5v-383q0 -201 83.5 -296.5t228.5 -95.5q125 0 213 66t159 209v-23q1 -43 4 -72t12.5 -64t25 -56.5t43.5 -36t67 -14.5q31 0 97 13t165.5 36.5t144.5 32.5q-43 105 -51 223v563q-1 30 -2.5 50.5t-5.5 47.5
t-10 45t-17 37.5t-26 31t-37.5 19t-50.5 7.5q-49 0 -408 -82q41 -105 49 -222v-237q0 -96 -29.5 -151.5t-74.5 -55.5q-72 0 -72 86v457q0 37 -1 58.5t-8.5 53.5t-21 49t-40.5 30.5t-66 13.5q-77 -6 -262.5 -32t-300.5 -30zM256 1335q0 84 65.5 149.5t176.5 65.5
q100 0 151 -47.5t51 -128.5q0 -84 -65.5 -150.5t-175.5 -66.5q-101 0 -152 48.5t-51 129.5zM772 1335q0 84 65.5 149.5t176.5 65.5q100 0 151.5 -47.5t51.5 -128.5q0 -83 -66 -150t-176 -67q-101 0 -152 48.5t-51 129.5z" />
    <glyph glyph-name="yacute" unicode="&#xfd;" horiz-adv-x="1409" 
d="M-10 1028q115 4 300.5 30t262.5 32q39 0 66 -13.5t40.5 -30.5t21 -49t8.5 -53.5t1 -58.5v-457q0 -86 72 -86q46 0 77 56t31 151v237q-9 124 -47 222q35 8 79.5 18t69.5 16t57 13.5t50 11.5t40 8.5t34.5 6.5t26 4t22.5 3t17 1q28 0 50.5 -7.5t37.5 -19t26 -31t17 -37.5
t10 -45t5.5 -47.5t2.5 -50.5v-262q0 -136 -7 -252t-27 -240.5t-52 -223.5t-85 -190t-124 -151.5t-171.5 -96.5t-223.5 -36q-171 0 -265 83t-94 206q0 67 31 119t90 81q68 -59 168 -59q64 0 112.5 29.5t76 74t45 105t23 113t5.5 108.5q-73 -155 -161.5 -220t-214.5 -65
q-146 0 -229 95t-83 297v383q-52 1 -89 20.5t-56.5 46t-30.5 67.5t-13.5 72t-2.5 72zM592 1255q0 37 26 70l297 369q72 -11 137.5 -57t90.5 -111q20 -42 12 -95t-47 -83l-338 -269q-64 22 -121 70t-57 106z" />
    <glyph glyph-name="thorn" unicode="&#xfe;" horiz-adv-x="1390" 
d="M41 1409q65 13 235 68t205 55q48 0 80 -26.5t46.5 -74t19.5 -89t6 -95.5v-418q107 263 350 263q84 0 150.5 -28t110 -76t72.5 -115.5t41.5 -142t12.5 -159.5q-6 -277 -131.5 -436.5t-316.5 -159.5q-98 0 -167 14.5t-122 63.5v-266q3 -80 33 -118.5t100 -47.5
q-16 -66 -45.5 -111t-70.5 -68t-83.5 -32.5t-95.5 -9.5q-157 0 -248.5 110.5t-91.5 339.5v1213q0 218 -90 346zM641 588q0 -43 6 -80.5t20 -71.5t41 -54t64 -20q55 0 86 42.5t31 101.5q0 82 -51.5 134t-124.5 52q-35 0 -72 -12v-92z" />
    <glyph glyph-name="ydieresis" unicode="&#xff;" horiz-adv-x="1409" 
d="M-10 1028q0 -41 2.5 -72t13.5 -72t30.5 -67.5t56.5 -46t89 -20.5v-383q0 -202 83 -297t229 -95q126 0 214.5 65t161.5 220q0 -56 -5.5 -108.5t-23 -113t-45 -105t-76 -74t-112.5 -29.5q-100 0 -168 59q-59 -29 -90 -81t-31 -119q0 -123 94 -206t265 -83q123 0 223.5 36
t171.5 96.5t124 151.5t85 190t52 223.5t27 240.5t7 252v262q-1 30 -2.5 50.5t-5.5 47.5t-10 45t-17 37.5t-26 31t-37.5 19t-50.5 7.5q-8 0 -17 -1t-22.5 -3t-26 -4t-34.5 -6.5t-40 -8.5t-50 -11.5t-57 -13.5t-69.5 -16t-79.5 -18q38 -98 47 -222v-237q0 -95 -31 -151
t-77 -56q-72 0 -72 86v457q0 37 -1 58.5t-8.5 53.5t-21 49t-40.5 30.5t-66 13.5q-77 -6 -262.5 -32t-300.5 -30zM260 1339q0 84 65.5 149.5t176.5 65.5q100 0 151.5 -47.5t51.5 -128.5q0 -83 -66 -150t-176 -67q-101 0 -152 48.5t-51 129.5zM776 1339q0 84 65.5 149.5
t176.5 65.5q100 0 151.5 -47.5t51.5 -128.5q0 -83 -66 -150t-176 -67q-101 0 -152 48.5t-51 129.5z" />
    <glyph glyph-name="Amacron" unicode="&#x100;" horiz-adv-x="1372" 
d="M55.5 168q6.5 42 24.5 84l260 620q46 108 86 162q-96 -4 -150 -10q-51 104 -51 193q0 85 67 129.5t218 44.5h369q104 0 163 -44.5t95 -152.5l303 -911q45 -136 86 -224q-233 -75 -344 -75q-74 0 -120 40.5t-79 139.5l-27 82h-448l-94 -246h-226q-57 0 -90.5 24.5t-41 63
t-1 80.5zM344 1657q0 78 48 123t140 45q51 0 213 -10.5t187 -10.5q80 0 127 19q43 -71 43 -150q0 -76 -46 -120.5t-132 -47.5q-57 0 -221 10.5t-189 10.5q-80 0 -127 -19q-43 76 -43 150zM637 586q-10 -35 22 -35h197l-104 336z" />
    <glyph glyph-name="amacron" unicode="&#x101;" 
d="M20 303q0 92 40 161t109 108t151 58t176 19q114 0 223 -33q-3 39 -19.5 66t-44.5 41t-58 19.5t-69 5.5q-91 0 -179.5 -23t-141.5 -66q-48 28 -77.5 76.5t-29.5 104.5q0 117 143.5 183.5t387.5 66.5q109 0 193.5 -11.5t161.5 -42t126.5 -81t79 -131t29.5 -189.5v-215
q0 -86 67 -86q19 0 55 12q27 -73 27 -133q0 -107 -77 -172.5t-203 -65.5q-114 0 -189 43.5t-117 157.5q-107 -195 -372 -201q-82 0 -151.5 19.5t-124 58t-85.5 103t-31 147.5zM301 1335q0 78 48 123t140 45q51 0 213 -10t187 -10q82 0 127 18q43 -71 43 -149
q0 -76 -46 -120.5t-132 -47.5q-57 0 -221 10t-189 10q-82 0 -127 -18q-43 76 -43 149zM508 342q0 -43 24.5 -67.5t65.5 -24.5q121 0 121 180v55q-31 0 -64 -6.5t-68 -21t-57 -44.5t-22 -71z" />
    <glyph glyph-name="Abreve" unicode="&#x102;" horiz-adv-x="1372" 
d="M55.5 168q-6.5 -42 1 -80.5t41 -63t90.5 -24.5h226l94 246h448l27 -82q33 -99 79 -139.5t120 -40.5q111 0 344 75q-41 88 -86 224l-303 911q-36 108 -95 152.5t-163 44.5h-369q-151 0 -218 -44.5t-67 -129.5q0 -89 51 -193q54 6 150 10q-40 -54 -86 -162l-260 -620
q-18 -42 -24.5 -84zM334 1718q0 67 44 115.5t134 56.5q49 -61 108.5 -92t116.5 -31t117 31t111 92q87 -9 131.5 -57t44.5 -115q0 -110 -113 -186.5t-291 -77.5q-178 1 -290.5 77.5t-112.5 186.5zM637 586l115 301l104 -336h-197q-32 0 -22 35z" />
    <glyph glyph-name="abreve" unicode="&#x103;" 
d="M20 303q0 92 40 161t109 108t151 58t176 19q114 0 223 -33q-3 39 -19.5 66t-44.5 41t-58 19.5t-69 5.5q-91 0 -179.5 -23t-141.5 -66q-48 28 -77.5 76.5t-29.5 104.5q0 117 143.5 183.5t387.5 66.5q109 0 193.5 -11.5t161.5 -42t126.5 -81t79 -131t29.5 -189.5v-215
q0 -86 67 -86q19 0 55 12q27 -73 27 -133q0 -107 -77 -172.5t-203 -65.5q-114 0 -189 43.5t-117 157.5q-107 -195 -372 -201q-82 0 -151.5 19.5t-124 58t-85.5 103t-31 147.5zM270 1419q0 67 44.5 115.5t134.5 56.5q49 -61 108.5 -92t116.5 -31q56 0 116 31t111 92
q87 -9 131.5 -57t44.5 -115q0 -110 -112.5 -186.5t-290.5 -77.5q-178 1 -291 77.5t-113 186.5zM508 342q0 -43 24.5 -67.5t65.5 -24.5q121 0 121 180v55q-31 0 -64 -6.5t-68 -21t-57 -44.5t-22 -71z" />
    <glyph glyph-name="Aogonek" unicode="&#x104;" horiz-adv-x="1372" 
d="M51 129q0 52 29 123l260 620q46 108 86 162q-96 -4 -150 -10q-51 104 -51 193q0 85 67 129.5t218 44.5h369q104 0 163 -44.5t95 -152.5l303 -911q45 -136 86 -224q-51 -14 -79.5 -23.5t-64.5 -26.5t-54.5 -35.5t-32 -46.5t-13.5 -64q0 -35 19 -57.5t57 -22.5q42 0 76 12
q36 -59 36 -110q0 -96 -76.5 -150.5t-217.5 -54.5q-118 0 -185 62.5t-67 160.5q0 166 172 297q-72 37 -113 164l-27 82h-448l-94 -246h-226q-72 0 -104.5 35.5t-32.5 93.5zM637 586q-10 -35 22 -35h197l-104 336z" />
    <glyph glyph-name="aogonek" unicode="&#x105;" 
d="M20 303q0 92 40 161t109 108t151 58t176 19q114 0 223 -33q-3 39 -19.5 66t-44.5 41t-58 19.5t-69 5.5q-91 0 -179.5 -23t-141.5 -66q-48 28 -77.5 76.5t-29.5 104.5q0 117 143.5 183.5t387.5 66.5q109 0 193.5 -11.5t161.5 -42t126.5 -81t79 -131t29.5 -189.5v-215
q0 -86 67 -86q19 0 55 12q27 -73 27 -133q0 -44 -15 -81t-37 -60.5t-48.5 -48.5t-48.5 -45.5t-37 -51.5t-15 -67q0 -32 18.5 -54t57.5 -22q41 0 76 12q37 -61 37 -110q0 -96 -77 -150.5t-218 -54.5q-118 0 -185 62.5t-67 160.5q0 159 156 287q-63 18 -108 62t-75 124
q-107 -195 -372 -201q-82 0 -151.5 19.5t-124 58t-85.5 103t-31 147.5zM508 342q0 -43 24.5 -67.5t65.5 -24.5q121 0 121 180v55q-31 0 -64 -6.5t-68 -21t-57 -44.5t-22 -71z" />
    <glyph glyph-name="Cacute" unicode="&#x106;" horiz-adv-x="1308" 
d="M94 641q0 130 25 242t81 208t138.5 163.5t203.5 106t271 38.5q76 0 145 -9t135 -31.5t114 -56.5t77 -88t29 -122q0 -75 -42 -138t-118 -90q-182 103 -324 103q-111 0 -176 -66.5t-65 -212.5q0 -123 61.5 -191.5t188.5 -68.5q80 0 154 20t113.5 40t96.5 55
q60 -32 91.5 -95t31.5 -133q0 -74 -34.5 -134t-89.5 -97.5t-127.5 -63t-144 -35.5t-143.5 -10q-348 3 -520 178.5t-172 487.5zM561 1616q0 36 27 70l297 368q72 -11 137 -57t90 -111q20 -42 12 -95t-47 -83l-338 -268q-64 22 -121 70t-57 106z" />
    <glyph glyph-name="cacute" unicode="&#x107;" horiz-adv-x="1263" 
d="M84 502q0 131 40 238t118.5 185.5t201.5 121.5t281 43q133 0 250 -46.5t187.5 -127.5t70.5 -175q0 -83 -55.5 -139.5t-159.5 -56.5q-48 0 -94 14q-3 54 -33 89.5t-68 48t-82 12.5q-88 0 -129 -48t-41 -122q0 -174 220 -174q190 0 292 102q51 -33 80 -90t29 -119
q0 -131 -123.5 -207t-357.5 -76q-310 0 -468.5 141t-158.5 386zM469 1309q0 35 27 69l297 369q72 -11 137 -57t90 -111q20 -42 12 -95t-47 -83l-338 -268q-64 22 -121 70t-57 106z" />
    <glyph glyph-name="Ccircumflex" unicode="&#x108;" horiz-adv-x="1308" 
d="M94 641q0 -312 172 -487.5t520 -178.5q72 0 143.5 10t144 35.5t127.5 63t89.5 97.5t34.5 134q0 70 -31.5 133t-91.5 95q-57 -35 -96.5 -55t-113.5 -40t-154 -20q-127 0 -188.5 68.5t-61.5 191.5q0 146 65 212.5t176 66.5q142 0 324 -103q76 27 118 90t42 138
q0 68 -29 122t-77 88t-114 56.5t-135 31.5t-145 9q-150 0 -271 -38.5t-203.5 -106t-138.5 -163.5t-81 -208t-25 -242zM370.5 1608q9.5 45 49.5 96l110 135q50 62 89.5 83.5t107.5 21.5q147 0 221 -48l248 -319q-14 -63 -75.5 -101t-133.5 -38q-94 0 -139 61l-98 170
l-78 -125q-31 -47 -60 -110q-54 0 -101 10.5t-82 33.5t-51.5 54t-7 76z" />
    <glyph glyph-name="ccircumflex" unicode="&#x109;" horiz-adv-x="1267" 
d="M84 502q0 -245 158.5 -386t468.5 -141q234 0 357.5 76t123.5 207q0 62 -29 119t-80 90q-102 -102 -292 -102q-220 0 -220 174q0 74 41 122t129 48q44 0 82 -12.5t68 -48t33 -89.5q46 -14 94 -14q104 0 159.5 56.5t55.5 139.5q0 94 -70.5 175t-187.5 127.5t-250 46.5
q-158 0 -281 -43t-201.5 -121.5t-118.5 -185.5t-40 -238zM280 1247.5q-18 60.5 50 149.5l110 135q50 62 89.5 83t107.5 21q148 0 221 -47l248 -319q-14 -63 -76 -101.5t-133 -38.5q-93 0 -139 62l-99 170l-77 -125q-29 -45 -60 -111q-93 0 -158.5 30.5t-83.5 91z" />
    <glyph glyph-name="Cdotaccent" unicode="&#x10a;" horiz-adv-x="1308" 
d="M94 641q0 -312 172 -487.5t520 -178.5q72 0 143.5 10t144 35.5t127.5 63t89.5 97.5t34.5 134q0 70 -31.5 133t-91.5 95q-57 -35 -96.5 -55t-113.5 -40t-154 -20q-127 0 -188.5 68.5t-61.5 191.5q0 146 65 212.5t176 66.5q142 0 324 -103q76 27 118 90t42 138
q0 68 -29 122t-77 88t-114 56.5t-135 31.5t-145 9q-150 0 -271 -38.5t-203.5 -106t-138.5 -163.5t-81 -208t-25 -242zM520 1665q0 98 74 172t199 74q114 0 172.5 -54.5t58.5 -146.5q0 -96 -74.5 -171t-199.5 -75q-113 0 -171.5 54t-58.5 147z" />
    <glyph glyph-name="cdotaccent" unicode="&#x10b;" horiz-adv-x="1263" 
d="M84 502q0 -245 158.5 -386t468.5 -141q234 0 357.5 76t123.5 207q0 62 -29 119t-80 90q-102 -102 -292 -102q-220 0 -220 174q0 74 41 122t129 48q44 0 82 -12.5t68 -48t33 -89.5q46 -14 94 -14q104 0 159.5 56.5t55.5 139.5q0 94 -70.5 175t-187.5 127.5t-250 46.5
q-158 0 -281 -43t-201.5 -121.5t-118.5 -185.5t-40 -238zM457 1354q0 98 73.5 171.5t198.5 73.5q114 0 173 -54t59 -146q0 -96 -75 -171t-200 -75q-113 0 -171 54t-58 147z" />
    <glyph glyph-name="Ccaron" unicode="&#x10c;" horiz-adv-x="1308" 
d="M94 641q0 -312 172 -487.5t520 -178.5q72 0 143.5 10t144 35.5t127.5 63t89.5 97.5t34.5 134q0 70 -31.5 133t-91.5 95q-57 -35 -96.5 -55t-113.5 -40t-154 -20q-127 0 -188.5 68.5t-61.5 191.5q0 146 65 212.5t176 66.5q142 0 324 -103q76 27 118 90t42 138
q0 68 -29 122t-77 88t-114 56.5t-135 31.5t-145 9q-150 0 -271 -38.5t-203.5 -106t-138.5 -163.5t-81 -208t-25 -242zM348 1839q14 63 75.5 101t133.5 38q94 0 139 -61l97 -178l81 125q31 47 60 110q54 0 101 -10.5t82 -33.5t51.5 -54t7 -76t-49.5 -96l-114 -135
q-53 -62 -91.5 -83.5t-105.5 -21.5q-148 0 -221 47z" />
    <glyph glyph-name="ccaron" unicode="&#x10d;" horiz-adv-x="1263" 
d="M84 502q0 -245 158.5 -386t468.5 -141q234 0 357.5 76t123.5 207q0 62 -29 119t-80 90q-102 -102 -292 -102q-220 0 -220 174q0 74 41 122t129 48q44 0 82 -12.5t68 -48t33 -89.5q46 -14 94 -14q104 0 159.5 56.5t55.5 139.5q0 94 -70.5 175t-187.5 127.5t-250 46.5
q-158 0 -281 -43t-201.5 -121.5t-118.5 -185.5t-40 -238zM264 1520q14 63 75.5 101t133.5 38q93 0 139 -62l97 -178l82 125q26 40 59 111q93 0 158.5 -30.5t83.5 -91t-50 -149.5l-114 -135q-52 -62 -91 -83t-106 -21q-148 0 -221 47z" />
    <glyph glyph-name="Dcaron" unicode="&#x10e;" horiz-adv-x="1476" 
d="M25 1210q0 47 17.5 81t44 53t66.5 30t75.5 14t80.5 3h428q201 0 351.5 -46.5t244 -133.5t139.5 -206t46 -270q0 -194 -59.5 -338t-170.5 -231.5t-261 -129.5t-341 -42h-192q-66 0 -112.5 18.5t-72 45.5t-40 72.5t-18.5 82t-5 92.5v723q-80 0 -156 -10q-65 92 -65 192z
M248 1843q14 63 75.5 101t133.5 38q94 0 139 -61l96 -178l82 125q31 47 60 110q54 0 101 -10.5t82 -33.5t51.5 -54t7 -76t-49.5 -96l-115 -135q-53 -62 -91 -83.5t-105 -21.5q-147 0 -221 48zM733 332h31q72 0 127.5 31.5t87.5 85.5t47.5 117t15.5 134q0 164 -70.5 246
t-193.5 82h-45v-696z" />
    <glyph glyph-name="dcaron" unicode="&#x10f;" horiz-adv-x="1613" 
d="M61 504q0 122 31 227.5t90 186t152.5 126.5t210.5 46q160 0 264 -101v168q-4 105 -23 166.5t-49 110.5q103 21 203 46.5t149.5 38.5t69.5 13q33 0 58 -9t41 -28.5t26 -41.5t15.5 -57t8 -65.5t3.5 -75.5v-962q8 -112 51 -227q-75 -12 -200.5 -47t-164.5 -35
q-46 0 -76.5 20t-44.5 58t-19 75t-5 88q-122 -250 -365 -250q-107 0 -189.5 40.5t-133.5 113t-77 167.5t-26 208zM543 584q0 -86 52 -134.5t132 -48.5q35 0 82 13v82q0 223 -137 223q-59 0 -94 -38.5t-35 -96.5zM1350 1008q61 28 99 74.5t38 103.5q0 36 -26.5 93.5
t-26.5 86.5q0 74 69 120t150 46q76 0 130 -39.5t77.5 -96.5t23.5 -122q0 -95 -44.5 -180t-126.5 -138t-181 -53q-134 0 -182 105z" />
    <glyph glyph-name="Dcroat" unicode="&#x110;" horiz-adv-x="1476" 
d="M25 1210q0 47 17.5 81t44 53t66.5 30t75.5 14t80.5 3h428q201 0 351.5 -46.5t244 -133.5t139.5 -206t46 -270q0 -194 -59.5 -338t-170.5 -231.5t-261 -129.5t-341 -42h-192q-66 0 -112.5 18.5t-72 45.5t-40 72.5t-18.5 82t-5 92.5v260h-53q-48 0 -109 -14q-49 59 -49 127
q0 117 166 117h45v233q-80 0 -156 -10q-65 92 -65 192zM733 332h31q72 0 127.5 31.5t87.5 85.5t47.5 117t15.5 134q0 164 -70.5 246t-193.5 82h-45v-233h47q48 0 109 14q49 -59 49 -127q0 -117 -166 -117h-39v-233z" />
    <glyph glyph-name="dcroat" unicode="&#x111;" horiz-adv-x="1533" 
d="M61 504q0 122 31 227.5t90 186t152.5 126.5t210.5 46q160 0 264 -101v158h-205q-47 0 -108 -14q-50 60 -50 116q0 117 166 117h197v82q82 18 165.5 40.5t125 33t59.5 10.5q70 0 103 -42.5t43 -123.5h30q48 0 109 14q49 -59 49 -123q0 -55 -38.5 -82.5t-127.5 -27.5h-16
v-854q8 -112 51 -227q-75 -12 -200.5 -47t-164.5 -35q-46 0 -76.5 20t-44.5 58t-19 75t-5 88q-122 -250 -365 -250q-107 0 -189.5 40.5t-133.5 113t-77 167.5t-26 208zM543 584q0 -86 52 -134.5t132 -48.5q35 0 82 13v82q0 223 -137 223q-59 0 -94 -38.5t-35 -96.5z" />
    <glyph glyph-name="Emacron" unicode="&#x112;" horiz-adv-x="1308" 
d="M14 1210q0 79 55.5 130t159.5 51h768q136 0 215 20q64 -87 64 -203q0 -36 -9 -64t-23 -47t-36.5 -32t-44 -20t-51.5 -11t-52.5 -5t-53.5 -1h-279v-129q0 -23 6.5 -30t24.5 -7h354q27 -69 27 -137q0 -193 -256 -193h-156v-133q0 -23 6.5 -30t24.5 -7h252q109 0 215 27
q63 -85 63 -209q0 -36 -9 -64t-23 -47t-36.5 -32t-44 -20t-51.5 -11t-52.5 -5t-53.5 -1h-555q-52 0 -89 8t-70.5 30t-50.5 67t-17 114v809q-80 0 -156 -10q-66 94 -66 192zM293 1657q0 78 48 123t140 45q51 0 213 -10.5t187 -10.5q79 0 127 19q43 -71 43 -150
q0 -76 -46 -120.5t-133 -47.5q-57 0 -220.5 10.5t-188.5 10.5q-79 0 -127 -19q-43 76 -43 150z" />
    <glyph glyph-name="emacron" unicode="&#x113;" horiz-adv-x="1312" 
d="M92 502q0 274 168.5 431t464.5 157q261 0 411 -92t150 -259q0 -82 -45.5 -143t-123.5 -95t-167 -49.5t-190 -15.5q-82 0 -172 17q29 -97 225 -97q200 0 336 88q42 -26 67 -80.5t25 -105.5q0 -72 -42 -127.5t-115.5 -89t-164.5 -50t-196 -16.5q-631 0 -631 527zM326 1325
q0 78 48 123t140 45q51 0 212.5 -10t186.5 -10q82 0 127 18q43 -71 43 -150q0 -76 -45.5 -120t-132.5 -47q-57 0 -220.5 10t-188.5 10q-82 0 -127 -18q-43 76 -43 149zM604 592q124 1 189 35t65 88q0 73 -82 73q-80 0 -124.5 -57t-47.5 -139z" />
    <glyph glyph-name="Ebreve" unicode="&#x114;" horiz-adv-x="1308" 
d="M14 1210q0 -98 66 -192q76 10 156 10v-809q0 -69 17 -114t50.5 -67t70.5 -30t89 -8h555q31 0 53.5 1t52.5 5t51.5 11t44 20t36.5 32t23 47t9 64q0 124 -63 209q-106 -27 -215 -27h-252q-18 0 -24.5 7t-6.5 30v133h156q256 0 256 193q0 68 -27 137h-354q-18 0 -24.5 7
t-6.5 30v129h279q31 0 53.5 1t52.5 5t51.5 11t44 20t36.5 32t23 47t9 64q0 116 -64 203q-79 -20 -215 -20h-768q-104 0 -159.5 -51t-55.5 -130zM279 1716q0 67 44 115.5t134 56.5q49 -61 108.5 -92t116.5 -31q56 0 116 31t111 92q87 -9 131.5 -57t44.5 -115
q0 -110 -112.5 -186.5t-290.5 -77.5q-178 1 -290.5 77.5t-112.5 186.5z" />
    <glyph glyph-name="ebreve" unicode="&#x115;" horiz-adv-x="1312" 
d="M92 502q0 -527 631 -527q105 0 196 16.5t164.5 50t115.5 89t42 127.5q0 51 -25 105.5t-67 80.5q-136 -88 -336 -88q-196 0 -225 97q90 -17 172 -17q101 0 190 15.5t167 49.5t123.5 95t45.5 143q0 167 -150 259t-411 92q-296 0 -464.5 -157t-168.5 -431zM324 1421
q0 67 44 115.5t134 56.5q49 -61 108.5 -92t116.5 -31q56 0 116 31t111 92q87 -9 131.5 -57t44.5 -115q0 -110 -112.5 -186.5t-290.5 -77.5q-178 1 -290.5 77.5t-112.5 186.5zM604 592q3 82 47.5 139t124.5 57q82 0 82 -73q0 -54 -65 -88t-189 -35z" />
    <glyph glyph-name="Edotaccent" unicode="&#x116;" horiz-adv-x="1308" 
d="M14 1210q0 -98 66 -192q76 10 156 10v-809q0 -69 17 -114t50.5 -67t70.5 -30t89 -8h555q31 0 53.5 1t52.5 5t51.5 11t44 20t36.5 32t23 47t9 64q0 124 -63 209q-106 -27 -215 -27h-252q-18 0 -24.5 7t-6.5 30v133h156q256 0 256 193q0 68 -27 137h-354q-18 0 -24.5 7
t-6.5 30v129h279q31 0 53.5 1t52.5 5t51.5 11t44 20t36.5 32t23 47t9 64q0 116 -64 203q-79 -20 -215 -20h-768q-104 0 -159.5 -51t-55.5 -130zM430 1655q0 98 73.5 172t198.5 74q114 0 173 -54.5t59 -146.5q0 -96 -75 -171t-200 -75q-113 0 -171 54t-58 147z" />
    <glyph glyph-name="edotaccent" unicode="&#x117;" horiz-adv-x="1312" 
d="M92 502q0 -527 631 -527q105 0 196 16.5t164.5 50t115.5 89t42 127.5q0 51 -25 105.5t-67 80.5q-136 -88 -336 -88q-196 0 -225 97q90 -17 172 -17q101 0 190 15.5t167 49.5t123.5 95t45.5 143q0 167 -150 259t-411 92q-296 0 -464.5 -157t-168.5 -431zM489 1350
q0 98 74 171.5t199 73.5q114 0 172.5 -54t58.5 -146q0 -96 -74.5 -171t-199.5 -75q-113 0 -171.5 54t-58.5 147zM604 592q3 82 47.5 139t124.5 57q82 0 82 -73q0 -54 -65 -88t-189 -35z" />
    <glyph glyph-name="Eogonek" unicode="&#x118;" horiz-adv-x="1308" 
d="M14 1210q0 79 55.5 130t159.5 51h768q136 0 215 20q64 -87 64 -203q0 -36 -9 -64t-23 -47t-36.5 -32t-44 -20t-51.5 -11t-52.5 -5t-53.5 -1h-279v-129q0 -23 6.5 -30t24.5 -7h354q27 -69 27 -137q0 -193 -256 -193h-156v-133q0 -23 6.5 -30t24.5 -7h252q109 0 215 27
q63 -85 63 -209q0 -45 -14 -78.5t-35.5 -52t-54 -30t-62 -15t-67.5 -4.5q-46 -4 -72.5 -49t-26.5 -92q0 -32 18.5 -54t57.5 -22q42 0 76 12q37 -61 37 -110q0 -96 -77 -150.5t-218 -54.5q-118 0 -185 62.5t-67 160.5q0 165 170 297h-305q-52 0 -89 8t-70.5 30t-50.5 67
t-17 114v809q-80 0 -156 -10q-66 94 -66 192z" />
    <glyph glyph-name="eogonek" unicode="&#x119;" horiz-adv-x="1312" 
d="M92 502q0 274 168.5 431t464.5 157q261 0 411 -92t150 -259q0 -82 -45.5 -143t-123.5 -95t-167 -49.5t-190 -15.5q-82 0 -172 17q29 -97 225 -97q200 0 336 88q42 -26 67 -80.5t25 -105.5q0 -115 -101 -183.5t-266 -88.5q-51 -62 -51 -127q0 -32 18.5 -54t57.5 -22
q41 0 76 12q37 -61 37 -110q0 -96 -77 -150.5t-218 -54.5q-118 0 -185 62.5t-67 160.5q0 155 145 279q-518 43 -518 520zM604 592q124 1 189 35t65 88q0 73 -82 73q-80 0 -124.5 -57t-47.5 -139z" />
    <glyph glyph-name="Ecaron" unicode="&#x11a;" horiz-adv-x="1308" 
d="M14 1210q0 -98 66 -192q76 10 156 10v-809q0 -69 17 -114t50.5 -67t70.5 -30t89 -8h555q31 0 53.5 1t52.5 5t51.5 11t44 20t36.5 32t23 47t9 64q0 124 -63 209q-106 -27 -215 -27h-252q-18 0 -24.5 7t-6.5 30v133h156q256 0 256 193q0 68 -27 137h-354q-18 0 -24.5 7
t-6.5 30v129h279q31 0 53.5 1t52.5 5t51.5 11t44 20t36.5 32t23 47t9 64q0 116 -64 203q-79 -20 -215 -20h-768q-104 0 -159.5 -51t-55.5 -130zM258 1821q14 63 75.5 101t133.5 38q93 0 139 -62l96 -178l82 125q29 45 60 111q54 0 101 -10.5t82 -33.5t51.5 -54t7 -76
t-49.5 -96l-114 -136q-52 -62 -91 -83t-106 -21q-148 0 -221 47z" />
    <glyph glyph-name="ecaron" unicode="&#x11b;" horiz-adv-x="1312" 
d="M92 502q0 -527 631 -527q105 0 196 16.5t164.5 50t115.5 89t42 127.5q0 51 -25 105.5t-67 80.5q-136 -88 -336 -88q-196 0 -225 97q90 -17 172 -17q101 0 190 15.5t167 49.5t123.5 95t45.5 143q0 167 -150 259t-411 92q-296 0 -464.5 -157t-168.5 -431zM299 1524
q14 63 75.5 101t133.5 38q94 0 139 -61l96 -179l82 125q29 45 60 111q54 0 101 -10.5t82 -33.5t51.5 -54t7 -76t-49.5 -96l-114 -136q-52 -62 -91 -83t-106 -21q-148 0 -221 47zM604 592q3 82 47.5 139t124.5 57q82 0 82 -73q0 -54 -65 -88t-189 -35z" />
    <glyph glyph-name="Gcircumflex" unicode="&#x11c;" horiz-adv-x="1437" 
d="M94 641q0 -107 20 -202.5t65.5 -181t113.5 -147.5t169.5 -98.5t227.5 -36.5q247 0 387 150q21 -73 76.5 -111.5t126.5 -38.5q94 0 162 43v498q0 79 -10 126t-37.5 73.5t-66 35.5t-103.5 9h-377q-27 -76 -27 -133q0 -73 46.5 -115.5t146.5 -42.5h14v-41q0 -59 -178 -59
q-262 0 -262 313q0 146 68.5 216.5t193.5 70.5q90 0 185.5 -24t158.5 -60q70 28 112 88t42 131q0 79 -47 138.5t-126.5 92.5t-170 48.5t-191.5 15.5q-150 0 -271 -38.5t-203.5 -106t-138.5 -163.5t-81 -208t-25 -242zM394 1555q-18 60 50 149l111 135q50 62 89.5 83.5
t107.5 21.5q147 0 221 -48l248 -319q-14 -63 -75.5 -101t-133.5 -38q-95 0 -140 61l-98 170l-78 -125q-28 -42 -59 -110q-93 0 -159 30.5t-84 90.5z" />
    <glyph glyph-name="gcircumflex" unicode="&#x11d;" horiz-adv-x="1417" 
d="M61 629q0 -251 230 -350q-91 -41 -148 -111.5t-57 -163.5q0 -68 37.5 -125.5t120.5 -83.5q-65 -20 -94 -64.5t-29 -95.5q0 -65 43.5 -114.5t117.5 -77.5t161 -41.5t186 -13.5q678 0 692 395q0 88 -37.5 152t-98.5 98.5t-139 57.5t-160 29.5t-160 13.5t-139 11.5t-98.5 21
t-37.5 44.5q0 14 4 22q83 -14 194 -14q167 0 304 54t219.5 160.5t82.5 246.5q0 102 -41 176q88 19 135.5 70t47.5 110q0 69 -50.5 118.5t-132.5 49.5q-41 0 -84 -16v-21q0 -43 -20.5 -83.5t-60.5 -67.5q-142 74 -349 74q-133 0 -248 -29.5t-202.5 -86t-138 -145.5
t-50.5 -200zM267 1280.5q-18 60.5 50 149.5l111 135q50 62 89.5 83t107.5 21q148 0 221 -47l248 -319q-14 -63 -76 -101.5t-133 -38.5q-94 0 -140 62l-98 170l-78 -125q-26 -40 -59 -111q-93 0 -159 30.5t-84 91zM401 -281q0 20 11 39q42 -11 146 -12.5t174.5 -10
t70.5 -38.5q0 -33 -52 -51.5t-124 -18.5q-224 0 -226 92zM516 645q0 50 38.5 90.5t109.5 40.5q135 0 135 -112q0 -49 -38 -90.5t-106 -41.5q-139 0 -139 113z" />
    <glyph glyph-name="Gbreve" unicode="&#x11e;" horiz-adv-x="1437" 
d="M94 641q0 -107 20 -202.5t65.5 -181t113.5 -147.5t169.5 -98.5t227.5 -36.5q247 0 387 150q21 -73 76.5 -111.5t126.5 -38.5q94 0 162 43v498q0 79 -10 126t-37.5 73.5t-66 35.5t-103.5 9h-377q-27 -76 -27 -133q0 -73 46.5 -115.5t146.5 -42.5h14v-41q0 -59 -178 -59
q-262 0 -262 313q0 146 68.5 216.5t193.5 70.5q90 0 185.5 -24t158.5 -60q70 28 112 88t42 131q0 79 -47 138.5t-126.5 92.5t-170 48.5t-191.5 15.5q-150 0 -271 -38.5t-203.5 -106t-138.5 -163.5t-81 -208t-25 -242zM360 1731q0 67 44.5 115.5t134.5 56.5q49 -61 108.5 -92
t116.5 -31q56 0 116 31t111 92q87 -9 131.5 -57t44.5 -115q0 -110 -112.5 -187t-290.5 -78q-178 1 -291 78t-113 187z" />
    <glyph glyph-name="gbreve" unicode="&#x11f;" horiz-adv-x="1417" 
d="M61 629q0 -251 230 -350q-91 -41 -148 -111.5t-57 -163.5q0 -68 37.5 -125.5t120.5 -83.5q-65 -20 -94 -64.5t-29 -95.5q0 -65 43.5 -114.5t117.5 -77.5t161 -41.5t186 -13.5q678 0 692 395q0 88 -37.5 152t-98.5 98.5t-139 57.5t-160 29.5t-160 13.5t-139 11.5t-98.5 21
t-37.5 44.5q0 14 4 22q83 -14 194 -14q167 0 304 54t219.5 160.5t82.5 246.5q0 102 -41 176q88 19 135.5 70t47.5 110q0 69 -50.5 118.5t-132.5 49.5q-41 0 -84 -16v-21q0 -43 -20.5 -83.5t-60.5 -67.5q-142 74 -349 74q-133 0 -248 -29.5t-202.5 -86t-138 -145.5
t-50.5 -200zM272 1442q0 67 44.5 115.5t134.5 56.5q49 -61 108.5 -92t116.5 -31q56 0 116 31t111 92q87 -9 131.5 -57t44.5 -115q0 -110 -112.5 -186.5t-290.5 -77.5q-178 1 -291 77.5t-113 186.5zM401 -281q0 20 11 39q42 -11 146 -12.5t174.5 -10t70.5 -38.5
q0 -33 -52 -51.5t-124 -18.5q-224 0 -226 92zM516 645q0 50 38.5 90.5t109.5 40.5q135 0 135 -112q0 -49 -38 -90.5t-106 -41.5q-139 0 -139 113z" />
    <glyph glyph-name="Gdotaccent" unicode="&#x120;" horiz-adv-x="1437" 
d="M94 641q0 -107 20 -202.5t65.5 -181t113.5 -147.5t169.5 -98.5t227.5 -36.5q247 0 387 150q21 -73 76.5 -111.5t126.5 -38.5q94 0 162 43v498q0 79 -10 126t-37.5 73.5t-66 35.5t-103.5 9h-377q-27 -76 -27 -133q0 -73 46.5 -115.5t146.5 -42.5h14v-41q0 -59 -178 -59
q-262 0 -262 313q0 146 68.5 216.5t193.5 70.5q90 0 185.5 -24t158.5 -60q70 28 112 88t42 131q0 79 -47 138.5t-126.5 92.5t-170 48.5t-191.5 15.5q-150 0 -271 -38.5t-203.5 -106t-138.5 -163.5t-81 -208t-25 -242zM541 1665q0 98 73.5 172t198.5 74q114 0 172.5 -54.5
t58.5 -146.5q0 -96 -74.5 -171t-199.5 -75q-113 0 -171 54t-58 147z" />
    <glyph glyph-name="gdotaccent" unicode="&#x121;" horiz-adv-x="1343" 
d="M61 629q0 -251 230 -350q-91 -41 -148 -111.5t-57 -163.5q0 -68 37.5 -125.5t120.5 -83.5q-65 -20 -94 -64.5t-29 -95.5q0 -65 43.5 -114.5t117.5 -77.5t161 -41.5t186 -13.5q678 0 692 395q0 88 -37.5 152t-98.5 98.5t-139 57.5t-160 29.5t-160 13.5t-139 11.5t-98.5 21
t-37.5 44.5q0 14 4 22q83 -14 194 -14q167 0 304 54t219.5 160.5t82.5 246.5q0 138 -81 242q149 90 149 235q0 76 -51 132.5t-144 56.5q-66 0 -126 -30t-87 -83q60 -51 60 -146q0 -14 -4 -38q-115 38 -291 41q-172 0 -311 -52.5t-223.5 -159t-84.5 -249.5zM401 -281
q0 20 11 39q42 -11 146 -12.5t174.5 -10t70.5 -38.5q0 -33 -52 -51.5t-124 -18.5q-224 0 -226 92zM406 1391q0 98 73.5 171.5t198.5 73.5q114 0 172.5 -54t58.5 -146q0 -96 -74.5 -171t-199.5 -75q-113 0 -171 54t-58 147zM516 645q0 50 38.5 90.5t109.5 40.5
q135 0 135 -112q0 -49 -38 -90.5t-106 -41.5q-139 0 -139 113z" />
    <glyph glyph-name="Gcommaaccent" unicode="&#x122;" horiz-adv-x="1437" 
d="M94 641q0 130 25 242t81 208t138.5 163.5t203.5 106t271 38.5q101 0 191.5 -15.5t170 -48.5t126.5 -92.5t47 -138.5q0 -71 -42 -131t-112 -88q-63 36 -158.5 60t-185.5 24q-125 0 -193.5 -70.5t-68.5 -216.5q0 -313 262 -313q178 0 178 59v41h-14q-100 0 -146.5 42.5
t-46.5 115.5q0 57 27 133h377q65 0 103.5 -9t66 -35.5t37.5 -73.5t10 -126v-498q-68 -43 -162 -43q-71 0 -126.5 38.5t-76.5 111.5q-140 -150 -387 -150q-126 0 -227.5 36.5t-169.5 98.5t-113.5 147.5t-65.5 181t-20 202.5zM653 -569q61 28 99.5 74.5t38.5 103.5
q0 36 -27 93.5t-27 86.5q0 74 69 120t150 46q58 0 103.5 -23t73 -60.5t41.5 -82t14 -92.5q0 -95 -44.5 -180t-126.5 -138t-181 -53q-135 0 -183 105z" />
    <glyph glyph-name="gcommaaccent" unicode="&#x123;" horiz-adv-x="1343" 
d="M61 629q0 -251 230 -350q-91 -41 -148 -111.5t-57 -163.5q0 -68 37.5 -125.5t120.5 -83.5q-65 -20 -94 -64.5t-29 -95.5q0 -65 43.5 -114.5t117.5 -77.5t161 -41.5t186 -13.5q678 0 692 395q0 88 -37.5 152t-98.5 98.5t-139 57.5t-160 29.5t-160 13.5t-139 11.5t-98.5 21
t-37.5 44.5q0 14 4 22q83 -14 194 -14q167 0 304 54t219.5 160.5t82.5 246.5q0 138 -81 242q149 90 149 235q0 76 -51 132.5t-144 56.5q-66 0 -126 -30t-87 -83q60 -51 60 -146q0 -14 -4 -38q-115 38 -291 41q-172 0 -311 -52.5t-223.5 -159t-84.5 -249.5zM401 -281
q0 20 11 39q42 -11 146 -12.5t174.5 -10t70.5 -38.5q0 -33 -52 -51.5t-124 -18.5q-224 0 -226 92zM410 1419q0 95 44.5 180t126.5 138t181 53q134 0 182 -104q-61 -28 -99 -75t-38 -104q0 -36 26.5 -93.5t26.5 -86.5q0 -74 -69 -120t-150 -46q-76 0 -130 39.5t-77.5 96.5
t-23.5 122zM516 645q0 50 38.5 90.5t109.5 40.5q135 0 135 -112q0 -49 -38 -90.5t-106 -41.5q-139 0 -139 113z" />
    <glyph glyph-name="Hcircumflex" unicode="&#x124;" horiz-adv-x="1591" 
d="M14 1262q0 -100 46.5 -175.5t142.5 -93.5v-698q1 -44 3.5 -77t8.5 -71.5t17.5 -65.5t28.5 -50t43.5 -35t60.5 -12q21 0 51.5 4.5t75.5 15t77.5 18.5t93.5 23.5t87 22.5q-46 133 -54 286v156h310q17 0 22.5 -8t5.5 -31v-176q1 -44 3.5 -77t8.5 -71.5t17.5 -65.5t28.5 -50
t43.5 -35t60.5 -12q17 0 45 4t54 9t70 15.5t69.5 17t79 20t73.5 18.5q-45 130 -53 286v725q-2 69 -7.5 115.5t-21.5 96t-49.5 75t-83.5 25.5q-17 0 -45 -4t-54 -9t-70 -15.5t-69.5 -17t-79 -20t-73.5 -18.5q45 -129 53 -287v-152h-307q-18 0 -24.5 7t-6.5 30v223
q0 34 -0.5 53.5t-3.5 51t-8 50.5t-15.5 42t-25.5 35.5t-38 21.5t-52 9q-30 -3 -216.5 -27t-316.5 -31q-6 -35 -6 -71zM480 1544.5q-18 60.5 50 149.5l111 135q50 62 89.5 83t107.5 21q148 0 221 -47l248 -319q-14 -63 -76 -101.5t-133 -38.5q-94 0 -140 62l-98 170l-78 -125
q-26 -40 -59 -111q-93 0 -159 30.5t-84 91z" />
    <glyph glyph-name="hcircumflex" unicode="&#x125;" horiz-adv-x="1529" 
d="M-22.5 1743q9.5 45 49.5 96l110 135q50 62 89.5 83.5t107.5 21.5q148 0 221 -47l248 -320q-14 -63 -75.5 -101t-133.5 -38q-94 0 -139 61l-99 170l-77 -125q-31 -47 -60 -110q-54 0 -101 10.5t-82 33.5t-51.5 54t-7 76zM41 1409q90 -128 90 -346v-836q1 -43 4 -72
t12.5 -64t25 -56.5t43.5 -36t67 -14.5q29 0 94 13.5t162.5 36t144.5 32.5q-43 105 -51 223v157q0 120 42.5 198.5t98.5 78.5q57 0 57 -86v-348q0 -71 17 -124.5t46 -87.5t71.5 -55t89 -29.5t102.5 -8.5q58 0 105 10t90.5 33.5t74.5 69t46 110.5q-74 9 -102.5 39.5
t-31.5 107.5v326q0 204 -83.5 307t-227.5 103q-123 0 -225.5 -69.5t-169.5 -201.5v428q-1 45 -4 76.5t-12.5 74t-24.5 69.5t-43.5 46t-67.5 19q-35 0 -205 -55t-235 -68z" />
    <glyph glyph-name="Hbar" unicode="&#x126;" horiz-adv-x="1689" 
d="M10 1077q0 50 34.5 76.5t121.5 26.5h16v141q262 70 332 70q40 0 69 -16t46.5 -47t26.5 -66t14 -82h344v141q266 70 338 70q40 0 69 -16t46 -47t26 -66t14 -82h31q36 0 98 12q50 -53 50 -111q0 -50 -34.5 -76t-121.5 -26h-17v-625q8 -153 54 -286q-20 -5 -73.5 -18.5
t-79 -20t-69.5 -17t-70 -15.5t-54 -9t-45 -4q-34 0 -60.5 12t-43.5 35t-28.5 50t-17.5 65.5t-8.5 71.5t-3.5 77v166q0 23 -6 31t-23 8h-309v-146q8 -156 53 -286q-26 -7 -87 -22.5t-93.5 -23.5t-77.5 -18.5t-75.5 -15t-51.5 -4.5q-34 0 -60.5 12t-43.5 35t-28.5 50
t-17.5 65.5t-8.5 71.5t-3.5 77v684h-24q-33 0 -99 -12q-49 52 -49 110zM676 895q0 -23 6.5 -30t24.5 -7h307v121h-338v-84z" />
    <glyph glyph-name="Itilde" unicode="&#x128;" horiz-adv-x="987" 
d="M55 1210q0 -78 66 -172q84 11 155 11v-680q0 -25 -22 -27q-83 -6 -121.5 -49t-38.5 -111q0 -95 64 -182h618q105 0 160 46t55 124q0 90 -65 182q-76 -10 -156 -10v680q0 25 23 27q159 11 159 159q0 118 -63 203q-79 -20 -215 -20h-404q-104 0 -159.5 -51t-55.5 -130z
M70 1618q0 185 215 192q66 0 191.5 -16t162.5 -16q105 0 139 86q81 -9 127 -58t49 -125q0 -96 -63.5 -145t-169.5 -49q-56 0 -164.5 15.5t-159.5 15.5q-113 0 -153 -78q-78 8 -126 56.5t-48 121.5z" />
    <glyph glyph-name="itilde" unicode="&#x129;" horiz-adv-x="925" 
d="M0 1305q0 185 215 192q66 0 191.5 -16.5t162.5 -16.5q106 0 140 86q81 -9 127 -57.5t49 -124.5q0 -96 -64 -145t-170 -49q-56 0 -164 15t-159 15q-114 0 -154 -78q-78 8 -126 57t-48 122zM72 1028q0 -41 2.5 -72t13.5 -72t30.5 -67.5t56.5 -46t89 -20.5v-523q1 -43 4 -72
t12.5 -64t25 -56.5t43.5 -36t67 -14.5q31 0 97 13t165.5 36.5t144.5 32.5q-43 105 -51 223v596q0 37 -1 58.5t-8.5 53.5t-21 49t-40.5 30.5t-66 13.5q-77 -6 -262.5 -32t-300.5 -30z" />
    <glyph glyph-name="imacron" unicode="&#x12b;" horiz-adv-x="819" 
d="M0 1028q115 4 300.5 30t262.5 32q39 0 66 -13.5t40.5 -30.5t21 -49t8.5 -53.5t1 -58.5v-596q8 -115 52 -223q-45 -9 -145 -32.5t-166 -36.5t-97 -13q-39 0 -67 14.5t-43.5 35.5t-24.5 57t-12 64.5t-4 71.5v523q-52 1 -89 20.5t-56.5 46t-31 67.5t-14 72t-2.5 72zM10 1346
q0 78 48.5 122.5t140.5 44.5q51 0 212.5 -10t186.5 -10q82 0 127 18q43 -71 43 -149q0 -76 -46 -120.5t-132 -47.5q-57 0 -221 10t-189 10q-82 0 -127 -18q-43 76 -43 150z" />
    <glyph glyph-name="Ibreve" unicode="&#x12c;" horiz-adv-x="987" 
d="M55 1210q0 -78 66 -172q84 11 155 11v-680q0 -25 -22 -27q-83 -6 -121.5 -49t-38.5 -111q0 -95 64 -182h618q105 0 160 46t55 124q0 90 -65 182q-76 -10 -156 -10v680q0 25 23 27q159 11 159 159q0 118 -63 203q-79 -20 -215 -20h-404q-104 0 -159.5 -51t-55.5 -130z
M104 1737q0 67 44.5 115.5t134.5 56.5q49 -61 108.5 -92t116.5 -31q56 0 116 31t111 92q87 -9 131.5 -57t44.5 -115q0 -110 -112.5 -186.5t-290.5 -77.5q-178 1 -291 77.5t-113 186.5z" />
    <glyph glyph-name="Iogonek" unicode="&#x12e;" horiz-adv-x="987" 
d="M55 1210q0 79 55.5 130t159.5 51h404q136 0 215 20q63 -85 63 -203q0 -148 -159 -159q-23 -2 -23 -27v-680q80 0 156 10q65 -92 65 -182q0 -40 -21 -72t-50.5 -54.5t-59.5 -45.5t-51 -58.5t-21 -80.5q0 -32 18.5 -54t57.5 -22q42 0 76 12q37 -61 37 -110
q0 -96 -77 -150.5t-218 -54.5q-118 0 -185 62.5t-67 160.5q0 165 170 297h-442q-64 87 -64 182q0 68 38.5 111t121.5 49q22 2 22 27v680q-71 0 -155 -11q-66 94 -66 172z" />
    <glyph glyph-name="iogonek" unicode="&#x12f;" horiz-adv-x="802" 
d="M0 1028q0 -41 2.5 -72t14 -72t31 -67.5t56.5 -46t89 -20.5v-523q1 -34 3 -57t6.5 -53t13.5 -50t22.5 -39t35.5 -29.5t50 -12.5q-150 -129 -150 -283q0 -98 67 -160.5t185 -62.5q141 0 218 54.5t77 150.5q0 49 -37 110q-34 -12 -76 -12q-39 0 -57.5 22t-18.5 54
q0 68 52 126t168 81q-44 108 -52 223v596q0 37 -1 58.5t-8.5 53.5t-21 49t-40.5 30.5t-66 13.5q-77 -6 -262.5 -32t-300.5 -30zM150 1343q0 104 77.5 168t206.5 64q119 0 182.5 -54.5t63.5 -150.5q0 -103 -69.5 -164t-204.5 -61q-256 0 -256 198z" />
    <glyph glyph-name="Kcommaaccent" unicode="&#x136;" horiz-adv-x="1484" 
d="M14 1262q0 36 6 71q97 5 184 15t184.5 23t164.5 20q29 0 52 -9t38 -21.5t25.5 -35.5t15.5 -42t8 -50.5t3.5 -51t0.5 -53.5v-313h60q54 0 92 23.5t55.5 63t25 77.5t7.5 80q0 106 -55 211q55 60 129 90.5t153 30.5q71 0 126 -26.5t86.5 -70.5t47 -94.5t15.5 -105.5
q0 -121 -58.5 -220t-162.5 -169q56 -147 158 -262t200 -136q-3 -84 -32 -147t-77 -98.5t-102.5 -52.5t-116.5 -17q-77 0 -132.5 14.5t-108 54.5t-91 110.5t-72 181.5t-59.5 268h-88v-267q8 -153 54 -286q-26 -7 -87 -22.5t-93.5 -23.5t-77.5 -18.5t-75.5 -15t-51.5 -4.5
q-34 0 -60.5 12t-43.5 35t-28.5 50t-17.5 65.5t-8.5 71.5t-3.5 77v698q-96 18 -142.5 93.5t-46.5 175.5zM571 -475q61 28 99.5 74.5t38.5 103.5q0 36 -27 93.5t-27 86.5q0 74 69 120t150 46q58 0 103.5 -23t73 -60.5t41.5 -82t14 -92.5q0 -95 -44.5 -180t-126.5 -138
t-181 -53q-135 0 -183 105z" />
    <glyph glyph-name="kcommaaccent" unicode="&#x137;" horiz-adv-x="1411" 
d="M41 1409q65 13 235 68t205 55q39 0 67.5 -19t43.5 -46t24.5 -69.5t12.5 -74t4 -76.5v-493q35 68 79 125t101.5 106t131 77t155.5 28q133 0 197.5 -71.5t64.5 -180.5q0 -120 -73.5 -200t-221.5 -83q30 -38 75 -59t93 -21q54 0 104 29q56 -85 56 -193q0 -90 -35 -165
t-108.5 -123t-174.5 -48q-85 0 -153.5 30.5t-111.5 80t-71.5 116t-40.5 134t-12 139.5q94 12 155.5 54t61.5 94q0 28 -17 47.5t-48 19.5q-55 0 -109.5 -42.5t-97.5 -112.5v-246q8 -118 51 -223q-47 -10 -144.5 -32.5t-162.5 -36t-94 -13.5q-39 0 -67 14.5t-43.5 36t-25 56.5
t-12.5 64t-4 72v836q0 218 -90 346zM440 -508q61 28 99.5 74.5t38.5 103.5q0 36 -27 93.5t-27 86.5q0 74 69 120t150 46q58 0 103.5 -23t73 -60.5t41.5 -82t14 -92.5q0 -95 -44.5 -179.5t-126.5 -137.5t-181 -53q-135 0 -183 104z" />
    <glyph glyph-name="Lacute" unicode="&#x139;" horiz-adv-x="1183" 
d="M14 1262q0 36 6 71q97 5 184 15t184.5 23t164.5 20q29 0 52 -9t38 -21.5t25.5 -35.5t15.5 -42t8 -50.5t3.5 -51t0.5 -53.5v-661q0 -37 21 -37q34 0 101 -1t97 -1q105 0 180.5 11.5t151.5 47.5q40 -51 62 -121.5t22 -113.5q0 -66 -20.5 -112.5t-53 -73.5t-88 -42
t-110 -19.5t-133.5 -4.5h-539q-48 0 -82 17t-52.5 41.5t-30 67t-15 79t-4.5 90.5v698q-96 18 -142.5 93.5t-46.5 175.5zM227 1599q0 36 27 70l297 369q72 -11 137 -57t90 -111q20 -42 12 -95t-47 -83l-337 -269q-64 22 -121.5 70t-57.5 106z" />
    <glyph glyph-name="lacute" unicode="&#x13a;" horiz-adv-x="780" 
d="M43 1409q65 13 238 68t208 55q152 0 152 -285v-811q9 -95 52 -129.5t128 -34.5q-1 -92 -44.5 -159t-109.5 -98t-145 -31q-82 0 -150.5 21.5t-123 65t-85 117.5t-30.5 172v703q0 218 -90 346zM74 1706q0 37 26 70l297 368q72 -11 137.5 -57t90.5 -111q20 -42 12 -95
t-47 -83l-338 -268q-64 22 -121 70t-57 106z" />
    <glyph glyph-name="Lcommaaccent" unicode="&#x13b;" horiz-adv-x="1183" 
d="M14 1262q0 36 6 71q97 5 184 15t184.5 23t164.5 20q29 0 52 -9t38 -21.5t25.5 -35.5t15.5 -42t8 -50.5t3.5 -51t0.5 -53.5v-661q0 -37 21 -37q34 0 101 -1t97 -1q105 0 180.5 11.5t151.5 47.5q40 -51 62 -121.5t22 -113.5q0 -66 -20.5 -112.5t-53 -73.5t-88 -42
t-110 -19.5t-133.5 -4.5h-539q-48 0 -82 17t-52.5 41.5t-30 67t-15 79t-4.5 90.5v698q-96 18 -142.5 93.5t-46.5 175.5zM475 -578q61 28 99 75t38 104q0 36 -26.5 93.5t-26.5 86.5q0 74 69 120t150 46q58 0 103.5 -23t73 -60.5t41.5 -82t14 -92.5q0 -95 -44.5 -180
t-127 -138t-181.5 -53q-134 0 -182 104z" />
    <glyph glyph-name="lcommaaccent" unicode="&#x13c;" horiz-adv-x="778" 
d="M41 1409q65 13 238 68t208 55q152 0 152 -285v-811q9 -95 52 -129.5t128 -34.5q-1 -92 -44.5 -159t-109.5 -98t-145 -31q-82 0 -150.5 21.5t-123 65t-85 117.5t-30.5 172v703q0 218 -90 346zM199 -588q61 28 99 74.5t38 103.5q0 36 -26.5 94t-26.5 87q0 74 69 120t150 46
q76 0 130 -40t77.5 -97t23.5 -122q0 -95 -44.5 -179.5t-126.5 -137.5t-181 -53q-134 0 -182 104z" />
    <glyph glyph-name="Lcaron" unicode="&#x13d;" horiz-adv-x="1183" 
d="M14 1262q0 36 6 71q97 5 184 15t184.5 23t164.5 20q29 0 52 -9t38 -21.5t25.5 -35.5t15.5 -42t8 -50.5t3.5 -51t0.5 -53.5v-661q0 -37 21 -37q34 0 101 -1t97 -1q105 0 180.5 11.5t151.5 47.5q40 -51 62 -121.5t22 -113.5q0 -66 -20.5 -112.5t-53 -73.5t-88 -42
t-110 -19.5t-133.5 -4.5h-539q-48 0 -82 17t-52.5 41.5t-30 67t-15 79t-4.5 90.5v698q-96 18 -142.5 93.5t-46.5 175.5zM745 866q61 28 99.5 74.5t38.5 103.5q0 36 -27 94t-27 87q0 74 69.5 120t150.5 46q76 0 130 -39.5t77.5 -96.5t23.5 -122q0 -95 -44.5 -180t-126.5 -138
t-181 -53q-135 0 -183 104z" />
    <glyph glyph-name="lcaron" unicode="&#x13e;" horiz-adv-x="1083" 
d="M41 1409q65 13 238 68t208 55q152 0 152 -285v-811q9 -95 52 -129.5t128 -34.5q-1 -92 -44.5 -159t-109.5 -98t-145 -31q-82 0 -150.5 21.5t-123 65t-85 117.5t-30.5 172v703q0 218 -90 346zM684 1008q61 28 99 74.5t38 103.5q0 36 -26.5 93.5t-26.5 86.5q0 74 69 120
t150 46q58 0 103.5 -23t73 -60.5t41.5 -82t14 -92.5q0 -95 -44.5 -180t-127 -138t-181.5 -53q-134 0 -182 105z" />
    <glyph glyph-name="Ldot" unicode="&#x13f;" horiz-adv-x="1183" 
d="M14 1262q0 -100 46.5 -175.5t142.5 -93.5v-698q1 -54 4.5 -90.5t15 -79t30 -67t52.5 -41.5t82 -17h539q79 0 133.5 4.5t110 19.5t88 42t53 73.5t20.5 112.5q0 43 -22 113.5t-62 121.5q-76 -36 -151.5 -47.5t-180.5 -11.5q-30 0 -97 1t-101 1q-21 0 -21 37v661
q0 34 -0.5 53.5t-3.5 51t-8 50.5t-15.5 42t-25.5 35.5t-38 21.5t-52 9q-30 -3 -216.5 -27t-316.5 -31q-6 -35 -6 -71zM164 1604q0 76 66.5 134t179.5 58q102 0 155 -42.5t53 -115.5q0 -76 -67.5 -135t-179.5 -59q-102 0 -154.5 43.5t-52.5 116.5z" />
    <glyph glyph-name="Lslash" unicode="&#x141;" horiz-adv-x="1183" 
d="M14 483q0 34 19 68t51 57l119 82v303q-96 18 -142.5 93.5t-46.5 175.5q0 36 6 71q97 5 184 15t184.5 23t164.5 20q29 0 52 -9t38 -21.5t25.5 -35.5t15.5 -42t8 -50.5t3.5 -51t0.5 -53.5v-92l156 109q41 30 78 74q55 -16 95 -54.5t40 -85.5q0 -31 -23 -65t-63 -62
l-283 -198v-287q0 -37 21 -37q34 0 101 -1t97 -1q105 0 180.5 11.5t151.5 47.5q40 -51 62 -121.5t22 -113.5q0 -66 -20.5 -112.5t-53 -73.5t-88 -42t-110 -19.5t-133.5 -4.5h-539q-48 0 -82 17t-52.5 41.5t-30 67t-15 79t-4.5 90.5v113l-80 -56q-47 9 -78 49t-31 82z" />
    <glyph glyph-name="lslash" unicode="&#x142;" horiz-adv-x="972" 
d="M43 502q0 34 19 68t51 57l147 102v334q0 218 -90 346q65 13 238 68t208 55q152 0 152 -285v-164l33 23q41 30 78 74q55 -16 95 -54.5t40 -85.5q0 -31 -23 -65t-63 -62l-160 -112v-365q9 -95 52 -129.5t128 -34.5q-1 -92 -44.5 -159t-109.5 -98t-145 -31
q-82 0 -150.5 21.5t-123 65t-85 117.5t-30.5 172v86l-108 -75q-47 9 -78 49t-31 82z" />
    <glyph glyph-name="Nacute" unicode="&#x143;" horiz-adv-x="1525" 
d="M14 1210q0 79 55.5 130t159.5 51h205q99 -3 173.5 -37.5t144.5 -124.5l354 -500l-2 291q-8 222 -53 328q173 43 237 43q51 0 87 -15.5t57 -40.5t32.5 -67.5t15 -84.5t3.5 -104l-19 -1042q-73 -41 -188 -41q-86 0 -130.5 12t-76.5 45l-489 652q6 -32 12 -351
q4 -214 53 -327q-173 -43 -237 -43q-51 0 -87 15.5t-56.5 40t-31.5 67t-14.5 84.5t-3.5 104v754q-62 0 -135 -11q-66 94 -66 172zM696 1489q0 35 27 70l297 368q72 -11 137 -57t90 -111q20 -42 12 -95t-47 -83l-338 -268q-64 22 -121 70t-57 106z" />
    <glyph glyph-name="nacute" unicode="&#x144;" horiz-adv-x="1488" 
d="M-10 1028q115 4 300.5 30t262.5 32q39 0 66 -13.5t40.5 -30.5t21 -49t8.5 -53.5t1 -58.5v-66q67 132 169.5 201.5t225.5 69.5q144 0 228 -103t84 -307v-326q3 -77 31 -107.5t102 -39.5q-15 -65 -46 -110.5t-74.5 -69t-90.5 -33.5t-105 -10q-71 0 -126.5 14t-102 47
t-71.5 94.5t-25 149.5v348q0 86 -58 86q-55 0 -97.5 -74.5t-43.5 -189.5v-170q8 -118 51 -223q-45 -9 -144.5 -32.5t-165.5 -36.5t-97 -13q-39 0 -67 14.5t-43.5 36t-25 56.5t-12.5 64t-4 72v523q-52 1 -89 20.5t-56.5 46t-30.5 67.5t-13.5 72t-2.5 72zM580 1253q0 37 26 70
l297 369q72 -11 137 -57t90 -111q20 -42 12.5 -95t-46.5 -83l-338 -269q-64 22 -121 70t-57 106z" />
    <glyph glyph-name="Ncommaaccent" unicode="&#x145;" horiz-adv-x="1525" 
d="M14 1210q0 79 55.5 130t159.5 51h205q99 -3 173.5 -37.5t144.5 -124.5l354 -500l-2 291q-8 222 -53 328q173 43 237 43q51 0 87 -15.5t57 -40.5t32.5 -67.5t15 -84.5t3.5 -104l-19 -1042q-73 -41 -188 -41q-86 0 -130.5 12t-76.5 45l-489 652q6 -32 12 -351
q4 -214 53 -327q-173 -43 -237 -43q-51 0 -87 15.5t-56.5 40t-31.5 67t-14.5 84.5t-3.5 104v754q-62 0 -135 -11q-66 94 -66 172zM584 -455q61 28 99 75t38 104q0 36 -26.5 93.5t-26.5 86.5q0 74 69 120t150 46q76 0 130 -39.5t77.5 -96.5t23.5 -122q0 -95 -44.5 -180
t-126.5 -138t-181 -53q-134 0 -182 104z" />
    <glyph glyph-name="ncommaaccent" unicode="&#x146;" horiz-adv-x="1488" 
d="M-10 1028q115 4 300.5 30t262.5 32q39 0 66 -13.5t40.5 -30.5t21 -49t8.5 -53.5t1 -58.5v-66q67 132 169.5 201.5t225.5 69.5q144 0 228 -103t84 -307v-326q3 -77 31 -107.5t102 -39.5q-15 -65 -46 -110.5t-74.5 -69t-90.5 -33.5t-105 -10q-71 0 -126.5 14t-102 47
t-71.5 94.5t-25 149.5v348q0 86 -58 86q-55 0 -97.5 -74.5t-43.5 -189.5v-170q8 -118 51 -223q-45 -9 -144.5 -32.5t-165.5 -36.5t-97 -13q-39 0 -67 14.5t-43.5 36t-25 56.5t-12.5 64t-4 72v523q-52 1 -89 20.5t-56.5 46t-30.5 67.5t-13.5 72t-2.5 72zM526 -500
q61 28 99.5 74.5t38.5 103.5q0 36 -27 94t-27 87q0 74 69 120t150 46q58 0 103.5 -23t73 -60.5t41.5 -82t14 -92.5q0 -95 -44.5 -180t-126.5 -138t-181 -53q-135 0 -183 104z" />
    <glyph glyph-name="Ncaron" unicode="&#x147;" horiz-adv-x="1525" 
d="M14 1210q0 79 55.5 130t159.5 51h205q99 -3 173.5 -37.5t144.5 -124.5l354 -500l-2 291q-8 222 -53 328q173 43 237 43q51 0 87 -15.5t57 -40.5t32.5 -67.5t15 -84.5t3.5 -104l-19 -1042q-73 -41 -188 -41q-86 0 -130.5 12t-76.5 45l-489 652q6 -32 12 -351
q4 -214 53 -327q-173 -43 -237 -43q-51 0 -87 15.5t-56.5 40t-31.5 67t-14.5 84.5t-3.5 104v754q-62 0 -135 -11q-66 94 -66 172zM414 1751q14 63 75.5 101t133.5 38q94 0 139 -61l96 -178l82 125q28 42 59 110q93 0 159 -30.5t84 -90.5t-50 -149l-115 -135
q-53 -62 -91 -83.5t-105 -21.5q-149 0 -222 47z" />
    <glyph glyph-name="ncaron" unicode="&#x148;" horiz-adv-x="1488" 
d="M-10 1028q0 -41 2.5 -72t13.5 -72t30.5 -67.5t56.5 -46t89 -20.5v-523q1 -43 4 -72t12.5 -64t25 -56.5t43.5 -36t67 -14.5q31 0 97 13t165.5 36.5t144.5 32.5q-43 105 -51 223v170q1 115 43.5 189.5t97.5 74.5q58 0 58 -86v-348q0 -88 25 -149.5t71.5 -94.5t102 -47
t126.5 -14q58 0 105 10t90.5 33.5t74.5 69t46 110.5q-74 9 -102 39.5t-31 107.5v326q0 204 -84 307t-228 103q-123 0 -225.5 -69.5t-169.5 -201.5v66q0 37 -1 58.5t-8.5 53.5t-21 49t-40.5 30.5t-66 13.5q-77 -6 -262.5 -32t-300.5 -30zM354 1483q14 63 75.5 101t133.5 38
q94 0 139 -61l97 -179l82 125q26 40 59 111q93 0 159 -30.5t84 -90.5t-50 -149l-115 -136q-52 -62 -91 -83t-106 -21q-148 0 -221 47z" />
    <glyph glyph-name="Omacron" unicode="&#x14c;" horiz-adv-x="1497" 
d="M94 645q0 158 42.5 291.5t127.5 238.5t226 164.5t325 59.5q694 0 694 -666q0 -157 -41 -291t-124 -239.5t-221 -166t-318 -61.5q-711 0 -711 670zM440 1634q0 78 48.5 123t140.5 45q51 0 212.5 -10t186.5 -10q82 0 127 18q43 -71 43 -149q0 -76 -46 -120.5t-132 -47.5
q-57 0 -221 10t-189 10q-82 0 -127 -18q-43 76 -43 149zM588 686q0 -41 5 -76.5t19.5 -72t37 -62.5t61 -42.5t88.5 -16.5q217 0 217 272q0 130 -56 202.5t-153 72.5q-219 0 -219 -277z" />
    <glyph glyph-name="omacron" unicode="&#x14d;" 
d="M72 504q0 122 40 226.5t117.5 185.5t201 127.5t280.5 46.5q320 0 474 -140.5t154 -388.5q0 -120 -39 -224.5t-114.5 -185.5t-197 -128t-275.5 -48q-328 0 -484.5 139.5t-156.5 389.5zM322 1331q0 78 48 123t140 45q51 0 212.5 -10t186.5 -10q82 0 127 18q43 -71 43 -149
q0 -76 -46 -120.5t-132 -47.5q-57 0 -220.5 10t-188.5 10q-82 0 -127 -18q-43 76 -43 149zM559 532q0 -66 37 -115.5t109 -49.5q61 0 103 45t42 120q0 80 -39.5 125t-101.5 45q-64 0 -107 -46.5t-43 -123.5z" />
    <glyph glyph-name="Obreve" unicode="&#x14e;" horiz-adv-x="1497" 
d="M94 645q0 -670 711 -670q180 1 318 61.5t221 166t124 239.5t41 291q0 666 -694 666q-184 0 -325 -59.5t-226 -164.5t-127.5 -238.5t-42.5 -291.5zM401 1735q0 67 44.5 115.5t134.5 56.5q49 -61 108.5 -92t116.5 -31q56 0 116 31t111 92q87 -9 131.5 -57t44.5 -115
q0 -110 -112.5 -187t-290.5 -78q-178 1 -291 78t-113 187zM588 686q0 277 219 277q97 0 153 -72.5t56 -202.5q0 -272 -217 -272q-50 0 -88.5 16.5t-61 42.5t-37 62.5t-19.5 72t-5 76.5z" />
    <glyph glyph-name="obreve" unicode="&#x14f;" 
d="M72 504q0 122 40 226.5t117.5 185.5t201 127.5t280.5 46.5q320 0 474 -140.5t154 -388.5q0 -120 -39 -224.5t-114.5 -185.5t-197 -128t-275.5 -48q-328 0 -484.5 139.5t-156.5 389.5zM309 1413q0 67 44 115.5t134 56.5q49 -61 109 -92t117 -31q56 0 116 31t111 92
q87 -9 131.5 -57t44.5 -115q0 -110 -112.5 -186.5t-290.5 -77.5q-178 1 -291 77.5t-113 186.5zM559 532q0 -66 37 -115.5t109 -49.5q61 0 103 45t42 120q0 80 -39.5 125t-101.5 45q-64 0 -107 -46.5t-43 -123.5z" />
    <glyph glyph-name="Ohungarumlaut" unicode="&#x150;" horiz-adv-x="1497" 
d="M94 645q0 158 42.5 291.5t127.5 238.5t226 164.5t325 59.5q694 0 694 -666q0 -157 -41 -291t-124 -239.5t-221 -166t-318 -61.5q-711 0 -711 670zM387 1608q0 35 29 71l297 367q71 -9 125.5 -47.5t81.5 -104.5q18 -42 9.5 -96t-46.5 -84l-338 -266q-63 21 -110.5 61.5
t-47.5 98.5zM588 686q0 -41 5 -76.5t19.5 -72t37 -62.5t61 -42.5t88.5 -16.5q217 0 217 272q0 130 -56 202.5t-153 72.5q-219 0 -219 -277zM879 1608q0 35 26 71l297 367q71 -9 125.5 -47.5t81.5 -104.5q18 -42 9.5 -96t-46.5 -84l-338 -266q-62 22 -108.5 62t-46.5 98z" />
    <glyph glyph-name="ohungarumlaut" unicode="&#x151;" 
d="M72 504q0 122 40 226.5t117.5 185.5t201 127.5t280.5 46.5q320 0 474 -140.5t154 -388.5q0 -120 -39 -224.5t-114.5 -185.5t-197 -128t-275.5 -48q-328 0 -484.5 139.5t-156.5 389.5zM262 1292q0 36 29 72l297 367q71 -9 125.5 -47.5t81.5 -104.5q18 -42 9.5 -96
t-46.5 -84l-338 -266q-64 22 -111 61.5t-47 97.5zM559 532q0 -66 37 -115.5t109 -49.5q61 0 103 45t42 120q0 80 -39.5 125t-101.5 45q-64 0 -107 -46.5t-43 -123.5zM754 1292q0 36 26 72l297 367q71 -9 125.5 -47.5t81.5 -104.5q18 -42 9.5 -96t-46.5 -84l-338 -266
q-62 22 -108.5 61.5t-46.5 97.5z" />
    <glyph glyph-name="OE" unicode="&#x152;" horiz-adv-x="2013" 
d="M94 643q0 120 25 229.5t79.5 206t133 167.5t192 112t250.5 41q128 0 256 -53q45 45 137 45h535q136 0 215 20q63 -85 63 -203q0 -36 -9 -64t-23 -47t-36.5 -32t-44 -20t-51.5 -11t-52.5 -5t-53.5 -1h-278v-129q0 -23 6 -30t24 -7h355q26 -67 26 -137q0 -193 -256 -193
h-155v-133q0 -23 6 -30t24 -7h252q109 0 215 27q64 -87 64 -209q0 -49 -17.5 -84.5t-42 -53.5t-65 -28t-71 -12t-75.5 -2h-555q-117 0 -174 57q-111 -82 -293 -82q-189 0 -327.5 86t-208.5 236t-70 346zM588 686q0 -46 5 -87.5t20.5 -89t40.5 -82t69.5 -57t103.5 -22.5
q61 0 113 14v654q-49 14 -104 14q-68 0 -117.5 -28.5t-77 -78.5t-40.5 -108.5t-13 -128.5z" />
    <glyph glyph-name="oe" unicode="&#x153;" horiz-adv-x="1990" 
d="M72 481q0 100 22.5 189t72 166t121.5 132.5t176 87t232 31.5q187 0 320 -96q77 48 180 73.5t207 25.5q261 0 411 -92t150 -259q0 -82 -45.5 -143t-123.5 -95t-167 -49.5t-190 -15.5q-82 0 -172 17q29 -97 225 -97q200 0 336 88q42 -26 67 -80.5t25 -105.5
q0 -72 -42 -127.5t-115.5 -89t-164.5 -50t-196 -16.5q-245 0 -397 82q-167 -80 -345 -80q-172 0 -302.5 54t-207.5 169.5t-77 280.5zM559 528q0 -92 40.5 -149t119.5 -57q30 0 72 10q-21 74 -21 170q0 125 39 231q-46 17 -84 17q-80 0 -123 -63t-43 -159zM1282 592
q124 1 189 35t65 88q0 73 -82 73q-80 0 -124.5 -57t-47.5 -139z" />
    <glyph glyph-name="Racute" unicode="&#x154;" horiz-adv-x="1458" 
d="M14 1210q0 39 11.5 69.5t33.5 49.5t48 32t60.5 19t64.5 8.5t67 2.5h446q358 0 526.5 -119.5t168.5 -353.5q0 -135 -45.5 -240t-139.5 -154q50 -82 116.5 -137t135.5 -70q-4 -92 -30.5 -158.5t-71 -103.5t-96 -54t-113.5 -17q-55 0 -101 13t-77.5 29t-60.5 53t-44.5 59.5
t-35 76.5t-26 76t-23.5 85l-15 54q-20 -4 -90 -4v-72q8 -150 55 -286q-30 -8 -87 -22.5t-91.5 -23.5t-77.5 -19t-73.5 -14.5t-51.5 -4.5q-34 0 -60.5 11.5t-43.5 35.5t-28 50.5t-17 65t-8.5 71t-3.5 77.5v733q-80 0 -156 -10q-66 94 -66 192zM457 1620q0 37 26 70l297 368
q72 -11 137.5 -57t90.5 -111q20 -42 12 -95t-47 -83l-338 -268q-64 22 -121 70t-57 106zM723 715q14 -2 63 -2q78 0 125 40.5t47 127.5q0 147 -153 147h-82v-313z" />
    <glyph glyph-name="racute" unicode="&#x155;" horiz-adv-x="1257" 
d="M-10 1028q115 4 300.5 30t262.5 32q39 0 66 -13.5t40.5 -30.5t21 -49t8.5 -53.5t1 -58.5v-84q71 151 147 220t183 69q100 0 156.5 -68t56.5 -176q-6 -159 -162 -246q-101 55 -192 55q-57 0 -107.5 -24t-81.5 -72v-205q3 -78 30 -108t101 -39q-14 -65 -44.5 -110.5
t-74 -69t-90.5 -33.5t-106 -10q-56 0 -101.5 8.5t-88 29.5t-71.5 55t-46 87.5t-17 124.5v461q-52 1 -89 20.5t-56.5 46t-30.5 67.5t-13.5 72t-2.5 72zM250 1305q0 36 26 69l297 369q72 -11 137.5 -57t90.5 -111q20 -42 12 -95t-47 -83l-338 -269q-63 21 -120.5 70t-57.5 107
z" />
    <glyph glyph-name="Rcommaaccent" unicode="&#x156;" horiz-adv-x="1458" 
d="M14 1210q0 39 11.5 69.5t33.5 49.5t48 32t60.5 19t64.5 8.5t67 2.5h446q358 0 526.5 -119.5t168.5 -353.5q0 -135 -45.5 -240t-139.5 -154q50 -82 116.5 -137t135.5 -70q-4 -92 -30.5 -158.5t-71 -103.5t-96 -54t-113.5 -17q-55 0 -101 13t-77.5 29t-60.5 53t-44.5 59.5
t-35 76.5t-26 76t-23.5 85l-15 54q-20 -4 -90 -4v-72q8 -150 55 -286q-30 -8 -87 -22.5t-91.5 -23.5t-77.5 -19t-73.5 -14.5t-51.5 -4.5q-34 0 -60.5 11.5t-43.5 35.5t-28 50.5t-17 65t-8.5 71t-3.5 77.5v733q-80 0 -156 -10q-66 94 -66 192zM559 -496q61 28 99 75t38 104
q0 36 -26.5 93.5t-26.5 86.5q0 74 69 120t150 46q58 0 103.5 -23t73 -60.5t41.5 -82t14 -92.5q0 -95 -44.5 -180t-127 -138t-181.5 -53q-134 0 -182 104zM723 715q14 -2 63 -2q78 0 125 40.5t47 127.5q0 147 -153 147h-82v-313z" />
    <glyph glyph-name="rcommaaccent" unicode="&#x157;" horiz-adv-x="1257" 
d="M-10 1028q115 4 300.5 30t262.5 32q39 0 66 -13.5t40.5 -30.5t21 -49t8.5 -53.5t1 -58.5v-84q71 151 147 220t183 69q100 0 156.5 -68t56.5 -176q-6 -159 -162 -246q-101 55 -192 55q-57 0 -107.5 -24t-81.5 -72v-205q3 -78 30 -108t101 -39q-14 -65 -44.5 -110.5
t-74 -69t-90.5 -33.5t-106 -10q-56 0 -101.5 8.5t-88 29.5t-71.5 55t-46 87.5t-17 124.5v461q-52 1 -89 20.5t-56.5 46t-30.5 67.5t-13.5 72t-2.5 72zM223 -578q61 28 99 75t38 104q0 36 -26.5 93.5t-26.5 86.5q0 74 69 120t150 46q58 0 103.5 -23t73 -60.5t41.5 -82
t14 -92.5q0 -95 -44.5 -180t-126.5 -138t-181 -53q-135 0 -183 104z" />
    <glyph glyph-name="Rcaron" unicode="&#x158;" horiz-adv-x="1458" 
d="M14 1210q0 -98 66 -192q76 10 156 10v-733q1 -45 3.5 -77.5t8.5 -71t17 -65t28 -50.5t43.5 -35.5t60.5 -11.5q21 0 51.5 4.5t73.5 14.5t77.5 19t91.5 23.5t87 22.5q-47 136 -55 286v72q70 0 90 4l15 -54q10 -39 16 -59t17 -56t20 -56t23.5 -50.5t29 -48t34.5 -40t43 -35
t51 -25t61.5 -17.5t72.5 -5q62 0 113.5 17t96 54t71 103.5t30.5 158.5q-69 15 -135.5 70t-116.5 137q94 49 139.5 154t45.5 240q0 234 -168.5 353.5t-526.5 119.5h-446q-37 0 -67 -2.5t-64.5 -8.5t-60.5 -19t-48 -32t-33.5 -49.5t-11.5 -69.5zM260 1819q14 63 75.5 101
t133.5 38q93 0 139 -62l97 -178l81 125q29 45 60 111q93 0 158.5 -30.5t83.5 -91t-50 -149.5l-114 -135q-52 -62 -91 -83t-106 -21q-148 0 -221 47zM723 715v313h82q153 0 153 -147q0 -87 -47 -127.5t-125 -40.5q-49 0 -63 2z" />
    <glyph glyph-name="rcaron" unicode="&#x159;" horiz-adv-x="1257" 
d="M-10 1028q0 -41 2.5 -72t13.5 -72t30.5 -67.5t56.5 -46t89 -20.5v-461q0 -71 17 -124.5t46 -87.5t71.5 -55t88 -29.5t101.5 -8.5q59 0 106 10t90.5 33.5t74 69t44.5 110.5q-74 9 -101 39t-30 108v205q31 48 81.5 72t107.5 24q91 0 192 -55q156 87 162 246
q0 108 -56.5 176t-156.5 68q-107 0 -183 -69t-147 -220v84q0 37 -1 58.5t-8.5 53.5t-21 49t-40.5 30.5t-66 13.5q-77 -6 -262.5 -32t-300.5 -30zM125 1522q14 63 75.5 101t133.5 38q93 0 139 -62l96 -178l82 125q29 45 60 111q93 0 158.5 -30.5t83.5 -91t-50 -149.5
l-115 -135q-53 -62 -91 -83t-105 -21q-148 0 -221 47z" />
    <glyph glyph-name="Sacute" unicode="&#x15a;" horiz-adv-x="1206" 
d="M27 272q0 66 29 125.5t85 94.5q73 -58 176 -95t201 -37q33 0 53.5 1.5t46.5 7.5t39 21.5t13 39.5q0 22 -21 37t-57 24.5t-82.5 18t-97.5 21t-102.5 29.5t-98.5 48.5t-83 73.5t-58 107.5t-23 148.5q0 214 163.5 336.5t471.5 122.5q239 0 366.5 -73t127.5 -208
q0 -65 -39.5 -121.5t-118.5 -85.5q-167 117 -400 117q-28 0 -44.5 -1t-41.5 -5.5t-37 -17t-12 -31.5q0 -25 38 -44t99 -34.5t134.5 -34.5t147.5 -51.5t135 -76.5t99 -117t38 -167q-8 -233 -159.5 -352t-471.5 -119q-516 0 -516 297zM365 1616q0 37 26 70l297 368
q72 -11 137 -57t90 -111q20 -42 12.5 -95t-46.5 -83l-338 -268q-64 22 -121 70t-57 106z" />
    <glyph glyph-name="sacute" unicode="&#x15b;" horiz-adv-x="1212" 
d="M92 221q0 62 35 113.5t96 79.5q165 -105 369 -105q65 0 65 37q0 17 -30 28t-78.5 19.5t-106.5 19.5t-116 33t-106.5 54t-78.5 89t-30 132q0 170 150.5 269.5t434.5 99.5q224 0 344.5 -60.5t120.5 -173.5q0 -58 -43.5 -109t-130.5 -77q-57 45 -159.5 75.5t-196.5 30.5
q-78 0 -78 -35q0 -14 33.5 -26.5t86.5 -24.5t117.5 -27.5t129 -42t117.5 -62t86.5 -93t33.5 -129.5q0 -171 -142 -266t-440 -95q-106 0 -190.5 13t-151.5 40.5t-104 76.5t-37 116zM444 1317q0 35 27 69l297 369q72 -11 137 -57t90 -111q20 -42 12.5 -95t-46.5 -83l-338 -268
q-64 22 -121.5 70t-57.5 106z" />
    <glyph glyph-name="Scircumflex" unicode="&#x15c;" horiz-adv-x="1206" 
d="M27 272q0 66 29 125.5t85 94.5q73 -58 176 -95t201 -37q33 0 53.5 1.5t46.5 7.5t39 21.5t13 39.5q0 22 -21 37t-57 24.5t-82.5 18t-97.5 21t-102.5 29.5t-98.5 48.5t-83 73.5t-58 107.5t-23 148.5q0 214 163.5 336.5t471.5 122.5q239 0 366.5 -73t127.5 -208
q0 -65 -39.5 -121.5t-118.5 -85.5q-167 117 -400 117q-28 0 -44.5 -1t-41.5 -5.5t-37 -17t-12 -31.5q0 -25 38 -44t99 -34.5t134.5 -34.5t147.5 -51.5t135 -76.5t99 -117t38 -167q-8 -233 -159.5 -352t-471.5 -119q-516 0 -516 297zM210 1551q-18 60 50 149l111 135
q50 62 89 83t107 21q148 0 221 -47l248 -319q-14 -63 -75.5 -101t-133.5 -38q-94 0 -139 61l-98 170l-78 -125q-28 -42 -59 -110q-93 0 -159 30.5t-84 90.5z" />
    <glyph glyph-name="scircumflex" unicode="&#x15d;" horiz-adv-x="1214" 
d="M92 221q0 62 35 113.5t96 79.5q165 -105 369 -105q65 0 65 37q0 17 -30 28t-78.5 19.5t-106.5 19.5t-116 33t-106.5 54t-78.5 89t-30 132q0 170 150.5 269.5t434.5 99.5q224 0 344.5 -60.5t120.5 -173.5q0 -58 -43.5 -109t-130.5 -77q-57 45 -159.5 75.5t-196.5 30.5
q-78 0 -78 -35q0 -14 33.5 -26.5t86.5 -24.5t117.5 -27.5t129 -42t117.5 -62t86.5 -93t33.5 -129.5q0 -171 -142 -266t-440 -95q-106 0 -190.5 13t-151.5 40.5t-104 76.5t-37 116zM251 1258q-18 60 50 149l111 135q50 62 89 83.5t107 21.5q147 0 221 -48l248 -319
q-14 -63 -75.5 -101t-133.5 -38q-94 0 -139 61l-98 170l-78 -125q-28 -42 -59 -110q-93 0 -159 30.5t-84 90.5z" />
    <glyph glyph-name="Scedilla" unicode="&#x15e;" horiz-adv-x="1206" 
d="M27 272q0 66 29 125.5t85 94.5q73 -58 176 -95t201 -37q33 0 53.5 1.5t46.5 7.5t39 21.5t13 39.5q0 22 -21 37t-57 24.5t-82.5 18t-97.5 21t-102.5 29.5t-98.5 48.5t-83 73.5t-58 107.5t-23 148.5q0 214 163.5 336.5t471.5 122.5q239 0 366.5 -73t127.5 -208
q0 -65 -39.5 -121.5t-118.5 -85.5q-167 117 -400 117q-28 0 -44.5 -1t-41.5 -5.5t-37 -17t-12 -31.5q0 -25 38 -44t99 -34.5t134.5 -34.5t147.5 -51.5t135 -76.5t99 -117t38 -167q-8 -201 -120 -316t-345 -144l-15 -70q128 -13 200.5 -83.5t72.5 -168.5q0 -75 -32 -130.5
t-88.5 -87.5t-124 -47t-147.5 -15q-247 0 -247 184q0 70 39 123q78 -45 213 -45q86 0 86 35q0 18 -26.5 24t-64 7t-75 6.5t-64 29.5t-26.5 68q0 23 6 53l24 111q-413 28 -413 292z" />
    <glyph glyph-name="scedilla" unicode="&#x15f;" horiz-adv-x="1212" 
d="M92 221q0 62 35 113.5t96 79.5q165 -105 369 -105q65 0 65 37q0 17 -30 28t-78.5 19.5t-106.5 19.5t-116 33t-106.5 54t-78.5 89t-30 132q0 170 150.5 269.5t434.5 99.5q224 0 344.5 -60.5t120.5 -173.5q0 -58 -43.5 -109t-130.5 -77q-57 45 -159.5 75.5t-196.5 30.5
q-78 0 -78 -35q0 -14 33.5 -26.5t86.5 -24.5t117.5 -27.5t129 -42t117.5 -62t86.5 -93t33.5 -129.5q0 -151 -109.5 -242.5t-338.5 -111.5l-13 -66q128 -13 200.5 -83.5t72.5 -168.5q0 -75 -32 -130.5t-88 -87.5t-123.5 -47t-147.5 -15q-248 0 -248 184q0 70 39 123
q78 -45 213 -45q86 0 86 35q0 18 -26.5 24t-64 7t-75 6.5t-64 29.5t-26.5 68q0 23 6 53l24 113q-350 31 -350 239z" />
    <glyph glyph-name="Scaron" unicode="&#x160;" horiz-adv-x="1206" 
d="M27 272q0 66 29 125.5t85 94.5q73 -58 176 -95t201 -37q33 0 53.5 1.5t46.5 7.5t39 21.5t13 39.5q0 22 -21 37t-57 24.5t-82.5 18t-97.5 21t-102.5 29.5t-98.5 48.5t-83 73.5t-58 107.5t-23 148.5q0 214 163.5 336.5t471.5 122.5q239 0 366.5 -73t127.5 -208
q0 -65 -39.5 -121.5t-118.5 -85.5q-167 117 -400 117q-28 0 -44.5 -1t-41.5 -5.5t-37 -17t-12 -31.5q0 -25 38 -44t99 -34.5t134.5 -34.5t147.5 -51.5t135 -76.5t99 -117t38 -167q-8 -233 -159.5 -352t-471.5 -119q-516 0 -516 297zM156 1825q14 63 75.5 101t133.5 38
q94 0 139 -61l96 -179l82 125q26 40 59 111q93 0 159 -30.5t84 -90.5t-50 -149l-115 -136q-53 -62 -91 -83t-105 -21q-149 0 -222 47z" />
    <glyph glyph-name="scaron" unicode="&#x161;" horiz-adv-x="1212" 
d="M92 221q0 62 35 113.5t96 79.5q165 -105 369 -105q65 0 65 37q0 17 -30 28t-78.5 19.5t-106.5 19.5t-116 33t-106.5 54t-78.5 89t-30 132q0 170 150.5 269.5t434.5 99.5q224 0 344.5 -60.5t120.5 -173.5q0 -58 -43.5 -109t-130.5 -77q-57 45 -159.5 75.5t-196.5 30.5
q-78 0 -78 -35q0 -14 33.5 -26.5t86.5 -24.5t117.5 -27.5t129 -42t117.5 -62t86.5 -93t33.5 -129.5q0 -171 -142 -266t-440 -95q-106 0 -190.5 13t-151.5 40.5t-104 76.5t-37 116zM231 1532q14 63 75.5 101t133.5 38q95 0 140 -61l96 -178l82 124q26 40 59 111
q93 0 159 -30.5t84 -90.5t-50 -149l-115 -135q-53 -62 -91.5 -83.5t-105.5 -21.5q-148 0 -221 47z" />
    <glyph glyph-name="Tcommaaccent" unicode="&#x162;" horiz-adv-x="1304" 
d="M-31 1165q0 122 68.5 178t245.5 56q81 0 308.5 -13.5t307.5 -13.5q160 0 291 49q43 -73 66.5 -134t23.5 -126q0 -56 -14.5 -95.5t-50.5 -71.5t-103.5 -48t-167.5 -16h-45q-22 -3 -22 -31v-545q8 -156 53 -286q-26 -7 -87 -22.5t-93.5 -23.5t-77.5 -18.5t-75.5 -15
t-51.5 -4.5q-34 0 -60.5 12t-43.5 35t-28.5 50t-17.5 65.5t-8.5 71.5t-3.5 77v659q-23 2 -61 2q-141 0 -265 -67q-88 159 -88 276zM391 -567q61 28 99 74.5t38 103.5q0 36 -26.5 93.5t-26.5 86.5q0 74 69 120t150 46q58 0 103.5 -23t73 -60.5t41.5 -82t14 -92.5
q0 -95 -44.5 -180t-127 -138t-181.5 -53q-134 0 -182 105z" />
    <glyph glyph-name="tcommaaccent" unicode="&#x163;" horiz-adv-x="968" 
d="M51 1305q323 81 404 81q46 0 77 -19.5t46 -56t20.5 -74t5.5 -87.5v-59q130 0 264 45q7 -39 23.5 -108t27.5 -122.5t11 -79.5q0 -112 -185 -112h-141v-135q0 -261 266 -285q-7 -91 -35.5 -152.5t-78 -95t-108.5 -47.5t-138 -14q-77 0 -145.5 24t-128.5 74.5t-96.5 141.5
t-37.5 212v627q-10 146 -51 242zM254 -567q61 28 99 74.5t38 103.5q0 36 -26.5 93.5t-26.5 86.5q0 74 69 120t150 46q76 0 130 -39.5t77.5 -96.5t23.5 -122q0 -95 -44.5 -180t-126.5 -138t-181 -53q-134 0 -182 105z" />
    <glyph glyph-name="Tcaron" unicode="&#x164;" horiz-adv-x="1304" 
d="M-31 1165q0 -117 88 -276q124 67 265 67q38 0 61 -2v-659q1 -44 3.5 -77t8.5 -71.5t17.5 -65.5t28.5 -50t43.5 -35t60.5 -12q21 0 51.5 4.5t75.5 15t77.5 18.5t93.5 23.5t87 22.5q-45 130 -53 286v545q0 28 22 31h45q100 0 167.5 16t103.5 48t50.5 71.5t14.5 95.5
q0 65 -23.5 126t-66.5 134q-131 -49 -291 -49q-80 0 -307.5 13.5t-308.5 13.5q-177 0 -245.5 -56t-68.5 -178zM209 1821q14 63 75.5 101t133.5 38q93 0 139 -62l96 -178l82 125q29 45 60 111q54 0 101 -10.5t82 -33.5t51.5 -54t7 -76t-49.5 -96l-115 -136q-53 -62 -91 -83
t-105 -21q-148 0 -221 47z" />
    <glyph glyph-name="tcaron" unicode="&#x165;" horiz-adv-x="1452" 
d="M51 1305q41 -96 51 -242v-627q1 -121 37.5 -212t96.5 -141.5t128.5 -74.5t145.5 -24q79 0 138 14t108.5 47.5t78 95t35.5 152.5q-266 24 -266 285v135h105q184 0 184 112q0 26 -11 79.5t-27.5 122.5t-23.5 108q-79 -26 -123 -35.5t-104 -9.5v59q0 50 -5.5 87.5t-20.5 74
t-46 56t-77 19.5q-81 0 -404 -81zM932 868q61 28 99 75t38 104q0 36 -26.5 93.5t-26.5 86.5q0 74 69 120t150 46q76 0 130 -39.5t77.5 -96.5t23.5 -122q0 -95 -44.5 -180t-126.5 -138t-181 -53q-134 0 -182 104z" />
    <glyph glyph-name="Utilde" unicode="&#x168;" horiz-adv-x="1507" 
d="M20 1262q0 -100 46.5 -175.5t142.5 -93.5v-401q0 -116 21.5 -210t56 -157t87 -110t105.5 -73.5t120.5 -42t123 -20t121.5 -4.5t121 4.5t122.5 20t120.5 42t105 73.5t86.5 110t56 157t21.5 210v487q-2 69 -7.5 115.5t-21.5 96t-49.5 75t-83.5 25.5q-21 0 -51.5 -4.5
t-74.5 -15t-77.5 -18.5t-92 -23.5t-87.5 -22.5q45 -129 53 -287v-485q0 -101 -38 -142t-103 -41q-144 0 -144 183v593q0 34 -0.5 53.5t-3.5 51t-8 50.5t-15.5 42t-25.5 35.5t-38 21.5t-52 9q-33 -3 -217 -27t-313 -31q-7 -40 -7 -71zM391 1602q0 185 215 192q66 0 192 -16.5
t163 -16.5q105 0 139 86q81 -9 127 -57.5t49 -124.5q0 -96 -64 -145.5t-170 -49.5q-56 0 -164 15.5t-159 15.5q-114 0 -154 -78q-78 8 -126 57t-48 122z" />
    <glyph glyph-name="utilde" unicode="&#x169;" horiz-adv-x="1456" 
d="M-10 1028q0 -41 2.5 -72t13.5 -72t30.5 -67.5t56.5 -46t89 -20.5v-383q0 -201 83.5 -296.5t228.5 -95.5q125 0 213 66t159 209v-23q1 -43 4 -72t12.5 -64t25 -56.5t43.5 -36t67 -14.5q31 0 97 13t165.5 36.5t144.5 32.5q-43 105 -51 223v563q-1 30 -2.5 50.5t-5.5 47.5
t-10 45t-17 37.5t-26 31t-37.5 19t-50.5 7.5q-49 0 -408 -82q41 -105 49 -222v-237q0 -96 -29.5 -151.5t-74.5 -55.5q-72 0 -72 86v457q0 37 -1 58.5t-8.5 53.5t-21 49t-40.5 30.5t-66 13.5q-77 -6 -262.5 -32t-300.5 -30zM301 1329q0 52 17 89.5t48 59t67.5 32t82.5 12.5
q66 0 191.5 -16.5t162.5 -16.5q106 0 140 86q81 -9 127 -57.5t49 -124.5q0 -96 -64 -145.5t-170 -49.5q-56 0 -164 15.5t-159 15.5q-114 0 -154 -78q-78 8 -126 56.5t-48 121.5z" />
    <glyph glyph-name="Umacron" unicode="&#x16a;" horiz-adv-x="1507" 
d="M20 1262q0 31 7 71q129 7 313 31t217 27q29 0 52 -9t38 -21.5t25.5 -35.5t15.5 -42t8 -50.5t3.5 -51t0.5 -53.5v-593q0 -183 144 -183q65 0 103 41t38 142v485q-8 158 -53 287q29 7 87.5 22.5t92 23.5t77.5 18.5t74.5 15t51.5 4.5q50 0 83.5 -25.5t49.5 -75t21.5 -96
t7.5 -115.5v-487q0 -116 -21.5 -210t-56 -157t-86.5 -110t-105 -73.5t-120.5 -42t-122.5 -20t-121 -4.5t-121.5 4.5t-123 20t-120.5 42t-105.5 73.5t-87 110t-56 157t-21.5 210v401q-96 18 -142.5 93.5t-46.5 175.5zM477 1597q0 78 48.5 123t140.5 45q51 0 212.5 -10
t186.5 -10q82 0 127 18q43 -71 43 -149q0 -76 -46 -120.5t-132 -47.5q-57 0 -221 10t-189 10q-82 0 -127 -18q-43 76 -43 149z" />
    <glyph glyph-name="umacron" unicode="&#x16b;" horiz-adv-x="1456" 
d="M-10 1028q115 4 300.5 30t262.5 32q39 0 66 -13.5t40.5 -30.5t21 -49t8.5 -53.5t1 -58.5v-457q0 -86 72 -86q45 0 74.5 55.5t29.5 151.5v237q-8 117 -49 222q359 82 408 82q28 0 50.5 -7.5t37.5 -19t26 -31t17 -37.5t10 -45t5.5 -47.5t2.5 -50.5v-563q8 -118 51 -223
q-45 -9 -144.5 -32.5t-165.5 -36.5t-97 -13q-39 0 -67 14.5t-43.5 36t-25 56.5t-12.5 64t-4 72v23q-71 -143 -159 -209t-213 -66q-145 0 -228.5 95.5t-83.5 296.5v383q-52 1 -89 20.5t-56.5 46t-30.5 67.5t-13.5 72t-2.5 72zM385 1323q0 78 48 123t140 45q51 0 213 -10.5
t187 -10.5q79 0 127 19q43 -71 43 -150q0 -76 -46 -120.5t-132 -47.5q-57 0 -221 10.5t-189 10.5q-82 0 -127 -18q-43 76 -43 149z" />
    <glyph glyph-name="Ubreve" unicode="&#x16c;" horiz-adv-x="1507" 
d="M20 1262q0 -100 46.5 -175.5t142.5 -93.5v-401q0 -116 21.5 -210t56 -157t87 -110t105.5 -73.5t120.5 -42t123 -20t121.5 -4.5t121 4.5t122.5 20t120.5 42t105 73.5t86.5 110t56 157t21.5 210v487q-2 69 -7.5 115.5t-21.5 96t-49.5 75t-83.5 25.5q-21 0 -51.5 -4.5
t-74.5 -15t-77.5 -18.5t-92 -23.5t-87.5 -22.5q45 -129 53 -287v-485q0 -101 -38 -142t-103 -41q-144 0 -144 183v593q0 34 -0.5 53.5t-3.5 51t-8 50.5t-15.5 42t-25.5 35.5t-38 21.5t-52 9q-33 -3 -217 -27t-313 -31q-7 -40 -7 -71zM428 1669q0 67 44 115.5t134 56.5
q49 -61 108.5 -92t116.5 -31t117 31t111 92q87 -9 131.5 -57t44.5 -115q0 -110 -113 -186.5t-291 -77.5q-178 1 -290.5 77.5t-112.5 186.5z" />
    <glyph glyph-name="ubreve" unicode="&#x16d;" horiz-adv-x="1456" 
d="M-10 1028q0 -41 2.5 -72t13.5 -72t30.5 -67.5t56.5 -46t89 -20.5v-383q0 -201 83.5 -296.5t228.5 -95.5q125 0 213 66t159 209v-23q1 -43 4 -72t12.5 -64t25 -56.5t43.5 -36t67 -14.5q31 0 97 13t165.5 36.5t144.5 32.5q-43 105 -51 223v563q-1 30 -2.5 50.5t-5.5 47.5
t-10 45t-17 37.5t-26 31t-37.5 19t-50.5 7.5q-49 0 -408 -82q41 -105 49 -222v-237q0 -96 -29.5 -151.5t-74.5 -55.5q-72 0 -72 86v457q0 37 -1 58.5t-8.5 53.5t-21 49t-40.5 30.5t-66 13.5q-77 -6 -262.5 -32t-300.5 -30zM360 1389q0 67 44.5 115.5t134.5 56.5
q49 -61 108.5 -92t116.5 -31q56 0 116 31t111 92q87 -9 131.5 -57t44.5 -115q0 -110 -112.5 -187t-290.5 -78q-178 1 -291 78t-113 187z" />
    <glyph glyph-name="Uring" unicode="&#x16e;" horiz-adv-x="1507" 
d="M20 1262q0 -100 46.5 -175.5t142.5 -93.5v-401q0 -116 21.5 -210t56 -157t87 -110t105.5 -73.5t120.5 -42t123 -20t121.5 -4.5t121 4.5t122.5 20t120.5 42t105 73.5t86.5 110t56 157t21.5 210v487q-2 69 -7.5 115.5t-21.5 96t-49.5 75t-83.5 25.5q-21 0 -51.5 -4.5
t-74.5 -15t-77.5 -18.5t-92 -23.5t-87.5 -22.5q45 -129 53 -287v-485q0 -101 -38 -142t-103 -41q-144 0 -144 183v593q0 34 -0.5 53.5t-3.5 51t-8 50.5t-15.5 42t-25.5 35.5t-38 21.5t-52 9q-33 -3 -217 -27t-313 -31q-7 -40 -7 -71zM559 1626q0 115 84 195t242 80
q133 0 208.5 -64t75.5 -186q0 -124 -79 -195.5t-232 -71.5q-147 0 -223 64.5t-76 177.5zM803 1636q0 -73 69 -73q28 0 49 20.5t21 58.5q0 74 -65 74q-30 0 -52 -22t-22 -58z" />
    <glyph glyph-name="uring" unicode="&#x16f;" horiz-adv-x="1456" 
d="M-10 1028q0 -41 2.5 -72t13.5 -72t30.5 -67.5t56.5 -46t89 -20.5v-383q0 -201 83.5 -296.5t228.5 -95.5q125 0 213 66t159 209v-23q1 -43 4 -72t12.5 -64t25 -56.5t43.5 -36t67 -14.5q31 0 97 13t165.5 36.5t144.5 32.5q-43 105 -51 223v563q-1 30 -2.5 50.5t-5.5 47.5
t-10 45t-17 37.5t-26 31t-37.5 19t-50.5 7.5q-49 0 -408 -82q41 -105 49 -222v-237q0 -96 -29.5 -151.5t-74.5 -55.5q-72 0 -72 86v457q0 37 -1 58.5t-8.5 53.5t-21 49t-40.5 30.5t-66 13.5q-77 -6 -262.5 -32t-300.5 -30zM483 1362q0 115 84 194.5t242 79.5q133 0 209 -64
t76 -186q0 -123 -79.5 -194.5t-232.5 -71.5q-147 0 -223 64.5t-76 177.5zM727 1372q0 -74 70 -74q28 0 48.5 21t20.5 59q0 74 -65 74q-30 0 -52 -22t-22 -58z" />
    <glyph glyph-name="Uhungarumlaut" unicode="&#x170;" horiz-adv-x="1507" 
d="M20 1262q0 31 7 71q129 7 313 31t217 27q29 0 52 -9t38 -21.5t25.5 -35.5t15.5 -42t8 -50.5t3.5 -51t0.5 -53.5v-593q0 -183 144 -183q65 0 103 41t38 142v485q-8 158 -53 287q29 7 87.5 22.5t92 23.5t77.5 18.5t74.5 15t51.5 4.5q50 0 83.5 -25.5t49.5 -75t21.5 -96
t7.5 -115.5v-487q0 -116 -21.5 -210t-56 -157t-86.5 -110t-105 -73.5t-120.5 -42t-122.5 -20t-121 -4.5t-121.5 4.5t-123 20t-120.5 42t-105.5 73.5t-87 110t-56 157t-21.5 210v401q-96 18 -142.5 93.5t-46.5 175.5zM365 1579q0 37 28 72l297 366q153 -20 207 -151
q18 -42 9.5 -96t-46.5 -84l-338 -267q-63 21 -110 61.5t-47 98.5zM856 1579q0 35 27 72l297 366q152 -20 206 -151q18 -42 10 -96t-46 -84l-338 -267q-62 22 -109 62t-47 98z" />
    <glyph glyph-name="uhungarumlaut" unicode="&#x171;" horiz-adv-x="1456" 
d="M-10 1028q115 4 300.5 30t262.5 32q39 0 66 -13.5t40.5 -30.5t21 -49t8.5 -53.5t1 -58.5v-457q0 -86 72 -86q45 0 74.5 55.5t29.5 151.5v237q-8 117 -49 222q359 82 408 82q28 0 50.5 -7.5t37.5 -19t26 -31t17 -37.5t10 -45t5.5 -47.5t2.5 -50.5v-563q8 -118 51 -223
q-45 -9 -144.5 -32.5t-165.5 -36.5t-97 -13q-39 0 -67 14.5t-43.5 36t-25 56.5t-12.5 64t-4 72v23q-71 -143 -159 -209t-213 -66q-145 0 -228.5 95.5t-83.5 296.5v383q-52 1 -89 20.5t-56.5 46t-30.5 67.5t-13.5 72t-2.5 72zM266 1282q0 36 29 72l297 366q153 -20 207 -151
q18 -42 9.5 -96t-46.5 -84l-338 -267q-63 21 -110.5 61.5t-47.5 98.5zM758 1282q0 36 26 72l297 366q153 -20 207 -151q18 -42 9.5 -96t-46.5 -84l-338 -267q-62 22 -108.5 62t-46.5 98z" />
    <glyph glyph-name="Uogonek" unicode="&#x172;" horiz-adv-x="1507" 
d="M20 1262q0 31 7 71q129 7 313 31t217 27q29 0 52 -9t38 -21.5t25.5 -35.5t15.5 -42t8 -50.5t3.5 -51t0.5 -53.5v-593q0 -183 144 -183q65 0 103 41t38 142v485q-8 158 -53 287q29 7 87.5 22.5t92 23.5t77.5 18.5t74.5 15t51.5 4.5q50 0 83.5 -25.5t49.5 -75t21.5 -96
t7.5 -115.5v-487q0 -499 -394 -592q-70 -17 -107.5 -47t-37.5 -88q0 -35 20 -58.5t58 -23.5q42 0 76 12q36 -59 36 -110q0 -96 -76.5 -150.5t-217.5 -54.5q-118 0 -185 62.5t-67 160.5q0 151 145 277q-58 5 -108 15t-104 31t-97.5 51t-83 77.5t-66.5 108t-43 144.5t-16 185
v401q-96 18 -142.5 93.5t-46.5 175.5z" />
    <glyph glyph-name="uogonek" unicode="&#x173;" horiz-adv-x="1478" 
d="M-10 1028q116 4 312 30t271 32q28 0 50 -7t36.5 -17t24.5 -27.5t15 -33t8 -39.5t3.5 -39.5t0.5 -41.5v-457q0 -86 71 -86q46 0 75.5 55.5t29.5 151.5v237q-8 117 -49 222q359 82 407 82q39 0 67 -14.5t43 -34.5t24 -55.5t12 -63t4 -70.5v-563q8 -116 53 -226
q-84 -26 -137.5 -76.5t-53.5 -127.5q0 -32 18.5 -54t57.5 -22q41 0 76 12q37 -61 37 -110q0 -96 -77 -150.5t-218 -54.5q-118 0 -185 62.5t-67 160.5q0 155 150 281h-11q-39 0 -67 14.5t-43.5 35.5t-24.5 57t-12 64.5t-4 71.5v23q-71 -143 -159.5 -209t-213.5 -66
q-145 0 -228 95.5t-83 296.5v383q-52 1 -91 20t-62 47t-37 66.5t-18.5 73t-4.5 71.5z" />
    <glyph glyph-name="wcircumflex" unicode="&#x175;" horiz-adv-x="1818" 
d="M-37 819q48 0 84 -49t57.5 -130t36.5 -163.5t31 -172t31 -132.5q67 -197 297 -197q115 0 288 56q-8 33 -8 75q0 55 17 107l96 307l72 -325q59 -220 303 -220q118 0 291 56q-11 50 -11 59q0 70 35.5 169.5t77.5 185.5t77.5 195.5t35.5 195.5q0 65 -23.5 115t-64 79.5
t-89 44.5t-102.5 15q-89 0 -164.5 -35.5t-105.5 -98.5q65 -42 65 -153q0 -39 -11 -93.5t-21.5 -91t-29.5 -95t-22 -68.5l-94 311q-22 71 -53.5 105t-89.5 34h-111q-60 0 -88.5 -32t-54.5 -107l-99 -279q-8 90 -16 155t-21.5 131.5t-31.5 112t-45 87t-62.5 65.5t-82.5 38
t-107 14q-121 0 -198.5 -65t-88.5 -206zM485 1155.5q-18 60.5 50 149.5l110 135q50 62 89.5 83t107.5 21q148 0 221 -47l248 -319q-14 -63 -76 -101.5t-133 -38.5q-93 0 -139 62l-99 170l-78 -125q-26 -40 -59 -111q-93 0 -158.5 30.5t-83.5 91z" />
    <glyph glyph-name="Ycircumflex" unicode="&#x176;" horiz-adv-x="1411" 
d="M-8 1128q94 0 188 -174l197 -397q35 -68 35 -149v-113q1 -45 3.5 -77.5t8.5 -71t17.5 -65t28.5 -50.5t43.5 -35.5t61.5 -11.5q21 0 51 4.5t74 14.5t77 18t93 23l88 22q-43 123 -43 241q0 65 33 127q37 68 99 148t119 146t110.5 136.5t86 144.5t32.5 144q0 103 -69 170.5
t-198 67.5q-79 0 -148.5 -32.5t-109.5 -94.5q35 -43 35 -107q0 -42 -18 -97.5t-34.5 -89t-50.5 -94.5t-38 -69q-26 69 -43 113.5t-41 101.5t-42.5 93.5t-43 79.5t-47.5 69t-52 53t-58.5 41.5t-65.5 23.5t-76 9q-59 0 -106 -11.5t-89 -39.5t-69.5 -81.5t-38.5 -130.5z
M308 1516q-18 60 50 149l111 135q50 62 89.5 83.5t107.5 21.5q148 0 221 -47l248 -320q-14 -63 -75.5 -101t-133.5 -38q-95 0 -140 61l-98 170l-78 -125q-28 -42 -59 -110q-93 0 -159 30.5t-84 90.5z" />
    <glyph glyph-name="ycircumflex" unicode="&#x177;" horiz-adv-x="1409" 
d="M-10 1028q0 -41 2.5 -72t13.5 -72t30.5 -67.5t56.5 -46t89 -20.5v-383q0 -202 83 -297t229 -95q126 0 214.5 65t161.5 220q0 -56 -5.5 -108.5t-23 -113t-45 -105t-76 -74t-112.5 -29.5q-100 0 -168 59q-59 -29 -90 -81t-31 -119q0 -123 94 -206t265 -83q123 0 223.5 36
t171.5 96.5t124 151.5t85 190t52 223.5t27 240.5t7 252v262q-1 30 -2.5 50.5t-5.5 47.5t-10 45t-17 37.5t-26 31t-37.5 19t-50.5 7.5q-8 0 -17 -1t-22.5 -3t-26 -4t-34.5 -6.5t-40 -8.5t-50 -11.5t-57 -13.5t-69.5 -16t-79.5 -18q38 -98 47 -222v-237q0 -95 -31 -151
t-77 -56q-72 0 -72 86v457q0 37 -1 58.5t-8.5 53.5t-21 49t-40.5 30.5t-66 13.5q-77 -6 -262.5 -32t-300.5 -30zM343 1270q-18 60 50 149l111 135q50 62 89 83.5t107 21.5q149 0 222 -47l247 -320q-14 -63 -75.5 -101t-132.5 -38q-95 0 -140 61l-98 170l-78 -124
q-26 -40 -59 -111q-93 0 -159 30.5t-84 90.5z" />
    <glyph glyph-name="Ydieresis" unicode="&#x178;" horiz-adv-x="1411" 
d="M-8 1128q94 0 188 -174l197 -397q35 -68 35 -149v-113q1 -45 3.5 -77.5t8.5 -71t17.5 -65t28.5 -50.5t43.5 -35.5t61.5 -11.5q21 0 51 4.5t74 14.5t77 18t93 23l88 22q-43 123 -43 241q0 65 33 127q37 68 99 148t119 146t110.5 136.5t86 144.5t32.5 144q0 103 -69 170.5
t-198 67.5q-79 0 -148.5 -32.5t-109.5 -94.5q35 -43 35 -107q0 -42 -18 -97.5t-34.5 -89t-50.5 -94.5t-38 -69q-26 69 -43 113.5t-41 101.5t-42.5 93.5t-43 79.5t-47.5 69t-52 53t-58.5 41.5t-65.5 23.5t-76 9q-59 0 -106 -11.5t-89 -39.5t-69.5 -81.5t-38.5 -130.5z
M250 1614q0 84 65.5 149.5t176.5 65.5q100 0 151 -47.5t51 -128.5q0 -84 -65.5 -150.5t-175.5 -66.5q-101 0 -152 48.5t-51 129.5zM766 1614q0 84 65.5 149.5t176.5 65.5q100 0 151 -47.5t51 -128.5q0 -84 -65.5 -150.5t-175.5 -66.5q-101 0 -152 48.5t-51 129.5z" />
    <glyph glyph-name="Zacute" unicode="&#x179;" horiz-adv-x="1265" 
d="M29 236q0 79 34.5 152.5t96.5 125.5l596 440h-371q-148 0 -270 -41q-5 12 -18 43.5t-17.5 42t-14 35t-12.5 36.5t-8 30t-6.5 33t-1.5 30q0 109 83 172.5t257 63.5l522 -27q135 0 189.5 3.5t93.5 19.5q63 -110 63 -262q0 -52 -14.5 -100.5t-34.5 -84t-57 -76.5t-66 -67.5
t-78 -67.5l-405 -307q43 -5 207.5 -33t253.5 -28q91 0 174 24q59 -98 59 -211q0 -117 -80 -189.5t-223 -72.5q-110 0 -246.5 28t-267.5 55.5t-227 27.5q-78 0 -123 -23q-88 98 -88 228zM426 1612q0 34 27 69l297 369q72 -11 137 -57t90 -111q20 -42 12 -95t-47 -83
l-338 -268q-64 22 -121 70t-57 106z" />
    <glyph glyph-name="zacute" unicode="&#x17a;" horiz-adv-x="1230" 
d="M61 879q0 98 77.5 154.5t242.5 56.5l473 -23h46h42.5t34 0.5t34 1.5t26.5 3t28 5.5t23.5 8t25.5 10.5q70 -126 70 -238q0 -55 -16.5 -99t-54 -82t-69.5 -61t-92 -61l-290 -160q32 0 122 -4t134 -4q119 0 231 23q72 -148 72 -234q0 -192 -285 -192q-104 0 -294.5 8
t-272.5 8q-130 0 -209 -12q-78 126 -78 229q0 125 111 203l501 276h-313q-131 0 -240 -32q-32 65 -43 88.5t-24 62t-13 64.5zM412 1315q0 36 26 69l297 369q72 -11 137.5 -57t90.5 -111q20 -42 12 -95t-47 -83l-338 -268q-64 22 -121 70t-57 106z" />
    <glyph glyph-name="Zdotaccent" unicode="&#x17b;" horiz-adv-x="1265" 
d="M29 236q0 -130 88 -228q45 23 123 23q96 0 227 -27.5t267.5 -55.5t246.5 -28q143 0 223 72.5t80 189.5q0 113 -59 211q-83 -24 -174 -24q-89 0 -253.5 28t-207.5 33l405 307q49 41 78 67.5t66 67.5t57 76.5t34.5 84t14.5 100.5q0 152 -63 262q-39 -16 -93.5 -19.5
t-189.5 -3.5l-522 27q-174 0 -257 -63.5t-83 -172.5q0 -15 1.5 -30t6.5 -33t8 -30t12.5 -36.5t14 -35t17.5 -42t18 -43.5q122 41 270 41h371l-596 -440q-62 -52 -96.5 -125.5t-34.5 -152.5zM449 1651q0 98 73.5 171.5t198.5 73.5q114 0 172.5 -54t58.5 -146
q0 -96 -74.5 -171t-199.5 -75q-113 0 -171 54t-58 147z" />
    <glyph glyph-name="zdotaccent" unicode="&#x17c;" horiz-adv-x="1230" 
d="M61 879q0 -26 13 -64.5t24 -62t43 -88.5q109 32 240 32h313l-501 -276q-111 -78 -111 -203q0 -103 78 -229q79 12 209 12q82 0 272.5 -8t294.5 -8q285 0 285 192q0 86 -72 234q-112 -23 -231 -23q-44 0 -134 4t-122 4l290 160q60 38 92 61t69.5 61t54 82t16.5 99
q0 112 -70 238q-12 -6 -25.5 -10.5t-23.5 -8t-28 -5.5t-26.5 -3t-34 -1.5t-34 -0.5h-42.5h-46l-473 23q-165 0 -242.5 -56.5t-77.5 -154.5zM424 1354q0 98 73.5 171.5t198.5 73.5q114 0 173 -54t59 -146q0 -96 -75 -171t-200 -75q-113 0 -171 54t-58 147z" />
    <glyph glyph-name="Zcaron" unicode="&#x17d;" horiz-adv-x="1265" 
d="M29 236q0 -130 88 -228q45 23 123 23q96 0 227 -27.5t267.5 -55.5t246.5 -28q143 0 223 72.5t80 189.5q0 113 -59 211q-83 -24 -174 -24q-89 0 -253.5 28t-207.5 33l405 307q49 41 78 67.5t66 67.5t57 76.5t34.5 84t14.5 100.5q0 152 -63 262q-39 -16 -93.5 -19.5
t-189.5 -3.5l-522 27q-174 0 -257 -63.5t-83 -172.5q0 -15 1.5 -30t6.5 -33t8 -30t12.5 -36.5t14 -35t17.5 -42t18 -43.5q122 41 270 41h371l-596 -440q-62 -52 -96.5 -125.5t-34.5 -152.5zM256 1806q14 63 76 101.5t133 38.5q93 0 139 -62l96 -178l82 125q29 45 60 111
q93 0 158.5 -30.5t83.5 -91t-50 -149.5l-114 -135q-52 -62 -91 -83t-106 -21q-148 0 -221 47z" />
    <glyph glyph-name="zcaron" unicode="&#x17e;" horiz-adv-x="1230" 
d="M61 879q0 -26 13 -64.5t24 -62t43 -88.5q109 32 240 32h313l-501 -276q-111 -78 -111 -203q0 -103 78 -229q79 12 209 12q82 0 272.5 -8t294.5 -8q285 0 285 192q0 86 -72 234q-112 -23 -231 -23q-44 0 -134 4t-122 4l290 160q60 38 92 61t69.5 61t54 82t16.5 99
q0 112 -70 238q-12 -6 -25.5 -10.5t-23.5 -8t-28 -5.5t-26.5 -3t-34 -1.5t-34 -0.5h-42.5h-46l-473 23q-165 0 -242.5 -56.5t-77.5 -154.5zM227 1538q14 63 75.5 101t133.5 38q94 0 139 -61l97 -178l82 125q28 42 59 110q93 0 159 -30.5t84 -90.5t-50 -149l-115 -135
q-53 -62 -91.5 -83.5t-105.5 -21.5q-148 0 -221 47z" />
    <glyph glyph-name="florin" unicode="&#x192;" horiz-adv-x="1003" 
d="M-217 -377q0 65 39 135q36 -20 74 -20q39 0 71.5 16.5t55.5 40.5t42 66t30.5 76.5t22 90.5t15.5 89.5t12 89.5l64 514l-164 -21q-29 76 -29 144q0 116 61.5 171.5t170.5 55.5h51q-2 18 -2 53q0 207 128.5 317.5t338.5 110.5q116 0 193 -52t77 -159q0 -59 -35 -137
q-41 6 -75 6q-159 0 -201 -139l287 21q18 -62 18 -127q0 -115 -67 -193t-195 -78q-2 0 -57 4l-68 -557q-13 -108 -39 -207t-74.5 -199t-113 -173t-161 -118.5t-212.5 -45.5q-119 0 -188.5 63.5t-69.5 161.5z" />
    <glyph glyph-name="AEacute" unicode="&#x1fc;" horiz-adv-x="1918" 
d="M55.5 87.5q-5.5 38.5 2.5 80.5t28 84l291 620q44 97 92 162q-96 -4 -150 -10q-45 82 -45 180q0 187 297 187h1037q136 0 215 20q63 -85 63 -203q0 -36 -9 -64t-23 -47t-36.5 -32t-44 -20t-51.5 -11t-52.5 -5t-53.5 -1h-293v-129q0 -23 6.5 -30t24.5 -7h368
q27 -69 27 -137q0 -193 -256 -193h-170v-133q0 -23 6.5 -30t24.5 -7h266q109 0 215 27q63 -85 63 -209q0 -36 -9 -64t-23 -47t-36.5 -32t-44 -20t-51.5 -11t-52.5 -5t-53.5 -1h-553q-52 0 -89 8t-70.5 30t-50.5 67t-17 114v27h-334l-106 -246h-226q-57 0 -89 24.5t-37.5 63z
M662 586q-10 -35 22 -35h164v477zM829 1647q0 35 27 69l297 369q72 -11 137 -57t90 -111q20 -42 12.5 -95t-46.5 -83l-338 -269q-64 22 -121.5 70.5t-57.5 106.5z" />
    <glyph glyph-name="aeacute" unicode="&#x1fd;" horiz-adv-x="1904" 
d="M20 303q0 92 40 161t109 108t151 58t176 19q118 0 227 -33q-10 132 -195 132q-91 0 -179.5 -23t-141.5 -66q-48 28 -77.5 76.5t-29.5 104.5q0 117 143.5 183.5t387.5 66.5q282 0 385 -144q57 70 153 107t209 37q95 0 183.5 -23t160 -65.5t114 -110.5t42.5 -152
q0 -82 -45.5 -143t-123.5 -95t-167 -49.5t-190 -15.5q-74 0 -164 17q29 -97 217 -97q200 0 336 88q42 -26 67 -80.5t25 -105.5q0 -72 -42 -127.5t-115.5 -89t-164.5 -50t-196 -16.5q-197 0 -319 47t-191 177q-51 -114 -160.5 -169t-243.5 -55q-105 0 -190.5 37t-138 112.5
t-52.5 178.5zM508 342q0 -43 24.5 -67.5t65.5 -24.5q57 0 89.5 41.5t35.5 124.5q-4 46 -4 69q-33 -1 -65 -7.5t-67 -21t-57 -44t-22 -70.5zM846 1266q0 36 26 69l297 369q72 -11 137.5 -57t90.5 -111q20 -42 12 -95t-47 -83l-338 -268q-64 22 -121 70t-57 106zM1204 592
q123 1 184.5 34.5t61.5 88.5q0 73 -82 73q-79 0 -120 -56.5t-44 -139.5z" />
    <glyph glyph-name="Scommaaccent" unicode="&#x218;" horiz-adv-x="1206" 
d="M27 272q0 66 29 125.5t85 94.5q73 -58 176 -95t201 -37q33 0 53.5 1.5t46.5 7.5t39 21.5t13 39.5q0 22 -21 37t-57 24.5t-82.5 18t-97.5 21t-102.5 29.5t-98.5 48.5t-83 73.5t-58 107.5t-23 148.5q0 214 163.5 336.5t471.5 122.5q239 0 366.5 -73t127.5 -208
q0 -65 -39.5 -121.5t-118.5 -85.5q-167 117 -400 117q-28 0 -44.5 -1t-41.5 -5.5t-37 -17t-12 -31.5q0 -25 38 -44t99 -34.5t134.5 -34.5t147.5 -51.5t135 -76.5t99 -117t38 -167q-8 -233 -159.5 -352t-471.5 -119q-516 0 -516 297zM326 -592q61 28 99 74.5t38 103.5
q0 36 -26.5 94t-26.5 87q0 74 69 119.5t150 45.5q76 0 130 -39.5t77.5 -96.5t23.5 -122q0 -95 -44.5 -179.5t-126.5 -137.5t-181 -53q-134 0 -182 104z" />
    <glyph glyph-name="scommaaccent" unicode="&#x219;" horiz-adv-x="1212" 
d="M92 221q0 62 35 113.5t96 79.5q165 -105 369 -105q65 0 65 37q0 17 -30 28t-78.5 19.5t-106.5 19.5t-116 33t-106.5 54t-78.5 89t-30 132q0 170 150.5 269.5t434.5 99.5q224 0 344.5 -60.5t120.5 -173.5q0 -58 -43.5 -109t-130.5 -77q-57 45 -159.5 75.5t-196.5 30.5
q-78 0 -78 -35q0 -14 33.5 -26.5t86.5 -24.5t117.5 -27.5t129 -42t117.5 -62t86.5 -93t33.5 -129.5q0 -171 -142 -266t-440 -95q-106 0 -190.5 13t-151.5 40.5t-104 76.5t-37 116zM328 -598q61 28 99 74.5t38 103.5q0 36 -26.5 93.5t-26.5 86.5q0 74 69 120t150 46
q76 0 130 -39.5t77.5 -96.5t23.5 -122q0 -95 -44.5 -179.5t-126.5 -137.5t-181 -53q-134 0 -182 104z" />
    <glyph glyph-name="circumflex" unicode="&#x2c6;" horiz-adv-x="950" 
d="M104.5 1114q9.5 45 49.5 96l110 136q50 62 89.5 83t107.5 21q148 0 221 -47l248 -320q-14 -63 -75.5 -101t-133.5 -38q-93 0 -139 62l-99 170l-77 -125q-29 -45 -60 -111q-54 0 -101 10.5t-82 33.5t-51.5 54t-7 76z" />
    <glyph glyph-name="caron" unicode="&#x2c7;" horiz-adv-x="950" 
d="M20 1315q14 63 75.5 101t133.5 38q95 0 140 -61l96 -179l82 125q26 40 59 111q93 0 159 -30.5t84 -90.5t-50 -149l-115 -136q-52 -62 -91 -83t-106 -21q-148 0 -221 47z" />
    <glyph glyph-name="breve" unicode="&#x2d8;" horiz-adv-x="860" 
d="M27 1245q0 67 44 115.5t134 56.5q49 -61 108.5 -92t116.5 -31q56 0 116 31t111 92q87 -9 132 -57.5t45 -114.5q0 -110 -113 -186.5t-291 -77.5q-178 1 -290.5 77.5t-112.5 186.5z" />
    <glyph glyph-name="dotaccent" unicode="&#x2d9;" horiz-adv-x="552" 
d="M25 1204q0 98 73.5 172t198.5 74q114 0 172.5 -54.5t58.5 -146.5q0 -96 -74.5 -170.5t-199.5 -74.5q-113 0 -171 53.5t-58 146.5z" />
    <glyph glyph-name="ring" unicode="&#x2da;" horiz-adv-x="661" 
d="M25 1225q0 115 83.5 194.5t241.5 79.5q133 0 209 -64t76 -186q0 -124 -79 -195t-232 -71q-147 0 -223 64.5t-76 177.5zM268 1235q0 -74 70 -74q28 0 49 21t21 59q0 74 -66 74q-30 0 -52 -22t-22 -58z" />
    <glyph glyph-name="ogonek" unicode="&#x2db;" horiz-adv-x="587" 
d="M23 -297q0 203 260 358l178 -49q-31 -25 -55.5 -69.5t-24.5 -83.5q0 -32 18.5 -54t57.5 -22q41 0 75 12q37 -61 37 -110q0 -96 -77 -150.5t-218 -54.5q-118 0 -184.5 62.5t-66.5 160.5z" />
    <glyph glyph-name="tilde" unicode="&#x2dc;" horiz-adv-x="931" 
d="M23 1202q0 52 17 89.5t48 59t67.5 32t82.5 12.5q66 0 191.5 -16.5t162.5 -16.5q105 0 139 86q81 -9 127 -57.5t49 -124.5q0 -96 -63.5 -145.5t-169.5 -49.5q-56 0 -164.5 15.5t-159.5 15.5q-113 0 -153 -78q-78 8 -126 56.5t-48 121.5z" />
    <glyph glyph-name="hungarumlaut" unicode="&#x2dd;" horiz-adv-x="1085" 
d="M23 1161q0 37 28 72l297 366q153 -20 207 -151q18 -42 9.5 -96t-46.5 -84l-338 -267q-63 21 -110 61.5t-47 98.5zM514 1161q0 35 27 72l297 366q152 -20 206 -151q18 -42 10 -96t-46 -84l-338 -267q-62 22 -109 62t-47 98z" />
    <glyph glyph-name="Delta" unicode="&#x394;" horiz-adv-x="1400" 
d="M55 172l475 1024q23 49 50.5 66.5t78.5 17.5h84q51 0 77 -16t52 -66l478 -1022q26 -78 -15 -127t-123 -49h-1015q-78 0 -125 52t-17 120zM477 293h434l-219 498z" />
    <glyph glyph-name="mu" unicode="&#x3bc;" horiz-adv-x="1546" 
d="M-10 1028q116 4 312 30t271 32q28 0 50 -7t36.5 -17t24.5 -27.5t15 -33t8 -39.5t3.5 -39.5t0.5 -41.5v-518q0 -62 19.5 -84.5t55.5 -22.5q71 0 120.5 73.5t49.5 215.5v237q-8 117 -49 222q359 82 408 82q28 0 50.5 -7.5t37.5 -19t26 -31t17 -37.5t10 -45t5.5 -47.5
t2.5 -50.5v-563q8 -115 52 -223q-45 -9 -145 -32.5t-166 -36.5t-97 -13q-39 0 -67.5 12.5t-44.5 31.5t-25.5 46.5t-12 51.5t-2.5 54v17h-6q-31 -115 -83.5 -164t-145.5 -49q-97 0 -135 77v-163q0 -124 59 -193t137 -76q-7 -114 -78 -171.5t-172 -57.5q-71 0 -128.5 21.5
t-103.5 68.5t-71.5 130.5t-25.5 197.5v932q-52 1 -91 20t-62 47t-37 66.5t-18.5 73t-4.5 71.5z" />
    <glyph glyph-name="afii10023" unicode="&#x401;" horiz-adv-x="1308" 
d="M14 1210q0 -98 66 -192q76 10 156 10v-809q0 -69 17 -114t50.5 -67t70.5 -30t89 -8h555q31 0 53.5 1t52.5 5t51.5 11t44 20t36.5 32t23 47t9 64q0 124 -63 209q-106 -27 -215 -27h-252q-18 0 -24.5 7t-6.5 30v133h156q256 0 256 193q0 68 -27 137h-354q-18 0 -24.5 7
t-6.5 30v129h279q31 0 53.5 1t52.5 5t51.5 11t44 20t36.5 32t23 47t9 64q0 116 -64 203q-79 -20 -215 -20h-768q-104 0 -159.5 -51t-55.5 -130zM174 1636q0 80 71 142.5t191 62.5q110 0 166.5 -45.5t56.5 -122.5q0 -81 -71 -144t-191 -63q-111 0 -167 46t-56 124zM733 1636
q0 80 71 142.5t191 62.5q110 0 167 -45.5t57 -122.5q0 -81 -71.5 -144t-191.5 -63q-111 0 -167 46t-56 124z" />
    <glyph glyph-name="afii10051" unicode="&#x402;" horiz-adv-x="1648" 
d="M-31 1165q0 122 68.5 178t245.5 56q81 0 308.5 -13.5t307.5 -13.5q160 0 291 49q43 -73 66.5 -134t23.5 -126q0 -74 -26 -118.5t-101.5 -70.5t-208.5 -26h-45q-22 -3 -22 -31v-253q63 111 174.5 168t234.5 57q202 0 319 -124.5t117 -338.5q0 -202 -121 -326.5
t-348 -124.5q-141 0 -219 62.5t-78 163.5q0 74 41 151q70 -18 125 -18q71 0 107.5 32.5t36.5 88.5q0 129 -160 129q-80 0 -149 -41.5t-80 -118.5v-68q9 -177 47 -286q-30 -7 -107.5 -27.5t-114.5 -29.5t-84.5 -18t-72.5 -9q-34 0 -60.5 12t-43.5 35t-28.5 50t-17.5 65.5
t-8.5 71.5t-3.5 77v676q-23 2 -61 2q-139 0 -265 -68q-45 81 -66.5 139t-21.5 121z" />
    <glyph glyph-name="afii10052" unicode="&#x403;" horiz-adv-x="1275" 
d="M16 1282q0 48 11 109h852q167 0 295 51q43 -77 66.5 -140.5t23.5 -132.5q0 -58 -14.5 -99.5t-50.5 -75t-104.5 -50t-170.5 -16.5h-199q-23 -3 -23 -31v-543q8 -153 54 -286q-26 -7 -87 -22.5t-93.5 -23.5t-77.5 -18.5t-75.5 -15t-51.5 -4.5q-34 0 -60.5 12t-43.5 35
t-28.5 50t-17.5 65.5t-8.5 71.5t-3.5 77v743q-109 20 -151 83t-42 161zM307 1616q0 36 27 70l297 368q72 -11 137 -57t90 -111q20 -42 12 -95t-47 -83l-338 -268q-64 22 -121 70t-57 106z" />
    <glyph glyph-name="afii10053" unicode="&#x404;" horiz-adv-x="1302" 
d="M82 657q0 82 8.5 154t30.5 148.5t58 138t94 117.5t134.5 94t183.5 60t238 22q92 -2 171.5 -17t150 -45.5t111.5 -84t41 -124.5q0 -66 -39.5 -115t-116.5 -73q-61 40 -144 62t-163 24q-225 0 -260 -150h372q86 0 86 -127v-75q0 -127 -86 -127h-385q10 -95 67.5 -129.5
t184.5 -34.5q294 0 410 98q74 -65 74 -180q0 -70 -21.5 -124t-61.5 -87.5t-86.5 -56t-108.5 -33t-114 -14t-116 -3.5q-261 0 -417.5 71.5t-226 219t-69.5 391.5z" />
    <glyph glyph-name="afii10054" unicode="&#x405;" horiz-adv-x="1206" 
d="M27 272q0 66 29 125.5t85 94.5q73 -58 176 -95t201 -37q33 0 53.5 1.5t46.5 7.5t39 21.5t13 39.5q0 22 -21 37t-57 24.5t-82.5 18t-97.5 21t-102.5 29.5t-98.5 48.5t-83 73.5t-58 107.5t-23 148.5q0 214 163.5 336.5t471.5 122.5q239 0 366.5 -73t127.5 -208
q0 -65 -39.5 -121.5t-118.5 -85.5q-167 117 -400 117q-28 0 -44.5 -1t-41.5 -5.5t-37 -17t-12 -31.5q0 -25 38 -44t99 -34.5t134.5 -34.5t147.5 -51.5t135 -76.5t99 -117t38 -167q-8 -233 -159.5 -352t-471.5 -119q-516 0 -516 297z" />
    <glyph glyph-name="afii10055" unicode="&#x406;" horiz-adv-x="987" 
d="M55 1210q0 79 55.5 130t159.5 51h404q136 0 215 20q63 -85 63 -203q0 -148 -159 -159q-23 -2 -23 -27v-680q80 0 156 10q65 -92 65 -182q0 -78 -55 -124t-160 -46h-618q-64 87 -64 182q0 68 38.5 111t121.5 49q22 2 22 27v680q-71 0 -155 -11q-66 94 -66 172z" />
    <glyph glyph-name="afii10056" unicode="&#x407;" horiz-adv-x="987" 
d="M55 1210q0 79 55.5 130t159.5 51h404q136 0 215 20q63 -85 63 -203q0 -148 -159 -159q-23 -2 -23 -27v-680q80 0 156 10q65 -92 65 -182q0 -78 -55 -124t-160 -46h-618q-64 87 -64 182q0 68 38.5 111t121.5 49q22 2 22 27v680q-71 0 -155 -11q-66 94 -66 172z" />
    <glyph glyph-name="afii10057" unicode="&#x408;" horiz-adv-x="811" 
d="M23 -57q0 49 14 92q32 -4 49 -4q56 0 95 20.5t60.5 58.5t32 81.5t13.5 101.5v700q-96 18 -142.5 93.5t-46.5 175.5q0 36 6 71q97 5 184 15t184.5 23t164.5 20q29 0 52 -9t38 -21.5t25.5 -35.5t15.5 -42t8 -50.5t3.5 -51t0.5 -53.5v-856q0 -100 -15 -186.5t-49.5 -164
t-86.5 -132.5t-130 -87t-175 -32q-129 0 -215 76t-86 197z" />
    <glyph glyph-name="afii10058" unicode="&#x409;" horiz-adv-x="2109" 
d="M29 262q0 45 4 68h14q42 0 77 17t61.5 56.5t46.5 73.5t35 100t23.5 101.5t17 113.5t10.5 100.5t7 93.5q2 26 3 38q-193 36 -193 258q0 54 10 109h1141q50 0 83.5 -25.5t49.5 -75t21.5 -96t7.5 -115.5v-225q59 87 157.5 132.5t202.5 45.5q178 0 276.5 -122.5t98.5 -313.5
q0 -133 -39 -239t-103.5 -174.5t-153.5 -114t-183.5 -65t-198.5 -19.5q-56 0 -103.5 4t-106 18t-105 36.5t-92 63.5t-76 95.5t-49.5 135.5t-19 181v479q-1 17 -7.5 23t-20.5 6h-117q-11 -309 -44.5 -511t-96.5 -319.5t-148 -164.5t-211 -47q-140 0 -210 76.5t-70 201.5z
M1438 586q0 -199 127 -199q60 0 97.5 36.5t37.5 96.5q0 44 -17.5 77t-44 52t-63 31t-69 16t-68.5 4v-114z" />
    <glyph glyph-name="afii10059" unicode="&#x40a;" horiz-adv-x="2144" 
d="M14 1262q0 36 6 71q97 5 184 15t184.5 23t164.5 20q29 0 52 -9t38 -21.5t25.5 -35.5t15.5 -42t8 -50.5t3.5 -51t0.5 -53.5v-223q0 -23 6.5 -30t24.5 -7h262v152q-8 158 -53 287q26 7 87 22.5t93.5 23.5t77.5 18.5t75.5 15t51.5 4.5q50 0 83.5 -25.5t49.5 -75t21.5 -96
t7.5 -115.5v-225q59 87 157.5 132.5t202.5 45.5q178 0 276.5 -122.5t98.5 -313.5q0 -133 -39 -239t-103.5 -174.5t-153.5 -114t-183.5 -65t-198.5 -19.5q-56 0 -103.5 4t-105.5 17.5t-104 36t-91.5 63t-76.5 94.5t-50 133.5t-20 177.5h-293v-156q8 -153 54 -286
q-26 -7 -87 -22.5t-93.5 -23.5t-77.5 -18.5t-75.5 -15t-51.5 -4.5q-34 0 -60.5 12t-43.5 35t-28.5 50t-17.5 65.5t-8.5 71.5t-3.5 77v698q-96 18 -142.5 93.5t-46.5 175.5zM1473 586q0 -199 126 -199q60 0 98 36.5t38 96.5q0 44 -17.5 77t-44 52t-63 31t-69 16t-68.5 4v-114
z" />
    <glyph glyph-name="afii10060" unicode="&#x40b;" horiz-adv-x="1687" 
d="M-31 1165q0 122 68.5 178t245.5 56q81 0 308.5 -13.5t307.5 -13.5q160 0 291 49q43 -73 66.5 -134t23.5 -126q0 -74 -26 -118.5t-101.5 -70.5t-208.5 -26h-45q-22 -3 -22 -31v-276q57 104 145 168q109 76 258 76q146 0 230.5 -100t84.5 -308v-121q3 -77 31.5 -107.5
t102.5 -39.5q-15 -65 -45 -110.5t-73.5 -69t-89.5 -33.5t-104 -10q-71 0 -126.5 14t-102 47t-71.5 94.5t-25 149.5v143q0 86 -58 86q-39 0 -55 -8q-38 -16 -65.5 -60t-36.5 -112q11 -196 41 -279q-298 -75 -373 -75q-34 0 -60.5 12t-43.5 35t-28.5 50t-17.5 65.5t-8.5 71.5
t-3.5 77v676q-23 2 -61 2q-139 0 -265 -68q-45 81 -66.5 139t-21.5 121z" />
    <glyph glyph-name="afii10061" unicode="&#x40c;" horiz-adv-x="1484" 
d="M14 1262q0 36 6 71q97 5 184 15t184.5 23t164.5 20q29 0 52 -9t38 -21.5t25.5 -35.5t15.5 -42t8 -50.5t3.5 -51t0.5 -53.5v-313h60q54 0 92 23.5t55.5 63t25 77.5t7.5 80q0 106 -55 211q55 60 129 90.5t153 30.5q71 0 126 -26.5t86.5 -70.5t47 -94.5t15.5 -105.5
q0 -121 -58.5 -220t-162.5 -169q56 -147 158 -262t200 -136q-3 -84 -32 -147t-77 -98.5t-102.5 -52.5t-116.5 -17q-77 0 -132.5 14.5t-108 54.5t-91 110.5t-72 181.5t-59.5 268h-88v-267q8 -153 54 -286q-26 -7 -87 -22.5t-93.5 -23.5t-77.5 -18.5t-75.5 -15t-51.5 -4.5
q-34 0 -60.5 12t-43.5 35t-28.5 50t-17.5 65.5t-8.5 71.5t-3.5 77v698q-96 18 -142.5 93.5t-46.5 175.5zM623 1530q0 36 26 69l297 369q72 -11 137.5 -57t90.5 -111q20 -42 12 -95t-47 -83l-338 -268q-64 22 -121 70t-57 106z" />
    <glyph glyph-name="afii10062" unicode="&#x40e;" horiz-adv-x="1476" 
d="M8 1262q0 -100 46.5 -175.5t142.5 -93.5v-229q0 -114 30 -197t82 -127.5t112.5 -65t131.5 -20.5q124 0 227 68.5t172 195.5v-59q0 -71 -17.5 -127t-46.5 -91t-69 -58.5t-82 -33t-88 -9.5q-184 0 -262 67q-36 -33 -57 -81t-21 -95q0 -121 113.5 -185.5t331.5 -64.5
q161 0 284.5 40t213.5 123t137 218.5t47 319.5v497q-2 69 -7.5 115.5t-21.5 96t-49.5 75t-83.5 25.5q-25 0 -71.5 -9t-85 -18.5t-111.5 -28.5t-107 -28q45 -129 53 -287v-150q-33 -59 -78.5 -97t-93.5 -38q-94 0 -94 117v276q0 34 -0.5 53.5t-3.5 51t-8 50.5t-15.5 42
t-25.5 35.5t-38 21.5t-52 9q-34 -4 -217 -27.5t-312 -30.5q-6 -35 -6 -71zM399 1677q0 67 44.5 115.5t134.5 56.5q49 -61 108.5 -92t116.5 -31q56 0 116 31t111 92q87 -9 131.5 -57t44.5 -115q0 -110 -112.5 -186.5t-290.5 -77.5q-178 1 -291 77.5t-113 186.5z" />
    <glyph glyph-name="afii10145" unicode="&#x40f;" horiz-adv-x="1550" 
d="M14 1262q0 36 6 71q97 5 184 15t184.5 23t164.5 20q29 0 52 -9t38 -21.5t25.5 -35.5t15.5 -42t8 -50.5t3.5 -51t0.5 -53.5v-731q0 -23 6.5 -30t24.5 -7h262v660q-8 158 -53 287q20 5 73.5 18.5t79 20t69.5 17t70 15.5t54 9t45 4q50 0 83.5 -25.5t49.5 -75t21.5 -96
t7.5 -115.5v-860q0 -69 -17 -114t-50.5 -67t-70.5 -30t-89 -8h-185q-24 0 -33 -27l-63 -241q-26 -105 -90 -105h-96q-64 0 -90 105l-68 268h-207q-52 0 -89 8t-70.5 30t-50.5 67t-17 114v774q-96 18 -142.5 93.5t-46.5 175.5z" />
    <glyph glyph-name="afii10017" unicode="&#x410;" horiz-adv-x="1372" 
d="M55.5 168q6.5 42 24.5 84l260 620q46 108 86 162q-96 -4 -150 -10q-51 104 -51 193q0 85 67 129.5t218 44.5h369q104 0 163 -44.5t95 -152.5l303 -911q45 -136 86 -224q-233 -75 -344 -75q-74 0 -120 40.5t-79 139.5l-27 82h-448l-94 -246h-226q-57 0 -90.5 24.5t-41 63
t-1 80.5zM637 586q-10 -35 22 -35h197l-104 336z" />
    <glyph glyph-name="afii10018" unicode="&#x411;" horiz-adv-x="1335" 
d="M14 1210q0 79 55.5 130t159.5 51h801q136 0 215 20q31 -43 47.5 -105.5t16.5 -117.5q0 -49 -17.5 -84.5t-42 -53.5t-65 -28t-71 -12t-75.5 -2h-315v-152q110 33 233 33q116 0 203 -33t138 -91.5t75.5 -130.5t24.5 -157q0 -100 -32 -178.5t-77 -128.5t-125 -85.5
t-142.5 -52.5t-165 -26.5t-158 -10.5t-154.5 -1h-4q-59 0 -97 3t-81 15.5t-67.5 35.5t-41 65.5t-16.5 103.5v811q-80 0 -156 -10q-66 94 -66 192zM725 322q4 -1 12.5 -3t18.5 -2q85 0 130.5 44t45.5 106q0 150 -152 158h-55v-303z" />
    <glyph glyph-name="afii10019" unicode="&#x412;" horiz-adv-x="1390" 
d="M14 1210q0 39 11.5 69.5t33.5 49.5t48 32t60.5 19t64.5 8.5t67 2.5h481q586 0 586 -361q0 -90 -42 -163.5t-124 -110.5q121 -29 181.5 -112.5t60.5 -194.5q0 -92 -35 -165.5t-86 -120t-134 -80.5t-154 -50.5t-173 -26t-163.5 -11t-151.5 -1.5q-43 0 -71.5 1t-63.5 6
t-58 14t-47 25.5t-38 40t-22.5 58t-8.5 78.5v811q-80 0 -156 -10q-66 94 -66 192zM723 795h70q149 0 149 127q0 106 -137 106h-82v-233zM725 322q35 -5 68 -5q88 0 132 30.5t44 98.5q0 117 -152 117h-92v-241z" />
    <glyph glyph-name="afii10020" unicode="&#x413;" horiz-adv-x="1275" 
d="M16 1282q0 48 11 109h852q167 0 295 51q43 -77 66.5 -140.5t23.5 -132.5q0 -58 -14.5 -99.5t-50.5 -75t-104.5 -50t-170.5 -16.5h-199q-23 -3 -23 -31v-543q8 -153 54 -286q-26 -7 -87 -22.5t-93.5 -23.5t-77.5 -18.5t-75.5 -15t-51.5 -4.5q-34 0 -60.5 12t-43.5 35
t-28.5 50t-17.5 65.5t-8.5 71.5t-3.5 77v743q-109 20 -151 83t-42 161z" />
    <glyph glyph-name="afii10021" unicode="&#x414;" horiz-adv-x="1568" 
d="M49 -57v229q0 83 29.5 127.5t101.5 44.5h23q89 93 140 287.5t65 406.5q-109 20 -151 83t-42 161q0 54 10 109h1080q41 0 70.5 -18.5t46 -46t26.5 -72t13.5 -83t4.5 -92.5v-735h21q72 0 101.5 -44.5t29.5 -127.5v-219q0 -115 31 -203q-18 -5 -55.5 -14.5t-51 -13t-40 -10
t-38.5 -9t-30 -5.5t-31.5 -4t-26.5 -1q-50 0 -83.5 19t-51 55.5t-24.5 78t-7 97.5v57h-731q-12 0 -17 -7t-5 -26v-18q0 -113 30 -199q-20 -5 -56 -14.5t-50.5 -13t-40 -10t-38 -9t-30 -5.5t-31 -4t-26.5 -1q-50 0 -83.5 19t-51 55.5t-24.5 78t-7 97.5zM623 344h319
q17 0 23 8t6 31v655h-146q-12 0 -17.5 -4t-6.5 -20q-35 -521 -178 -670z" />
    <glyph glyph-name="afii10022" unicode="&#x415;" horiz-adv-x="1308" 
d="M14 1210q0 79 55.5 130t159.5 51h768q136 0 215 20q64 -87 64 -203q0 -36 -9 -64t-23 -47t-36.5 -32t-44 -20t-51.5 -11t-52.5 -5t-53.5 -1h-279v-129q0 -23 6.5 -30t24.5 -7h354q27 -69 27 -137q0 -193 -256 -193h-156v-133q0 -23 6.5 -30t24.5 -7h252q109 0 215 27
q63 -85 63 -209q0 -36 -9 -64t-23 -47t-36.5 -32t-44 -20t-51.5 -11t-52.5 -5t-53.5 -1h-555q-52 0 -89 8t-70.5 30t-50.5 67t-17 114v809q-80 0 -156 -10q-66 94 -66 192z" />
    <glyph glyph-name="afii10024" unicode="&#x416;" horiz-adv-x="2058" 
d="M41 1110q6 70 34.5 125.5t70.5 87t88 47.5t92 16q178 0 292.5 -143t186.5 -459h14v236q-8 158 -53 287q18 5 85.5 22.5t95.5 24t75.5 17.5t77 15.5t49.5 4.5q34 0 60 -12t42.5 -35.5t28 -50.5t17.5 -65.5t8.5 -71.5t3.5 -77v-270q81 36 119 119t38 184q0 79 -34 176
q103 103 288 103q70 0 125.5 -24t89 -64t51 -88.5t17.5 -100.5q0 -118 -67 -219.5t-183 -167.5q47 -154 152.5 -303t228.5 -215q-29 -77 -84.5 -131t-118.5 -78.5t-129 -24.5q-130 0 -209.5 54.5t-142 194.5t-127.5 413h-14v-283q8 -152 51 -286q-17 -4 -61.5 -16t-66 -17.5
t-60 -15t-61.5 -14.5t-51 -10.5t-48 -8t-35 -2.5q-33 0 -59 12t-42.5 35t-27.5 50t-17 65.5t-8.5 71.5t-3.5 77v315q-85 -40 -128.5 -138t-43.5 -212q0 -102 31 -190q-106 -109 -295 -109q-90 0 -157.5 45t-98.5 111.5t-31 140.5q0 133 78 252t209 192q-28 82 -82.5 174
t-127 162.5t-132.5 71.5z" />
    <glyph glyph-name="afii10025" unicode="&#x417;" horiz-adv-x="1241" 
d="M27 311q0 63 22 122t66 93q71 -48 195.5 -80t242.5 -32q76 0 114 21t38 71q0 39 -28.5 59.5t-96.5 20.5h-113q-109 0 -109 110v49q0 111 109 111h113q98 0 98 70q0 71 -125 71q-169 0 -356 -84q-63 27 -95 79.5t-32 115.5q0 140 134 211.5t386 71.5q606 0 606 -359
q0 -105 -58.5 -188.5t-181.5 -118.5q152 -24 226.5 -113t74.5 -215q0 -91 -34.5 -163.5t-95 -120.5t-145.5 -79.5t-181.5 -45t-208.5 -13.5q-85 0 -162 9.5t-152 34t-129.5 61.5t-88 96.5t-33.5 134.5z" />
    <glyph glyph-name="afii10026" unicode="&#x418;" horiz-adv-x="1595" 
d="M14 1262q0 36 6 71q129 7 308 30.5t217 27.5q29 0 52 -9t38 -21.5t25.5 -35.5t15.5 -42t8 -50.5t3.5 -51t0.5 -53.5v-530l352 721q13 3 80.5 20.5t101.5 26t81.5 17t72.5 8.5q50 0 83.5 -25.5t49.5 -75t21.5 -96t7.5 -115.5v-725q8 -156 53 -286q-29 -7 -87.5 -22.5
t-92 -23.5t-77.5 -18.5t-74.5 -15t-51.5 -4.5q-34 0 -60.5 11.5t-43.5 35.5t-28 50.5t-17 65t-8.5 71t-3.5 77.5v444l-342 -682q-25 -6 -87.5 -22t-99.5 -25t-82.5 -17.5t-70.5 -8.5q-34 0 -60.5 12t-43.5 35t-28.5 50t-17.5 65.5t-8.5 71.5t-3.5 77v698q-96 18 -142.5 93.5
t-46.5 175.5z" />
    <glyph glyph-name="afii10027" unicode="&#x419;" horiz-adv-x="1595" 
d="M14 1262q0 36 6 71q129 7 308 30.5t217 27.5q29 0 52 -9t38 -21.5t25.5 -35.5t15.5 -42t8 -50.5t3.5 -51t0.5 -53.5v-530l352 721q13 3 80.5 20.5t101.5 26t81.5 17t72.5 8.5q50 0 83.5 -25.5t49.5 -75t21.5 -96t7.5 -115.5v-725q8 -156 53 -286q-29 -7 -87.5 -22.5
t-92 -23.5t-77.5 -18.5t-74.5 -15t-51.5 -4.5q-34 0 -60.5 11.5t-43.5 35.5t-28 50.5t-17 65t-8.5 71t-3.5 77.5v444l-342 -682q-25 -6 -87.5 -22t-99.5 -25t-82.5 -17.5t-70.5 -8.5q-34 0 -60.5 12t-43.5 35t-28.5 50t-17.5 65.5t-8.5 71.5t-3.5 77v698q-96 18 -142.5 93.5
t-46.5 175.5zM686 1516q0 77 42 127.5t105.5 76t128.5 47t119.5 58t71.5 92.5q95 -9 166.5 -80t71.5 -158q0 -57 -23 -99.5t-60.5 -68.5t-83.5 -46t-95 -36.5t-92 -35t-76 -47.5t-46 -68q-91 11 -160 81.5t-69 156.5z" />
    <glyph glyph-name="afii10028" unicode="&#x41a;" horiz-adv-x="1484" 
d="M14 1262q0 36 6 71q97 5 184 15t184.5 23t164.5 20q29 0 52 -9t38 -21.5t25.5 -35.5t15.5 -42t8 -50.5t3.5 -51t0.5 -53.5v-313h60q54 0 92 23.5t55.5 63t25 77.5t7.5 80q0 106 -55 211q55 60 129 90.5t153 30.5q71 0 126 -26.5t86.5 -70.5t47 -94.5t15.5 -105.5
q0 -121 -58.5 -220t-162.5 -169q56 -147 158 -262t200 -136q-3 -84 -32 -147t-77 -98.5t-102.5 -52.5t-116.5 -17q-77 0 -132.5 14.5t-108 54.5t-91 110.5t-72 181.5t-59.5 268h-88v-267q8 -153 54 -286q-26 -7 -87 -22.5t-93.5 -23.5t-77.5 -18.5t-75.5 -15t-51.5 -4.5
q-34 0 -60.5 12t-43.5 35t-28.5 50t-17.5 65.5t-8.5 71.5t-3.5 77v698q-96 18 -142.5 93.5t-46.5 175.5z" />
    <glyph glyph-name="afii10029" unicode="&#x41b;" horiz-adv-x="1515" 
d="M29 262q0 45 4 68h14q42 0 77 17t61.5 56.5t46.5 73.5t35 100t23.5 101.5t17 113.5t10.5 100.5t7 93.5q2 26 3 38q-193 36 -193 258q0 54 10 109h1151q50 0 83.5 -25.5t49.5 -75t21.5 -96t7.5 -115.5v-725q8 -156 53 -286q-20 -5 -73.5 -18.5t-79 -20t-69.5 -17
t-70 -15.5t-54 -9t-45 -4q-34 0 -60.5 12t-43.5 35t-28.5 50t-17.5 65.5t-8.5 71.5t-3.5 77v692q0 23 -5.5 31t-22.5 8h-121q-11 -309 -44.5 -511t-96.5 -319.5t-148 -164.5t-211 -47q-140 0 -210 76.5t-70 201.5z" />
    <glyph glyph-name="afii10030" unicode="&#x41c;" horiz-adv-x="1826" 
d="M43 1264q0 36 6 71q89 5 283 30.5t291 25.5q86 0 134.5 -43.5t80.5 -137.5l157 -456l138 456q36 106 96.5 146.5t163.5 32.5l155 -23q116 -17 151.5 -64t41.5 -182l37 -755q10 -192 53 -297q-30 -8 -87 -22.5t-91.5 -23.5t-77.5 -19t-73.5 -14.5t-51.5 -4.5
q-50 0 -83.5 26t-49 74t-21.5 97t-6 114l13 504l-105 -287q-27 -70 -60 -106.5t-91 -36.5h-107q-53 0 -86.5 37t-65.5 106l-133 287l25 -434q10 -192 53 -297q-30 -7 -107.5 -27.5t-114.5 -29.5t-84.5 -18t-72.5 -9q-50 0 -83 26t-49 74t-21.5 97t-5.5 114l28 702
q-64 12 -106 54t-58 95t-16 118z" />
    <glyph glyph-name="afii10031" unicode="&#x41d;" horiz-adv-x="1591" 
d="M14 1262q0 36 6 71q97 5 184 15t184.5 23t164.5 20q29 0 52 -9t38 -21.5t25.5 -35.5t15.5 -42t8 -50.5t3.5 -51t0.5 -53.5v-223q0 -23 6.5 -30t24.5 -7h307v152q-8 158 -53 287q20 5 73.5 18.5t79 20t69.5 17t70 15.5t54 9t45 4q50 0 83.5 -25.5t49.5 -75t21.5 -96
t7.5 -115.5v-725q8 -156 53 -286q-20 -5 -73.5 -18.5t-79 -20t-69.5 -17t-70 -15.5t-54 -9t-45 -4q-34 0 -60.5 12t-43.5 35t-28.5 50t-17.5 65.5t-8.5 71.5t-3.5 77v176q0 23 -5.5 31t-22.5 8h-310v-156q8 -153 54 -286q-26 -7 -87 -22.5t-93.5 -23.5t-77.5 -18.5
t-75.5 -15t-51.5 -4.5q-34 0 -60.5 12t-43.5 35t-28.5 50t-17.5 65.5t-8.5 71.5t-3.5 77v698q-96 18 -142.5 93.5t-46.5 175.5z" />
    <glyph glyph-name="afii10032" unicode="&#x41e;" horiz-adv-x="1497" 
d="M94 645q0 158 42.5 291.5t127.5 238.5t226 164.5t325 59.5q694 0 694 -666q0 -157 -41 -291t-124 -239.5t-221 -166t-318 -61.5q-711 0 -711 670zM588 686q0 -41 5 -76.5t19.5 -72t37 -62.5t61 -42.5t88.5 -16.5q217 0 217 272q0 130 -56 202.5t-153 72.5
q-219 0 -219 -277z" />
    <glyph glyph-name="afii10033" unicode="&#x41f;" horiz-adv-x="1540" 
d="M14 1282q0 48 11 109h1296q50 0 83.5 -25.5t49.5 -75t21.5 -96t7.5 -115.5v-725q8 -156 53 -286q-20 -5 -73.5 -18.5t-79 -20t-69.5 -17t-70 -15.5t-54 -9t-45 -4q-34 0 -60.5 12t-43.5 35t-28.5 50t-17.5 65.5t-8.5 71.5t-3.5 77v692q0 23 -6 31t-23 8h-254v-672
q8 -153 54 -286q-26 -7 -87 -22.5t-93.5 -23.5t-77.5 -18.5t-75.5 -15t-51.5 -4.5q-34 0 -60.5 12t-43.5 35t-28.5 50t-17.5 65.5t-8.5 71.5t-3.5 77v729q-193 36 -193 258z" />
    <glyph glyph-name="afii10034" unicode="&#x420;" horiz-adv-x="1411" 
d="M14 1210q0 39 11.5 69.5t33.5 49.5t48 32t60.5 19t64.5 8.5t67 2.5h469q674 -9 674 -482q0 -108 -31.5 -194.5t-98.5 -154t-181 -104t-269 -36.5q-22 0 -72 3t-61 3v-72q8 -156 53 -286q-26 -7 -87 -22.5t-93.5 -23.5t-77.5 -18.5t-75.5 -15t-51.5 -4.5q-34 0 -60.5 11.5
t-43.5 35.5t-28 50.5t-17 65t-8.5 71t-3.5 77.5v733q-80 0 -156 -10q-66 94 -66 192zM729 715q14 -2 57 -2q78 0 125 40.5t47 127.5q0 147 -153 147h-76v-313z" />
    <glyph glyph-name="afii10035" unicode="&#x421;" horiz-adv-x="1316" 
d="M94 641q0 130 25 242t81 208t138.5 163.5t203.5 106t271 38.5q76 0 145 -9t135 -31.5t114 -56.5t77 -88t29 -122q0 -75 -42 -138t-118 -90q-182 103 -324 103q-111 0 -176 -66.5t-65 -212.5q0 -123 61.5 -191.5t188.5 -68.5q80 0 154 20t113.5 40t96.5 55
q60 -32 91.5 -95t31.5 -133q0 -74 -34.5 -134t-89.5 -97.5t-127.5 -63t-144 -35.5t-143.5 -10q-348 3 -520 178.5t-172 487.5z" />
    <glyph glyph-name="afii10036" unicode="&#x422;" horiz-adv-x="1349" 
d="M16 1165q0 81 27 130.5t97 76.5t190 27q81 0 308.5 -13.5t307.5 -13.5q160 0 291 49q43 -73 66.5 -134t23.5 -126q0 -56 -14.5 -95.5t-50.5 -71.5t-103.5 -48t-167.5 -16h-45q-22 -3 -22 -31v-545q8 -156 53 -286q-26 -7 -87 -22.5t-93.5 -23.5t-77.5 -18.5t-75.5 -15
t-51.5 -4.5q-34 0 -60.5 12t-43.5 35t-28.5 50t-17.5 65.5t-8.5 71.5t-3.5 77v659q-23 2 -61 2q-141 0 -265 -67q-88 159 -88 276z" />
    <glyph glyph-name="afii10037" unicode="&#x423;" horiz-adv-x="1476" 
d="M8 1262q0 36 6 71q129 7 312 30.5t217 27.5q29 0 52 -9t38 -21.5t25.5 -35.5t15.5 -42t8 -50.5t3.5 -51t0.5 -53.5v-276q0 -117 94 -117q48 0 93.5 38t78.5 97v150q-8 158 -53 287q34 9 107 28t111.5 28.5t85 18.5t71.5 9q50 0 83.5 -25.5t49.5 -75t21.5 -96t7.5 -115.5
v-497q0 -184 -47 -319.5t-137 -218.5t-213.5 -123t-284.5 -40q-218 0 -331.5 64.5t-113.5 185.5q0 47 21 95t57 81q78 -67 262 -67q46 0 88 9.5t82 33t69 58.5t46.5 91t17.5 127v59q-69 -127 -172 -195.5t-227 -68.5q-71 0 -131.5 20.5t-112.5 65t-82 127.5t-30 197v229
q-96 18 -142.5 93.5t-46.5 175.5z" />
    <glyph glyph-name="afii10038" unicode="&#x424;" horiz-adv-x="1822" 
d="M72 786q0 95 19.5 176.5t62.5 152t107 120.5t158 78t210 28h94v37q-13 123 -43 191q26 6 84.5 18.5t88.5 19t71.5 14.5t70 11.5t47.5 3.5q44 0 75 -19t48 -55.5t25 -78t10 -97.5v-53q52 8 117 8q270 -1 403 -130t133 -359q0 -95 -19.5 -176.5t-62.5 -152t-107 -120.5
t-158 -78t-210 -28h-94q11 -129 47 -242q-271 -71 -370 -71q-33 0 -58 12t-41.5 35t-27.5 50t-17 65.5t-8.5 71.5t-3.5 77v10q-52 -8 -115 -8q-270 1 -403 130t-133 359zM494 821q0 -79 38.5 -126.5t114.5 -47.5q51 0 76 6v351h-64q-75 0 -120 -44.5t-45 -138.5zM1200 635
h66q75 0 120.5 44.5t45.5 137.5q0 79 -39 126.5t-115 47.5q-45 0 -78 -8v-348z" />
    <glyph glyph-name="afii10039" unicode="&#x425;" horiz-adv-x="1359" 
d="M47 211q0 122 88 231l262 295l-39 62q-83 128 -151.5 193t-145.5 83q7 161 86 234t197 73q65 0 113 -17t100 -66t101.5 -120.5t125.5 -197.5q77 109 115 199t41 192q66 14 145 14q114 0 185 -59.5t71 -189.5q0 -116 -88 -226l-239 -293q84 -145 165 -203.5t222 -58.5
q4 -23 4 -65q0 -140 -74 -227t-213 -87q-135 0 -239.5 79t-202.5 239l-53 82q-107 -138 -146 -221t-47 -170q-86 -19 -131 -19q-114 0 -183 58.5t-69 185.5z" />
    <glyph glyph-name="afii10040" unicode="&#x426;" horiz-adv-x="1613" 
d="M14 1262q0 36 6 71q97 5 184 15t184.5 23t164.5 20q29 0 52 -9t38 -21.5t25.5 -35.5t15.5 -42t8 -50.5t3.5 -51t0.5 -53.5v-727q0 -22 6.5 -29t24.5 -7h262v655q-8 158 -53 287q20 5 73.5 18.5t79 20t69.5 17t70 15.5t54 9t45 4q50 0 83.5 -25.5t49.5 -75t21.5 -96
t7.5 -115.5v-841q0 -20 20 -23q258 -46 258 -328q0 -191 -94.5 -290t-261.5 -99q-52 0 -141.5 15.5t-128.5 15.5q-71 0 -108.5 -28.5t-37.5 -100.5q-125 0 -192.5 76t-67.5 180q0 125 84.5 193.5t233.5 68.5q61 0 165 -21.5t162 -21.5q88 0 88 72q0 53 -67 53h-971
q-52 0 -89 8t-70.5 30t-50.5 67t-17 114v774q-96 18 -142.5 93.5t-46.5 175.5z" />
    <glyph glyph-name="afii10041" unicode="&#x427;" horiz-adv-x="1499" 
d="M-6 1262q0 36 6 71q129 7 315 31t217 27q29 0 52 -9t38 -21.5t25.5 -35.5t16 -42.5t8.5 -50t3.5 -51t0.5 -53.5v-297q0 -50 28 -74t74 -24q43 0 88.5 22t75.5 60v205q-8 158 -53 287q20 5 73.5 18.5t79 20t69.5 17t70 15.5t54 9t45 4q50 0 83.5 -25.5t49.5 -75t21.5 -96
t7.5 -115.5v-725q8 -156 53 -286q-20 -5 -73.5 -18.5t-79 -20t-69.5 -17t-70 -15.5t-54 -9t-45 -4q-34 0 -60.5 12t-43.5 35t-28.5 50t-17.5 65.5t-8.5 71.5t-3.5 77v272q-132 -233 -399 -233q-56 0 -106 11.5t-97.5 40t-82 72t-55 111.5t-20.5 154v270q-96 18 -142 93
t-46 176z" />
    <glyph glyph-name="afii10042" unicode="&#x428;" horiz-adv-x="2021" 
d="M16 1262q0 31 7 71q127 7 290.5 30t214.5 28q29 0 52 -9t38 -21.5t25.5 -35.5t16 -42.5t8.5 -50t3.5 -51t0.5 -53.5v-737q0 -23 6 -30t24 -7h146v666q-8 158 -53 287q43 11 133.5 36t141.5 36.5t83 11.5q50 0 83.5 -25.5t49.5 -75t21.5 -96t7.5 -115.5v-700q1 -15 8 -20
t23 -5h145v666q-8 158 -53 287q41 10 133.5 35.5t143.5 37t83 11.5q50 0 83.5 -25.5t49.5 -75t21.5 -96t7.5 -115.5v-860q0 -69 -17 -114t-50.5 -67t-70.5 -30t-89 -8h-1301q-52 0 -89 8t-70.5 30t-50.5 67t-17 114v774q-96 18 -142.5 93.5t-46.5 175.5z" />
    <glyph glyph-name="afii10043" unicode="&#x429;" horiz-adv-x="2105" 
d="M16 1262q0 31 7 71q127 7 290.5 30t214.5 28q29 0 52 -9t38 -21.5t25.5 -35.5t16 -42.5t8.5 -50t3.5 -51t0.5 -53.5v-737q0 -23 6 -30t24 -7h146v666q-8 158 -53 287q43 11 133.5 36t141.5 36.5t83 11.5q50 0 83.5 -25.5t49.5 -75t21.5 -96t7.5 -115.5v-700q1 -15 8 -20
t23 -5h145v666q-8 158 -53 287q41 10 133.5 35.5t143.5 37t83 11.5q50 0 83.5 -25.5t49.5 -75t21.5 -96t7.5 -115.5v-835q0 -26 20 -29q279 -46 279 -328q0 -191 -103 -290t-282 -99q-57 0 -160.5 15.5t-146.5 15.5q-76 0 -117 -28.5t-41 -100.5q-136 0 -209.5 76t-73.5 180
q0 125 92 193.5t252 68.5q66 0 186.5 -21.5t182.5 -21.5q50 0 73 16.5t23 53.5q0 55 -71 55h-1432q-52 0 -89 8t-70.5 30t-50.5 67t-17 114v774q-96 18 -142.5 93.5t-46.5 175.5z" />
    <glyph glyph-name="afii10044" unicode="&#x42a;" horiz-adv-x="1484" 
d="M-6 1210q0 79 55.5 130t159.5 51h471q29 0 52 -9t38 -21.5t25.5 -35.5t15.5 -42t8 -50.5t3.5 -51t0.5 -53.5v-274q59 87 158 132.5t203 45.5q178 0 276.5 -122.5t98.5 -313.5q0 -133 -39 -239t-103.5 -174.5t-153.5 -114t-183.5 -65t-198.5 -19.5q-56 0 -103.5 4t-106 18
t-105 36.5t-92 63.5t-76 95.5t-49.5 135.5t-19 181v471q0 23 -6 31t-23 8h-96q-75 0 -146 -10q-65 92 -65 192zM813 586q0 -199 127 -199q60 0 97.5 36.5t37.5 96.5q0 44 -17.5 77t-44 52t-63 31t-69 16t-68.5 4v-114z" />
    <glyph glyph-name="afii10045" unicode="&#x42b;" horiz-adv-x="2013" 
d="M12 1262q0 36 6 71q93 5 177.5 15t178.5 23t158 20q28 0 50 -9t36.5 -21.5t24.5 -35.5t15 -42.5t8 -50t3.5 -51t0.5 -53.5v-274q58 87 150.5 132.5t191.5 45.5q171 0 265.5 -122.5t94.5 -313.5q0 -133 -37.5 -239t-99.5 -174.5t-147.5 -114t-176 -65t-190.5 -19.5
q-54 0 -99.5 4t-101 18t-99.5 36.5t-88 63.5t-73 95.5t-47 135.5t-18 181v475q-92 18 -137.5 93.5t-45.5 175.5zM659 586q0 -199 121 -199q56 0 92.5 37t36.5 96q0 44 -16.5 77t-41.5 52t-59.5 31t-66 16t-66.5 4v-114zM1384 1307q29 7 87.5 22.5t92 23.5t77.5 18.5t74.5 15
t51.5 4.5q50 0 83.5 -25.5t49.5 -75t21.5 -96t7.5 -115.5v-725q8 -156 53 -286q-29 -7 -87.5 -22.5t-92 -23.5t-77.5 -18.5t-74.5 -15t-51.5 -4.5q-34 0 -60.5 11.5t-43.5 35.5t-28 50.5t-17 65t-8.5 71t-3.5 77.5v725q-8 154 -54 287z" />
    <glyph glyph-name="afii10046" unicode="&#x42c;" horiz-adv-x="1341" 
d="M12 1253q0 26 8 80q128 7 300.5 30t216.5 28q29 0 52 -9t38 -21.5t25.5 -35.5t15.5 -42t8 -50.5t3.5 -51t0.5 -53.5v-274q59 87 157.5 132.5t202.5 45.5q178 0 276.5 -122.5t98.5 -313.5q0 -133 -39 -239t-103.5 -174.5t-153.5 -114t-183.5 -65t-198.5 -19.5
q-56 0 -103.5 4t-106 18t-105 36.5t-92 63.5t-76 95.5t-49.5 135.5t-19 181v475q-89 22 -131.5 94t-42.5 166zM670 586q0 -199 127 -199q60 0 97.5 36.5t37.5 96.5q0 44 -17.5 77t-44 52t-63 31t-69 16t-68.5 4v-114z" />
    <glyph glyph-name="afii10047" unicode="&#x42d;" horiz-adv-x="1249" 
d="M39 291q0 59 21 115.5t57 87.5q177 -115 405 -115q135 0 206 38t75 124h-379q-86 0 -86 127v75q0 127 86 127h377q-2 50 -43 84t-97.5 47t-123.5 13q-100 0 -207 -26.5t-168 -63.5q-37 35 -56.5 86t-19.5 100q0 100 67.5 164.5t176.5 90.5t260 26q119 0 217 -19.5
t169 -53.5t125 -85t88.5 -110t56 -132.5t30 -147.5t8.5 -161q0 -353 -171.5 -530t-547.5 -177q-526 0 -526 316z" />
    <glyph glyph-name="afii10048" unicode="&#x42e;" horiz-adv-x="2048" 
d="M27 1262q0 36 6 71q126 7 307 31t213 27q33 0 57.5 -10t39.5 -32t24 -43t12.5 -57t4.5 -59t1 -62v-217q0 -23 6.5 -30t24.5 -7h74q25 116 76 209.5t128 165t187 111t244 39.5q165 0 287 -47t196 -136t109.5 -209t35.5 -274q0 -156 -39 -290.5t-115 -240t-200.5 -166
t-284.5 -61.5q-577 0 -641 535h-88v-156q8 -156 53 -286q-26 -7 -85 -22.5t-91 -23.5t-75.5 -18.5t-73.5 -15t-51 -4.5q-33 0 -59 12t-42.5 35t-27.5 50t-17 65.5t-8.5 71.5t-3.5 77v698q-65 12 -108 54.5t-59.5 96t-16.5 118.5zM1227 686q0 -270 188 -270q195 0 195 272
q0 130 -50 202.5t-137 72.5q-196 0 -196 -277z" />
    <glyph glyph-name="afii10049" unicode="&#x42f;" horiz-adv-x="1380" 
d="M25 317q67 15 136 74.5t120 143.5q-93 46 -143 136.5t-50 198.5q0 116 38 207t102 150.5t154 98t188 55t210 16.5q234 0 389 -49q50 -16 81.5 -44t46.5 -73.5t19.5 -86t6.5 -108.5v-686q8 -158 53 -287q-314 -79 -383 -79q-34 0 -60.5 12t-43.5 35t-28.5 50t-17.5 65.5
t-8.5 71.5t-3.5 77v131q-90 0 -110 4l-15 -54q-10 -39 -16 -59t-17 -56t-20 -56t-23.5 -50.5t-29 -48t-34.5 -40t-43 -35t-51 -25t-61.5 -17.5t-72.5 -5q-62 0 -114 17t-96.5 54t-71.5 103.5t-31 158.5zM573 877q0 -162 138 -162h120v319h-129q-59 0 -94 -41.5t-35 -115.5z
" />
    <glyph glyph-name="afii10065" unicode="&#x430;" 
d="M20 303q0 92 40 161t109 108t151 58t176 19q114 0 223 -33q-3 39 -19.5 66t-44.5 41t-58 19.5t-69 5.5q-91 0 -179.5 -23t-141.5 -66q-48 28 -77.5 76.5t-29.5 104.5q0 117 143.5 183.5t387.5 66.5q109 0 193.5 -11.5t161.5 -42t126.5 -81t79 -131t29.5 -189.5v-215
q0 -86 67 -86q19 0 55 12q27 -73 27 -133q0 -107 -77 -172.5t-203 -65.5q-114 0 -189 43.5t-117 157.5q-107 -195 -372 -201q-82 0 -151.5 19.5t-124 58t-85.5 103t-31 147.5zM508 342q0 -43 24.5 -67.5t65.5 -24.5q121 0 121 180v55q-31 0 -64 -6.5t-68 -21t-57 -44.5
t-22 -71z" />
    <glyph glyph-name="afii10066" unicode="&#x431;" horiz-adv-x="1318" 
d="M72 643q2 127 26 232t63.5 178t93.5 131.5t114.5 94.5t127.5 65.5t132 46.5t129 34.5t116.5 32t96 38t67.5 52.5q83 -30 131 -96t48 -137q0 -62 -23 -106t-62 -69t-89.5 -41.5t-106.5 -28.5t-111.5 -25.5t-105.5 -36.5t-88.5 -56.5t-60 -91.5t-19.5 -137
q45 116 153.5 184t239.5 68q180 0 282.5 -106t102.5 -314q0 -270 -171.5 -425t-479.5 -155t-457 172.5t-149 495.5zM571 516q0 -75 35 -126.5t109 -51.5q51 0 88 29.5t37 83.5q0 65 -58.5 98t-134.5 33q-46 0 -76 -9v-57z" />
    <glyph glyph-name="afii10067" unicode="&#x432;" horiz-adv-x="1304" 
d="M-10 1028q0 35 2 49h827q214 0 323 -78t109 -202q0 -62 -37.5 -121t-99.5 -88q106 -22 156.5 -91t50.5 -161q0 -182 -185 -271.5t-558 -89.5q-83 0 -139.5 5t-115 22t-92.5 47.5t-55.5 84t-21.5 128.5v541q-44 1 -75.5 16t-48 36t-26 53.5t-12 58.5t-2.5 61zM637 262
q20 -4 55 -4q65 0 96 23.5t31 74.5q0 88 -108 88h-74v-182zM637 623h72q53 0 77.5 21.5t24.5 70.5q0 88 -102 88h-72v-180z" />
    <glyph glyph-name="afii10068" unicode="&#x433;" horiz-adv-x="1234" 
d="M-14 1077h911q115 3 217 43q88 -158 88 -256q0 -169 -264 -180h-233q-17 0 -23 -6t-6 -23v-301q3 -77 31 -107.5t102 -39.5q-14 -65 -44.5 -110.5t-74 -69t-90.5 -33.5t-106 -10q-326 0 -326 305v514q-43 1 -75.5 13.5t-51.5 35.5t-31.5 47t-17 59t-6 60t-0.5 59z" />
    <glyph glyph-name="afii10069" unicode="&#x434;" horiz-adv-x="1482" 
d="M0 -111v228q0 166 117 166h39q75 78 129.5 225t60.5 295q-201 7 -201 274h1061q32 0 56.5 -9t40 -27.5t26 -38t16 -50.5t7.5 -53.5t4 -58.5v-557h28q119 0 119 -166l-2 -164q8 -117 49 -219q-39 -9 -107 -31.5t-125 -36.5t-112 -14q-37 0 -63.5 14.5t-40.5 34.5t-22.5 56
t-10.5 62t-4 70l2 111h-602q-17 0 -23 -6t-6 -25v-16q8 -117 49 -219q-39 -9 -107 -31.5t-125 -36.5t-112 -14q-37 0 -63.5 14.5t-40.5 34.5t-22.5 56t-10.5 62t-4 70zM584 283h243q17 0 23 5.5t6 24.5v482h-92q-15 0 -21.5 -6t-9.5 -27q-54 -387 -149 -479z" />
    <glyph glyph-name="afii10070" unicode="&#x435;" horiz-adv-x="1312" 
d="M92 502q0 274 168.5 431t464.5 157q261 0 411 -92t150 -259q0 -82 -45.5 -143t-123.5 -95t-167 -49.5t-190 -15.5q-82 0 -172 17q29 -97 225 -97q200 0 336 88q42 -26 67 -80.5t25 -105.5q0 -72 -42 -127.5t-115.5 -89t-164.5 -50t-196 -16.5q-631 0 -631 527zM604 592
q124 1 189 35t65 88q0 73 -82 73q-80 0 -124.5 -57t-47.5 -139z" />
    <glyph glyph-name="afii10072" unicode="&#x436;" horiz-adv-x="1964" 
d="M37 823q5 69 31.5 122t66 82t83 43.5t89.5 14.5q156 0 246 -104.5t160 -343.5h30v149q-8 117 -49 222q35 8 79.5 18t69.5 16t57 13.5t50 11.5t40 8.5t34.5 6.5t26 4t22.5 3t17 1q28 0 50.5 -7.5t37.5 -19t26 -31t17 -37.5t10 -45t5.5 -47.5t2.5 -50.5v-209
q70 19 105.5 78t35.5 131q0 76 -34 137q93 101 274 101q124 0 192 -70.5t68 -165.5q0 -90 -53 -169t-146 -134q40 -113 119.5 -219.5t175.5 -155.5q-20 -94 -98 -147.5t-180 -53.5q-114 0 -186.5 42t-129.5 147t-112 303h-31v-178q8 -118 51 -223q-49 -10 -142.5 -32.5
t-157.5 -36t-95 -13.5q-39 0 -67 14.5t-43.5 36t-25 56.5t-12.5 64t-4 72v236q-83 -14 -120 -83t-37 -171q0 -71 35 -146q-96 -106 -279 -106q-128 0 -196 77.5t-68 180.5q0 108 60.5 198.5t164.5 147.5q-32 66 -71 122t-92 97.5t-103 42.5z" />
    <glyph glyph-name="afii10073" unicode="&#x437;" horiz-adv-x="1191" 
d="M27 246q0 52 23 101t69 79q63 -38 176.5 -64t216.5 -26q65 0 98 13.5t33 47.5q0 47 -104 47h-101q-106 0 -106 99v39q0 98 106 98h101q38 0 55.5 8.5t17.5 32.5t-24 33.5t-76 9.5q-153 0 -324 -70q-63 24 -95 68t-32 98q0 114 127.5 172t364.5 58q561 0 561 -289
q0 -73 -47 -135.5t-139 -96.5q117 -28 177 -97t60 -159q0 -91 -48 -158t-134.5 -105.5t-193 -56.5t-236.5 -18q-81 0 -153.5 8t-142 27.5t-119.5 49.5t-80.5 77.5t-30.5 108.5z" />
    <glyph glyph-name="afii10074" unicode="&#x438;" horiz-adv-x="1507" 
d="M-10 1028q126 6 294.5 31t229.5 31q39 0 66 -13.5t40.5 -30.5t21 -49t8.5 -53.5t1 -58.5v-375q30 58 96.5 202t96.5 201q55 107 164 131q140 32 256 46q40 0 68 -14t42.5 -32.5t22 -50.5t9 -55t1.5 -59v-594q5 -117 49 -224q-76 -16 -168.5 -38.5t-136.5 -30.5t-84 -8
q-36 0 -62.5 14.5t-41.5 35.5t-24 55.5t-12.5 65t-4.5 72.5v355l-189 -414q-54 -106 -170 -135q-123 -34 -252 -49q-40 0 -68 14t-42.5 33t-22 51t-9 54.5t-1.5 58.5v555q-32 1 -58.5 8t-44.5 22t-31.5 30t-21.5 39.5t-12.5 42.5t-6.5 47t-2.5 44.5t-0.5 44.5z" />
    <glyph glyph-name="afii10075" unicode="&#x439;" horiz-adv-x="1507" 
d="M-10 1028q126 6 294.5 31t229.5 31q39 0 66 -13.5t40.5 -30.5t21 -49t8.5 -53.5t1 -58.5v-375q30 58 96.5 202t96.5 201q55 107 164 131q140 32 256 46q40 0 68 -14t42.5 -32.5t22 -50.5t9 -55t1.5 -59v-594q5 -117 49 -224q-76 -16 -168.5 -38.5t-136.5 -30.5t-84 -8
q-36 0 -62.5 14.5t-41.5 35.5t-24 55.5t-12.5 65t-4.5 72.5v355l-189 -414q-54 -106 -170 -135q-123 -34 -252 -49q-40 0 -68 14t-42.5 33t-22 51t-9 54.5t-1.5 58.5v555q-32 1 -58.5 8t-44.5 22t-31.5 30t-21.5 39.5t-12.5 42.5t-6.5 47t-2.5 44.5t-0.5 44.5zM618 1237
q0 77 42 127.5t105.5 76t128.5 47t119.5 58t71.5 92.5q95 -9 166.5 -79.5t71.5 -157.5q0 -66 -31 -113.5t-78 -72t-105 -47.5t-110 -41t-94 -50.5t-57 -77.5q-91 11 -160.5 81.5t-69.5 156.5z" />
    </font>
</defs>
</svg>
